<svg width="320" height="831" viewBox="0 0 320 831" fill="none" xmlns="http://www.w3.org/2000/svg">
<g opacity="0.3">
<path d="M-89.0485 604.674C-93.2289 603.367 -97.0682 601.561 -100.521 599.273C-107.76 594.473 -113.364 587.514 -117.176 578.588C-121.275 568.997 -123.34 557.027 -123.318 543.011C-123.273 514.842 -115.806 483.424 -108.585 453.039C-107.168 447.072 -105.702 440.903 -104.327 434.902C-94.9619 394.001 -89.5942 357.286 -87.9149 322.663C-84.5653 253.594 -94.54 190.638 -116.763 140.598C-142.464 82.7311 -180.989 45.8637 -225.244 36.7888C-251.255 31.4564 -294.305 44.6134 -326.256 80.0775C-345.219 101.125 -357.264 127.295 -361.086 155.756L-361.281 155.82C-359.275 140.894 -355.062 126.62 -348.757 113.393C-342.973 101.26 -335.43 89.9903 -326.337 79.8972C-311.874 63.8437 -293.968 51.206 -274.553 43.3486C-256.614 36.0895 -239.066 33.6644 -225.14 36.5201C-201.98 41.2711 -180.445 53.5268 -161.132 72.9504C-143.626 90.5589 -128.636 113.25 -116.58 140.396C-94.344 190.463 -84.3623 253.455 -87.7148 322.564C-89.3967 357.211 -94.7675 393.945 -104.136 434.869C-105.51 440.871 -106.977 447.042 -108.396 453.008C-115.613 483.371 -123.074 514.767 -123.118 542.895C-123.162 570.102 -115.51 588.983 -100.378 599.013C-79.422 612.905 -44.7821 608.381 -7.71668 586.908C45.697 555.966 96.5098 502.508 145.65 450.812C154.263 441.751 163.169 432.381 171.874 423.366C194.477 399.956 224.413 369.824 255.539 344.373C287.354 318.358 315.849 300.845 342.656 290.832C359.064 284.703 374.807 282.038 389.447 282.915C402.97 283.722 415.992 287.581 428.155 294.38C449.017 306.043 468.09 326.528 486.465 357.004C522.644 417.016 554.82 486.188 582.098 562.601C608.025 635.23 629.768 715.04 646.724 799.807L646.53 799.968C611.383 624.248 557.472 475.286 486.292 357.219C446.078 290.514 400.428 269.5 342.629 291.089C283.827 313.051 225.846 367.732 171.947 423.553C163.244 432.566 154.338 441.935 145.725 450.997C96.5691 502.711 45.7402 556.185 -7.71011 587.149C-24.9828 597.156 -42.4008 603.727 -58.0792 606.152C-66.3616 607.433 -74.096 607.545 -81.0705 606.487C-83.8535 606.074 -86.5144 605.466 -89.0485 604.674Z" fill="#FFE492"/>
<path d="M-78.6301 591.216C-89.2903 587.884 -97.7461 581.496 -103.771 572.221C-110.489 561.879 -114.143 547.965 -114.633 530.869C-114.676 529.354 -114.694 527.797 -114.687 526.235C-114.575 498.209 -107.511 467.104 -100.676 437.022C-99.2967 430.942 -97.8677 424.654 -96.5307 418.537C-88.5712 382.113 -83.7448 349.327 -81.7799 318.307C-81.5386 314.489 -81.3376 310.648 -81.1864 306.894C-78.4064 238.251 -88.9334 175.879 -111.629 126.522C-137.974 69.3035 -177.024 33.2986 -221.587 25.1419C-247.649 20.4055 -290.711 33.994 -322.594 69.1306C-341.685 90.1708 -354.051 116.301 -358.357 144.696L-358.551 144.755C-356.294 129.872 -351.876 115.632 -345.418 102.435C-339.487 90.3149 -331.836 79.0489 -322.674 68.9504C-308.157 52.9497 -290.275 40.2834 -270.966 32.3214C-253.12 24.9617 -235.549 22.317 -221.489 24.8743C-198.155 29.1459 -176.393 40.944 -156.808 59.9394C-139.069 77.1463 -123.809 99.4808 -111.451 126.321C-88.7418 175.706 -78.2105 238.115 -80.9906 306.797C-81.143 310.554 -81.3435 314.398 -81.5859 318.219C-83.5522 349.259 -88.3806 382.062 -96.3447 418.505C-97.6802 424.623 -99.1092 430.911 -100.49 436.993C-107.318 467.056 -114.378 498.139 -114.49 526.127C-114.497 527.683 -114.478 529.24 -114.436 530.751C-113.427 566.09 -99.2083 584.783 -78.5799 591.232C-78.4667 591.267 -78.3551 591.302 -78.2419 591.338C-78.3702 591.295 -78.5007 591.257 -78.6301 591.216ZM-74.1507 592.408C-54.2845 596.801 -29.3442 590.999 -4.70449 578.473C48.5133 551.295 100.467 499.865 150.712 450.129C152.781 448.079 154.849 446.033 156.916 443.988C161.456 439.499 166.833 434.185 172.289 428.84C196.76 404.868 225.817 377.158 255.774 353.407C287.648 328.133 316.062 310.866 342.639 300.616C358.964 294.33 374.696 291.224 389.399 291.386C403.021 291.535 416.212 294.498 428.602 300.188C450.005 310.021 469.785 328.117 489.073 355.512C507.89 382.193 522.419 406.313 534.794 431.419C552.313 467.01 566.724 506.213 578.511 539.866C605.839 618.283 628.567 704.73 646.065 796.808L645.873 796.966C628.376 704.9 605.651 618.46 578.327 540.053C566.541 506.404 552.133 467.207 534.616 431.626C522.244 406.527 507.72 382.414 488.905 355.74C446.888 296.061 400.402 278.625 342.611 300.876C282.614 324.01 223.269 379.161 172.352 429.039C166.895 434.384 161.52 439.695 156.98 444.187C154.913 446.23 152.845 448.277 150.775 450.328C100.514 500.08 48.5417 551.528 -4.71439 578.727C-17.9022 585.43 -30.8289 589.989 -43.1361 592.274C-54.5901 594.396 -65.0003 594.439 -74.1507 592.408Z" fill="#FFE492"/>
<path d="M-67.9293 578.23C-69.2117 577.829 -70.4668 577.386 -71.6918 576.899C-82.0135 572.804 -90.162 565.748 -95.9077 555.922C-102.192 545.175 -105.591 531.105 -106.009 514.1C-106.044 512.585 -106.058 511.026 -106.048 509.466C-105.87 481.597 -99.2048 450.811 -92.7588 421.044C-91.4153 414.839 -90.0264 408.422 -88.7305 402.179C-81.1555 365.767 -76.6481 333.155 -74.9532 302.478C-74.7449 298.685 -74.5758 294.867 -74.4553 291.133C-72.246 222.917 -83.3253 161.131 -106.493 112.455C-133.481 55.8867 -173.055 20.7416 -217.928 13.5026C-243.216 9.47956 -285.598 21.7379 -318.893 58.1548C-338.129 79.1945 -350.83 105.3 -355.624 133.647L-355.816 133.698C-353.305 118.846 -348.676 104.636 -342.061 91.462C-335.978 79.3448 -328.209 68.0796 -318.972 57.975C-304.401 42.0386 -286.553 29.356 -267.353 21.2942C-249.604 13.8413 -232.016 10.9813 -217.83 13.2376C-194.321 17.0329 -172.332 28.3708 -152.477 46.9375C-134.504 63.7459 -118.973 85.7203 -106.315 112.254C-83.1348 160.961 -72.05 222.781 -74.2595 291.036C-74.3812 294.773 -74.5487 298.591 -74.7592 302.389C-76.4561 333.084 -80.9665 365.715 -88.5462 402.147C-89.8432 408.393 -91.2322 414.81 -92.5756 421.014C-99.0164 450.766 -105.677 481.529 -105.856 509.364C-105.866 510.925 -105.854 512.48 -105.817 513.99C-104.119 583.087 -52.2921 591.927 -1.68465 570.039C51.5986 546.742 105.103 497.065 156.846 449.024L157.377 448.531C162.391 443.874 167.574 439.06 172.713 434.314C226.94 384.245 284.73 333.433 342.633 310.399C358.88 303.954 374.604 300.407 389.365 299.856C403.095 299.344 416.452 301.409 429.062 305.996C451.049 313.992 471.536 329.7 491.695 354.019C512.906 379.518 527.676 401.478 539.586 425.227C556.534 459.115 569.756 499.376 581.421 534.898C607.25 614.323 628.782 701.431 645.422 793.799L645.229 793.954C628.59 701.595 607.059 614.496 581.236 535.078C569.571 499.563 556.352 459.309 539.409 425.431C527.504 401.69 512.738 379.737 491.535 354.247C447.838 301.532 400.517 287.679 342.609 310.652C284.743 333.67 226.978 384.46 172.772 434.511C167.632 439.257 162.448 444.073 157.436 448.728L156.905 449.222C131.119 473.161 104.457 497.916 78.0042 519.204C48.2769 543.126 22.2047 559.835 -1.7031 570.287C-26.6537 581.077 -49.9708 583.844 -67.9293 578.23Z" fill="#FFE492"/>
<path d="M644.575 790.936C628.793 698.284 608.457 610.526 584.134 530.101C583.094 526.714 582.057 523.313 581.015 519.902C570.424 485.194 559.473 449.304 544.192 419.234C529.341 390.123 510.564 369.291 494.154 352.753C448.93 306.932 400.772 296.661 342.597 320.424C282.83 344.931 222.032 397.634 173.181 439.984C170.248 442.526 167.317 445.074 164.382 447.624C162.215 449.507 160.047 451.389 157.88 453.269C130.052 477.412 104.932 498.922 79.3179 517.708C50.0562 539.168 24.5362 553.606 1.29498 561.849C-20.4861 569.575 -40.7851 570.919 -56.9578 565.866C-59.9043 564.945 -62.711 563.814 -65.3681 562.467C-75.0693 557.552 -82.7066 549.874 -88.0669 539.646C-93.9165 528.486 -97.0572 514.249 -97.4046 497.329C-97.4337 495.813 -97.442 494.253 -97.4275 492.69C-97.1818 464.989 -90.9168 434.541 -84.8576 405.097C-83.5524 398.755 -82.2026 392.195 -80.9454 385.811C-73.7564 349.4 -69.5686 316.96 -68.139 286.636C-67.9614 282.863 -67.8269 279.071 -67.7366 275.36C-66.0995 207.571 -77.7296 146.37 -101.368 98.3744C-128.997 42.4554 -169.095 8.17591 -214.275 1.84666C-245.201 -2.38722 -286.687 16.2328 -315.16 47.1237C-334.559 68.1694 -347.607 94.2618 -352.898 122.579L-353.089 122.624C-350.319 107.797 -345.476 93.6061 -338.694 80.4449C-332.451 68.327 -324.559 57.0557 -315.238 46.9413C-300.619 31.0798 -282.806 18.386 -263.727 10.236C-246.08 2.69736 -228.484 -0.378019 -214.179 1.58117C-190.493 4.89744 -168.28 15.7774 -148.155 33.9153C-129.95 50.3248 -114.147 71.9427 -101.187 98.1682C-77.5341 146.193 -65.8986 207.427 -67.5369 275.258C-67.6267 278.972 -67.7624 282.767 -67.94 286.54C-69.3699 316.882 -73.5613 349.339 -80.7523 385.767C-82.0106 392.153 -83.3592 398.711 -84.6656 405.056C-90.7212 434.483 -96.9815 464.911 -97.2277 492.58C-97.2411 494.139 -97.2333 495.696 -97.2047 497.209C-95.7111 569.991 -43.1911 577.376 1.32827 561.588C54.4447 542.748 109.371 495.1 157.833 453.058C160.001 451.175 162.168 449.292 164.335 447.412C167.269 444.862 170.202 442.314 173.134 439.773C201.019 415.6 228.36 392.185 256.264 371.456C288.354 347.616 316.602 330.841 342.622 320.169C358.798 313.561 374.51 309.572 389.323 308.315C403.169 307.138 416.691 308.309 429.517 311.794C452.135 317.939 473.331 331.261 494.311 352.516C510.725 369.061 529.511 389.902 544.369 419.03C559.658 449.111 570.611 485.01 581.205 519.726C582.245 523.136 583.284 526.538 584.323 529.924C608.649 610.356 628.986 698.124 644.77 790.785L644.575 790.936Z" fill="#FFE492"/>
<path d="M643.928 787.922C628.715 693.21 609.577 604.791 587.039 525.124C585.69 520.357 584.324 515.451 583.001 510.708C573.53 476.737 563.737 441.61 548.982 413.039C534.216 384.583 514.309 365.839 496.781 351.259C450.213 312.241 401.218 305.549 342.593 330.198C286.618 353.84 231.54 398.487 178.276 441.663L172.427 446.402C167.808 450.148 163.032 454.017 158.334 457.809C105.169 500.673 53.3856 540.235 4.30404 553.407C-7.60624 556.604 -18.9607 557.85 -29.45 557.116C-40.7127 556.325 -50.6632 553.254 -59.0254 547.984C-68.1074 542.259 -75.2347 533.971 -80.2087 523.347C-85.622 511.787 -88.5077 497.388 -88.7847 480.555C-88.8072 479.032 -88.8095 477.471 -88.7912 475.913C-88.4816 448.396 -82.6142 418.301 -76.9393 389.196C-75.6731 382.702 -74.3645 375.985 -73.1468 369.446C-66.3491 333.033 -62.4776 300.765 -61.3123 270.8C-61.1672 267.056 -61.0634 263.283 -61.0054 259.592C-59.9391 192.23 -72.1199 131.616 -96.2311 84.2985C-124.507 29.0339 -165.129 -4.38567 -210.619 -9.80039C-241.535 -13.3626 -282.97 5.49405 -311.38 36.0585C-330.956 57.1172 -344.369 83.2122 -350.168 111.523L-350.359 111.562C-347.325 96.7485 -342.261 82.5671 -335.308 69.4145C-328.899 57.289 -320.875 46.0052 -311.46 35.8783C-296.793 20.1005 -279.026 7.41036 -260.076 -0.821944C-242.537 -8.44209 -224.941 -11.7233 -210.527 -10.0643C-186.666 -7.22434 -164.228 3.19495 -143.83 20.9047C-125.392 36.9157 -109.318 58.1735 -96.0568 84.0934C-71.9308 131.436 -59.7442 192.088 -60.8106 259.489C-60.8697 263.183 -60.9731 266.958 -61.1182 270.702C-62.2827 300.683 -66.1561 332.968 -72.9585 369.401C-74.1761 375.94 -75.4859 382.659 -76.752 389.153C-82.4234 418.241 -88.2884 448.322 -88.597 475.807C-88.6146 477.359 -88.6111 478.917 -88.5902 480.44C-87.4111 552.117 -39.8101 564.996 4.345 553.145C53.3868 539.985 105.149 500.437 158.291 457.593C162.99 453.801 167.765 449.931 172.385 446.186L178.233 441.447C204.379 420.254 231.414 398.337 258.984 378.706C290.209 356.473 317.564 340.522 342.611 329.941C358.722 323.167 374.426 318.736 389.284 316.774C403.253 314.928 416.943 315.203 429.972 317.59C453.286 321.861 475.185 332.795 496.927 351.012C514.463 365.601 534.382 384.352 549.156 412.83C563.92 441.413 573.716 476.551 583.189 510.531C584.512 515.274 585.879 520.178 587.227 524.947C609.767 604.621 628.908 693.047 644.121 787.768L643.928 787.922Z" fill="#FFE492"/>
<path d="M643.277 784.907C628.867 689.447 610.922 600.368 589.94 520.149C588.363 514.12 586.777 507.868 585.243 501.824C576.79 468.505 568.048 434.053 553.765 406.847C538.956 378.787 517.976 362.246 499.403 349.768C451.719 317.432 401.887 314.322 342.581 339.975C290.764 362.506 239.474 401.361 189.872 438.934C184.652 442.889 179.255 446.976 174.008 450.93C167.846 455.575 163.149 459.099 158.781 462.353C135.393 479.767 107.912 499.647 81.4212 515.047C53.3494 531.364 29.1064 541.152 7.30521 544.972C-4.15864 546.98 -14.9923 547.121 -24.8953 545.386C-35.5289 543.524 -44.8815 539.526 -52.69 533.501C-61.1503 526.974 -67.766 518.075 -72.3574 507.053C-77.3361 495.1 -79.9637 480.54 -80.1704 463.783C-80.1859 462.265 -80.1839 460.702 -80.1618 459.139C-79.788 431.827 -74.3157 402.101 -69.0254 373.354C-67.7984 366.686 -66.5295 359.793 -65.3527 353.08C-58.9466 316.651 -55.3942 284.559 -54.4918 254.962C-54.3785 251.24 -54.3077 247.494 -54.2804 243.823C-53.7848 176.888 -66.5179 116.859 -91.1008 70.2208C-120.019 15.609 -161.166 -16.9455 -206.963 -21.4504C-233.067 -23.9056 -274.296 -10.5108 -307.556 24.9444C-327.33 46.0246 -341.123 72.138 -347.439 100.46L-347.627 100.491C-344.325 85.6812 -339.032 71.5025 -331.897 58.3474C-325.311 46.2052 -317.148 34.9053 -307.631 24.7598C-292.921 9.07901 -275.205 -3.59747 -256.394 -11.9031C-238.967 -19.5969 -221.381 -23.0811 -206.87 -21.7169C-182.834 -19.3533 -160.168 -9.39423 -139.502 7.88626C-120.831 23.4983 -104.487 44.3991 -90.9253 70.0131C-66.3277 116.677 -53.5876 176.741 -54.0834 243.714C-54.1106 247.385 -54.1822 251.138 -54.2965 254.862C-55.1998 284.473 -58.7541 316.583 -65.1621 353.029C-66.3385 359.745 -67.6074 366.639 -68.8343 373.306C-74.1238 402.039 -79.5909 431.749 -79.9647 459.031C-79.9857 460.591 -79.9882 462.151 -79.9716 463.666C-79.2318 523.858 -46.5826 554.153 7.36472 544.701C56.2192 536.143 108.94 499.213 158.753 462.123C163.121 458.869 167.817 455.345 173.978 450.7C179.225 446.746 184.623 442.659 189.842 438.704C214.261 420.207 239.51 401.08 265.11 383.781C294.058 364.216 319.408 349.803 342.604 339.717C358.663 332.771 374.355 327.898 389.247 325.237C403.353 322.714 417.208 322.095 430.43 323.39C454.501 325.753 477.109 334.298 499.544 349.511C518.126 361.998 539.124 378.547 553.944 406.631C568.236 433.855 576.979 468.317 585.436 501.645C586.969 507.69 588.555 513.942 590.132 519.97C611.114 600.198 629.061 689.284 643.474 784.751L643.277 784.907Z" fill="#FFE492"/>
<path d="M642.622 781.893C629.018 685.679 612.269 595.938 592.838 515.171C591.184 508.301 589.541 501.118 587.951 494.173C580.375 461.087 572.543 426.877 558.548 400.65C543.617 372.832 521.596 358.563 502.024 348.273C454.174 322.82 402.016 323.303 342.569 349.748C295.174 370.949 247.989 404.382 202.357 436.715C193.14 443.246 183.61 450 174.415 456.403C168.788 460.323 163.82 463.756 159.224 466.897C137.858 481.482 109.824 499.983 82.4624 513.711C54.9711 527.503 31.3663 534.97 10.3013 536.534C-12.6741 538.241 -32.2681 532.181 -46.3628 519.014C-54.1988 511.692 -60.3057 502.185 -64.5137 490.757C-69.0569 478.418 -71.4275 463.7 -71.5645 447.016C-71.5741 445.497 -71.566 443.933 -71.5407 442.371C-71.1037 415.287 -66.0275 385.954 -61.1179 357.589C-59.9304 350.727 -58.7018 343.633 -57.5681 336.721C-51.5578 300.27 -48.3222 268.347 -47.6791 239.132C-47.5977 235.433 -47.5587 231.709 -47.5632 228.062C-47.6383 161.554 -60.921 102.108 -85.9777 56.1544C-115.539 2.19799 -157.211 -29.494 -203.315 -33.0897C-234.621 -35.3862 -274.96 -16.5449 -303.69 13.7912C-323.683 34.9017 -337.87 61.0498 -344.718 89.4088L-344.904 89.4313C-341.326 74.6121 -335.798 60.4235 -328.475 47.2615C-321.707 35.0958 -313.392 23.7716 -303.764 13.604C-289.015 -1.96938 -271.358 -14.6222 -252.7 -22.9874C-235.393 -30.7458 -217.821 -34.4314 -203.225 -33.3598C-179.013 -31.4726 -156.121 -21.971 -135.184 -5.12188C-116.28 10.0917 -99.6646 30.6356 -85.8016 55.9409C-60.7313 101.923 -47.4405 161.401 -47.3651 227.95C-47.3605 231.598 -47.4007 235.325 -47.4816 239.026C-48.1266 268.259 -51.363 300.197 -57.3752 336.665C-58.509 343.577 -59.7386 350.673 -60.9262 357.535C-65.8333 385.886 -70.9071 415.206 -71.3437 442.262C-71.369 443.824 -71.3764 445.382 -71.3668 446.901C-70.8828 506.625 -40.3264 540.032 10.3721 536.267C56.5921 532.832 109.219 500.784 159.202 466.666C163.797 463.525 168.765 460.095 174.39 456.175C183.584 449.771 193.114 443.02 202.33 436.489C247.972 404.15 295.166 370.708 342.583 349.499C358.604 342.371 374.286 337.06 389.197 333.706C403.457 330.501 417.48 328.985 430.873 329.2C455.782 329.601 479.097 335.759 502.149 348.02C521.735 358.317 543.775 372.596 558.721 400.444C572.727 426.69 580.562 460.913 588.139 494.011C589.73 500.957 591.374 508.137 593.028 515.007C612.46 595.78 629.211 685.527 642.816 781.748L642.622 781.893Z" fill="#FFE492"/>
<path d="M641.974 778.879C629.184 681.905 613.629 591.508 595.741 510.197C594.098 502.725 592.486 494.853 590.929 487.241C584.153 454.145 577.149 419.922 563.335 394.456C548.229 366.781 525.191 354.826 504.647 346.78C456.336 327.572 403.317 331.739 342.561 359.524C299.894 379.148 257.187 407.513 215.885 434.943C201.684 444.376 188.269 453.286 174.828 461.876C169.359 465.374 164.403 468.503 159.675 471.439C129.175 490.357 104.975 503.363 83.5137 512.368C56.5894 523.667 33.6244 528.812 13.307 528.094C5.42552 527.815 -2.01521 526.578 -8.9156 524.421C-21.1477 520.597 -31.6905 513.888 -40.0255 504.52C-55.1093 487.567 -62.8211 462.577 -62.9469 430.241C-62.9491 428.71 -62.9363 427.147 -62.9067 425.593C-62.4086 398.764 -57.7264 369.857 -53.1969 341.898C-52.0499 334.814 -50.8629 327.493 -49.7707 320.353C-44.1582 283.867 -41.2433 252.119 -40.8536 223.292C-40.8041 219.617 -40.7969 215.916 -40.8333 212.291C-41.479 146.211 -55.3141 87.35 -80.8424 42.0755C-111.047 -11.2229 -153.241 -42.0546 -199.654 -44.741C-231.357 -46.4246 -270.65 -27.8532 -299.755 2.57455C-319.987 23.7238 -334.588 49.9247 -341.983 78.3453L-342.168 78.362C-338.306 63.5213 -332.535 49.3133 -325.013 36.1328C-318.05 23.9326 -309.578 12.5799 -299.828 2.38791C-285.047 -13.0649 -267.459 -25.6797 -248.962 -34.0955C-231.78 -41.9137 -214.239 -45.7881 -199.567 -45.009C-175.18 -43.5981 -152.061 -34.5567 -130.854 -18.1368C-111.718 -3.31896 -94.8334 16.8674 -80.6663 41.862C-55.1244 87.1646 -41.2812 146.058 -40.634 212.177C-40.5987 215.805 -40.6059 219.506 -40.655 223.184C-41.0438 252.026 -43.9606 283.792 -49.5756 320.292C-50.6678 327.431 -51.8543 334.756 -53.0029 341.839C-57.53 369.784 -62.2109 398.68 -62.7081 425.485C-62.7365 427.037 -62.751 428.599 -62.7476 430.128C-62.5148 490.513 -34.763 526.122 13.3925 527.823C59.2335 529.441 113.057 500.107 159.665 471.197C164.391 468.261 169.347 465.134 174.816 461.637C188.255 453.046 201.669 444.139 215.87 434.706C257.178 407.269 299.894 378.9 342.577 359.27C358.584 351.949 374.256 346.196 389.162 342.166C403.599 338.264 417.788 335.851 431.333 334.998C457.164 333.372 481.186 337.139 504.768 346.517C525.33 354.568 548.387 366.535 563.511 394.243C577.337 419.728 584.344 453.966 591.121 487.074C592.68 494.687 594.291 502.558 595.933 510.027C613.822 591.345 629.377 681.75 642.168 778.731L641.974 778.879Z" fill="#FFE492"/>
<path d="M641.331 775.867C629.192 676.751 615.232 588.222 598.652 505.222C597.069 497.303 595.615 489.266 594.074 480.758C588.055 447.496 581.829 413.104 568.127 388.264C552.72 360.504 527.516 350.715 507.278 345.29C458.973 332.063 405.091 339.918 342.558 369.304C304.985 387.062 267.192 410.677 230.642 433.516C211.433 445.52 193.29 456.854 175.245 467.354C169.887 470.474 164.941 473.296 160.128 475.984C130.309 492.612 106.301 503.745 84.5687 511.024C58.1912 519.858 35.8661 522.682 16.3167 519.656C6.27233 518.101 -2.99411 514.906 -11.2256 510.16C-19.9406 505.135 -27.4962 498.36 -33.6829 490.025C-47.3952 471.549 -54.3406 445.795 -54.3258 413.474C-54.3221 411.942 -54.3032 410.378 -54.2704 408.825C-53.7141 382.292 -49.4226 353.841 -45.2733 326.327C-44.1662 318.986 -43.0211 311.395 -41.9709 303.995C-36.762 267.466 -34.1634 235.89 -34.0274 207.462C-34.0113 203.809 -34.0359 200.131 -34.1009 196.53C-35.3174 130.877 -49.7031 72.6021 -75.703 28.0067C-99.7537 -13.0312 -131.025 -40.2961 -165.776 -51.1595C-175.6 -54.2306 -185.695 -55.9897 -195.991 -56.3826C-227.574 -57.435 -266.736 -38.7122 -295.763 -8.68378C-316.252 12.5134 -331.289 38.7867 -339.248 67.2937L-339.431 67.3021C-335.279 52.4267 -329.254 38.1875 -321.525 24.9822C-314.361 12.7404 -305.717 1.34921 -295.836 -8.87356C-281.028 -24.1926 -263.518 -36.7574 -245.195 -45.2125C-227.899 -53.1949 -210.855 -57.1501 -195.909 -56.6495C-171.347 -55.7149 -148.002 -47.1311 -126.524 -31.1425C-107.154 -16.7263 -89.9964 3.10096 -75.529 27.7895C-49.5144 72.4105 -35.1189 130.718 -33.901 196.41C-33.8344 200.012 -33.8092 203.693 -33.8265 207.349C-33.9633 235.792 -36.5626 267.383 -41.7735 303.928C-42.8237 311.328 -43.9672 318.92 -45.0754 326.264C-49.2234 353.766 -53.5137 382.205 -54.0701 408.717C-54.1018 410.268 -54.1207 411.832 -54.1249 413.361C-54.1516 473.8 -28.4402 512.441 16.418 519.386C61.8103 526.412 117.065 499.748 160.133 475.735C164.945 473.047 169.89 470.224 175.247 467.106C193.288 456.612 211.43 445.274 230.636 433.273C267.191 410.432 304.991 386.81 342.577 369.048C374.772 353.918 403.955 344.68 431.797 340.803C458.649 337.064 483.377 338.445 507.394 345.021C521.125 348.702 531.737 353.082 540.793 358.801C552.483 366.186 561.483 375.752 568.308 388.049C582.022 412.911 588.249 447.321 594.273 480.599C595.812 489.107 597.268 497.141 598.848 505.06C615.429 588.063 629.39 676.598 641.53 775.72L641.331 775.867Z" fill="#FFE492"/>
<path d="M640.674 772.85C629.372 672.951 616.573 583.783 601.547 500.242C600.062 491.977 598.726 483.524 597.313 474.575C592.016 441.044 586.542 406.368 572.908 382.065C557.261 354.337 531.015 347.046 509.899 343.79C462.214 336.191 407.471 347.733 342.545 379.072C310.509 394.622 278.145 413.76 246.845 432.27C222.103 446.9 198.734 460.721 175.655 472.816C170.437 475.554 165.362 478.145 160.574 480.515C131.724 494.784 107.206 504.316 85.6176 509.659C59.7682 516.057 38.0807 516.564 19.3172 511.206C9.77093 508.478 1.02546 504.169 -6.66869 498.394C-14.7341 492.34 -21.6913 484.642 -27.3463 475.509C-39.6892 455.576 -45.87 429.059 -45.7144 396.692C-45.7038 395.164 -45.6805 393.599 -45.6427 392.038C-45.0302 365.848 -41.1292 337.905 -37.3577 310.882C-36.2902 303.236 -35.1866 295.327 -34.1797 287.618C-29.3764 251.035 -27.0969 219.633 -27.2082 191.615C-27.2239 187.984 -27.2804 184.329 -27.3772 180.751C-29.1643 115.525 -44.1024 57.8356 -70.5739 13.9193C-102.067 -38.0599 -145.312 -67.1671 -192.339 -68.0402C-223.77 -68.4812 -262.78 -49.6302 -291.718 -20.0185C-312.488 1.23679 -327.981 27.6006 -336.524 56.2262L-336.704 56.2266C-332.252 41.3049 -325.964 27.0225 -318.015 13.7786C-310.636 1.48471 -301.812 -9.95201 -291.788 -20.2104C-276.963 -35.381 -259.54 -47.8835 -241.404 -56.3669C-224.249 -64.3907 -207.255 -68.5196 -192.256 -68.3097C-167.518 -67.8484 -143.946 -59.7278 -122.199 -44.1684C-102.599 -30.1454 -85.1714 -10.6757 -70.4015 13.7016C-43.9125 57.6413 -28.9675 115.366 -27.1805 180.63C-27.082 184.209 -27.0251 187.867 -27.0105 191.5C-26.8984 219.534 -29.1803 250.95 -33.9845 287.548C-34.9897 295.258 -36.0949 303.166 -37.1619 310.815C-40.9321 337.826 -44.8318 365.758 -45.4441 391.93C-45.4808 393.488 -45.504 395.054 -45.5151 396.578C-45.8107 458.279 -22.7484 498.897 19.4292 510.936C53.6509 520.709 98.5045 510.96 160.585 480.259C165.371 477.888 170.444 475.299 175.661 472.562C198.734 460.468 222.101 446.652 246.84 432.02C278.144 413.509 310.514 394.366 342.559 378.814C375.294 363.012 404.63 352.476 432.245 346.597C460.22 340.643 485.655 339.633 510.001 343.514C531.14 346.771 557.416 354.075 573.087 381.846C586.734 406.177 592.212 440.869 597.511 474.416C598.923 483.365 600.26 491.815 601.745 500.077C616.772 583.621 629.571 672.795 640.872 772.7L640.674 772.85Z" fill="#FFE492"/>
<path d="M640.028 769.836C629.569 669.153 617.934 579.341 604.454 495.269C603.086 486.734 601.893 477.937 600.632 468.623C596.043 434.744 591.296 399.71 577.7 375.873C561.791 348.147 534.515 343.365 512.529 342.296C465.661 339.804 411.647 354.598 342.54 388.849C316.586 401.779 290.268 416.636 264.817 431.003C233.905 448.452 204.707 464.937 176.07 478.29C170.909 480.699 165.847 482.978 161.026 485.058C132.642 497.294 108.322 504.897 86.6757 508.3C74.5513 510.207 63.1492 510.769 52.7858 509.973C41.7322 509.123 31.4836 506.698 22.3244 502.766C3.74197 494.788 -10.8347 480.736 -21.0001 461.003C-31.9784 439.691 -37.3939 412.413 -37.0931 379.922C-37.0747 378.385 -37.0455 376.818 -37.0079 375.266C-36.3417 349.481 -32.8307 322.108 -29.4348 295.639C-28.4075 287.626 -27.3439 279.341 -26.3814 271.256C-21.9899 234.607 -20.0283 203.378 -20.3834 175.781C-20.4298 172.171 -20.5198 168.538 -20.648 164.986C-23.0046 100.185 -38.4934 43.0811 -65.4388 -0.150768C-97.5752 -51.4688 -141.343 -79.713 -188.679 -79.6831C-239.458 -79.4341 -309.375 -31.629 -333.791 45.1711L-333.969 45.1631C-327.862 25.9514 -318.87 7.95469 -307.244 -8.33205C-296.626 -23.2064 -284.026 -36.3896 -269.794 -47.5113C-256.562 -57.8532 -242.531 -65.9672 -228.094 -71.6295C-214.363 -77.0142 -200.705 -79.8943 -188.6 -79.9536C-163.686 -79.9686 -139.889 -72.3056 -117.871 -57.1749C-98.0383 -43.5478 -80.3404 -24.435 -65.2692 -0.366304C-38.3102 42.8937 -22.8117 100.03 -20.4524 164.868C-20.3237 168.423 -20.2338 172.056 -20.1868 175.669C-19.8314 203.278 -21.7949 234.525 -26.1872 271.189C-27.1497 279.273 -28.2133 287.558 -29.2418 295.574C-32.6359 322.035 -36.1456 349.396 -36.811 375.167C-36.8502 376.718 -36.8811 378.284 -36.8984 379.818C-37.4742 442.261 -16.3973 485.831 22.446 502.509C55.3321 516.624 100.667 510.836 161.044 484.807C165.863 482.727 170.923 480.45 176.084 478.041C204.713 464.691 233.907 448.208 264.815 430.761C290.269 416.391 316.59 401.532 342.548 388.601C411.684 354.334 465.721 339.537 512.615 342.027C527.388 342.745 538.869 345.087 548.746 349.401C561.372 354.915 570.899 363.503 577.873 375.658C591.486 399.522 596.234 434.576 600.826 468.475C602.088 477.786 603.28 486.582 604.647 495.114C618.128 579.193 629.763 669.008 640.221 769.697L640.028 769.836Z" fill="#FFE492"/>
<path d="M639.382 766.824C629.775 665.345 619.3 574.893 607.361 490.294C606.126 481.54 605.092 472.453 604 462.829C600.104 428.545 596.075 393.091 582.49 369.678C566.121 341.617 536.223 339.758 515.159 340.8C458.084 343.404 395.869 371.491 342.537 398.627C323.344 408.437 303.83 419.083 284.957 429.377C247.098 450.029 211.34 469.536 176.488 483.766C171.362 485.861 166.313 487.824 161.48 489.605C133.484 499.888 109.362 505.561 87.7394 506.942C63.2266 508.508 42.2314 504.267 25.3345 494.329C7.97676 484.12 -5.47665 468.026 -14.6488 446.494C-24.2702 423.911 -28.9206 395.872 -28.4733 363.155C-28.4484 361.62 -28.4148 360.052 -28.3717 358.496C-27.6584 333.203 -24.5341 306.491 -21.5136 280.657C-20.5227 272.19 -19.5007 263.438 -18.5817 254.896C-14.5494 217.657 -12.954 187.489 -13.5557 159.949C-13.6339 156.362 -13.7552 152.755 -13.9158 149.222C-16.8475 84.8509 -32.8886 28.3322 -60.3044 -14.2231C-93.0856 -64.8773 -137.377 -92.2617 -185.021 -91.3282C-236.391 -90.1244 -305.061 -42.8752 -331.059 34.1165L-331.234 34.1006C-324.784 14.9992 -315.569 -2.90681 -303.848 -19.1192C-293.107 -33.9729 -280.464 -47.1608 -266.269 -58.312C-253.032 -68.7121 -239.015 -76.9227 -224.603 -82.7214C-210.881 -88.2433 -197.166 -91.3114 -184.941 -91.5988C-159.851 -92.0896 -135.829 -84.8846 -113.542 -70.1858C-93.4761 -56.9545 -75.5074 -38.1987 -60.1336 -14.4413C-32.7003 28.1375 -16.6511 84.6885 -13.7212 149.098C-13.5617 152.633 -13.44 156.243 -13.3601 159.831C-12.7565 187.383 -14.3555 217.568 -18.3885 254.822C-19.3076 263.364 -20.3307 272.119 -21.3216 280.585C-24.3403 306.411 -27.4628 333.115 -28.178 358.396C-28.2212 359.952 -28.2552 361.517 -28.2801 363.052C-29.149 426.65 -10.0619 473.181 25.4658 494.075C57.3294 512.815 101.829 511.266 161.509 489.345C166.34 487.567 171.387 485.606 176.51 483.51C211.353 469.283 247.106 449.781 284.959 429.13C303.832 418.836 323.348 408.187 342.544 398.376C378.406 380.131 407.2 367.37 433.157 358.216C463.714 347.441 490.561 341.657 515.233 340.531C530.298 339.785 542.563 341.149 552.73 344.703C565.821 349.279 575.613 357.377 582.663 369.464C596.266 392.907 600.297 428.381 604.195 462.687C605.289 472.309 606.32 481.395 607.557 490.143C619.497 574.745 629.97 665.203 639.579 766.686L639.382 766.824Z" fill="#FFE492"/>
<path d="M638.729 763.806C629.978 661.53 620.666 570.436 610.261 485.313C609.169 476.387 608.306 467.049 607.393 457.161C604.182 422.426 600.863 386.508 587.274 363.482C570.609 335.382 539.633 336.223 517.782 339.302C463.896 346.72 406.529 374.985 342.525 408.4C330.968 414.458 319.203 420.762 307.824 426.861C264.06 450.313 218.809 474.562 176.897 489.236C171.804 491.021 166.765 492.672 161.924 494.143C134.631 502.417 110.027 506.262 88.7941 505.571C64.74 504.789 44.3998 498.165 28.3317 485.885C12.1919 473.55 -0.135513 455.412 -8.30931 431.974C-16.5806 408.256 -20.4702 379.459 -19.8691 346.384C-19.8382 344.848 -19.7986 343.279 -19.7523 341.724C-18.995 317.041 -16.259 291.109 -13.6134 266.031C-12.6601 256.995 -11.6744 247.653 -10.8 238.536C-7.19479 201.202 -5.90746 171.2 -6.74748 144.117C-6.85775 140.562 -7.01136 136.975 -7.2031 133.459C-10.6973 69.5087 -27.2875 13.5763 -55.1793 -28.2983C-88.6036 -78.2881 -133.418 -104.81 -181.372 -102.976C-231.505 -100.893 -300.049 -56.016 -328.338 23.0558L-328.509 23.032C-321.714 4.03832 -312.277 -13.7744 -300.461 -29.9124C-289.597 -44.7486 -276.912 -57.9381 -262.756 -69.1192C-236.639 -89.7446 -206.948 -102.184 -181.295 -103.248C-156.031 -104.212 -131.782 -97.4675 -109.223 -83.2001C-88.9259 -70.3619 -70.6869 -51.9662 -55.0106 -28.5201C-27.103 13.3774 -10.5042 69.3453 -7.0035 133.328C-6.81127 136.846 -6.65766 140.433 -6.5469 143.992C-5.70768 171.09 -6.99465 201.103 -10.6022 238.451C-11.4778 247.571 -12.462 256.914 -13.4152 265.95C-16.0602 291.022 -18.7955 316.948 -19.5532 341.619C-19.6011 343.173 -19.6396 344.74 -19.6704 346.276C-20.8735 412.449 -4.22492 460.638 28.4744 485.634C58.7536 508.779 103.663 511.553 161.96 493.879C166.8 492.408 171.834 490.759 176.924 488.976C218.821 474.307 264.067 450.062 307.822 426.613C319.202 420.514 330.967 414.21 342.525 408.152C370.543 393.525 402.996 376.847 433.604 364.02C465.62 350.604 493.173 342.432 517.839 339.036C533.389 336.846 546.103 337.162 556.703 340.004C570.071 343.587 580.411 351.414 587.44 363.268C593.528 373.583 598.107 387.568 601.438 406.024C604.38 422.32 606.009 439.964 607.586 457.024C608.498 466.909 609.361 476.247 610.453 485.17C620.858 570.296 630.171 661.393 638.922 763.673L638.729 763.806Z" fill="#FFE492"/>
<path d="M638.083 760.793C630.196 657.713 622.046 565.976 613.167 480.34C612.226 471.273 611.541 461.716 610.816 451.6C608.288 416.377 605.675 379.955 592.064 357.292C579.324 336.16 555.885 329.788 520.41 337.81C470.866 348.895 418.739 377.047 363.549 406.855C356.677 410.567 349.573 414.404 342.519 418.182C339.756 419.666 336.988 421.156 334.223 422.643C281.702 450.892 227.394 480.104 177.313 494.713C172.25 496.191 167.225 497.53 162.377 498.688C135.348 505.138 110.951 506.995 89.866 504.205C66.2559 501.079 46.5652 492.077 31.345 477.448C16.4084 463.09 5.20697 442.907 -1.94768 417.461C-8.88248 392.797 -12.0107 363.244 -11.2444 329.618C-11.2076 328.081 -11.162 326.51 -11.1113 324.954C-10.3202 301.063 -7.96915 276.091 -5.69815 251.941C-4.77733 242.161 -3.82678 232.047 -2.9943 222.173C0.177016 184.73 1.15786 154.896 0.0862452 128.283C-0.0563501 124.747 -0.241321 121.186 -0.464898 117.694C-4.53573 54.1717 -21.6771 -1.17805 -50.0417 -42.3709C-84.1086 -91.6933 -129.449 -117.355 -177.71 -114.622C-227.307 -111.682 -295.995 -66.3066 -325.603 12.0009L-325.774 11.9714C-318.631 -6.91675 -308.974 -24.6366 -297.066 -40.6951C-286.077 -55.5133 -273.348 -68.7101 -259.231 -79.9153C-233.156 -100.614 -203.418 -113.36 -177.637 -114.889C-152.196 -116.329 -127.721 -110.045 -104.894 -96.2065C-84.3632 -83.7668 -65.8517 -65.7276 -49.873 -42.5927C-21.4937 -1.37437 -4.33985 54.0061 -0.270134 117.561C-0.046557 121.053 0.139388 124.621 0.281984 128.156C1.3528 154.783 0.375005 184.628 -2.79872 222.085C-3.62959 231.959 -4.58285 242.075 -5.50205 251.856C-7.77403 276 -10.1228 300.967 -10.9137 324.848C-10.9645 326.405 -11.0105 327.972 -11.0473 329.509C-12.6046 397.882 2.10749 448.951 31.499 477.201C60.5125 505.088 104.564 512.225 162.428 498.418C167.272 497.258 172.294 495.922 177.355 494.445C227.418 479.843 281.716 450.637 334.227 422.39C336.995 420.901 339.76 419.414 342.523 417.93C349.577 414.152 356.681 410.315 363.552 406.605C418.754 376.792 470.894 348.633 520.461 337.543C536.488 333.917 549.648 333.188 560.692 335.307C574.515 337.96 585.127 345.285 592.236 357.074C598.332 367.224 602.773 381.223 605.812 399.871C608.492 416.324 609.774 434.191 611.014 451.468C611.74 461.581 612.425 471.135 613.365 480.199C622.244 565.838 630.395 657.578 638.281 760.661L638.083 760.793Z" fill="#FFE492"/>
<path d="M637.426 757.777C630.956 661.996 623.769 566.977 616.063 475.36C615.258 466.079 614.746 456.218 614.203 445.78C612.439 411.826 610.439 373.342 596.841 351.095C583.866 329.92 559.721 325.084 523.027 336.31C479.43 349.579 434.885 375.204 387.724 402.333C372.955 410.828 357.681 419.615 342.502 427.952C315.988 442.548 287.511 457.861 258.921 470.979C228.301 485.028 201.739 494.578 177.714 500.179C172.667 501.356 167.655 502.382 162.815 503.224C136.046 507.874 111.868 507.726 90.9547 502.781C67.8045 497.305 48.7554 485.943 34.3391 468.999C7.82518 437.459 -4.61765 384.921 -2.64166 312.842C-2.59885 311.304 -2.54734 309.732 -2.49338 308.177C-1.68218 285.358 0.280583 261.631 2.17971 238.684C3.07297 227.883 3.9982 216.714 4.78598 205.809C7.5205 168.239 8.19053 138.572 6.89459 112.448C6.71967 108.932 6.50285 105.393 6.24792 101.927C1.61351 38.8283 -16.0814 -15.9335 -44.9175 -56.4472C-79.6277 -105.105 -125.492 -129.902 -174.062 -126.271C-224.345 -122.418 -291.611 -77.4838 -322.883 0.941779L-323.049 0.901743C-315.559 -17.8835 -305.677 -35.5095 -293.68 -51.4894C-282.565 -66.2918 -269.793 -79.4931 -255.719 -90.7236C-242.459 -101.305 -228.477 -109.81 -214.161 -116.005C-200.262 -122.018 -186.748 -125.564 -173.991 -126.541C-148.374 -128.455 -123.672 -122.631 -100.575 -109.224C-79.814 -97.1753 -61.0322 -79.4962 -44.7509 -56.6726C-15.8973 -16.1356 1.80727 38.6591 6.44654 101.789C6.70034 105.258 6.91925 108.8 7.09417 112.316C8.38931 138.455 7.71962 168.134 4.98543 205.716C4.19652 216.624 3.27129 227.793 2.3769 238.596C0.478904 261.541 -1.4843 285.265 -2.29535 308.075C-2.35206 309.632 -2.40083 311.202 -2.44526 312.739C-4.41918 384.762 8.01086 437.258 34.4999 468.766C61.896 500.963 106.287 512.787 162.874 502.955C167.71 502.113 172.721 501.089 177.764 499.914C231.478 487.394 288.599 457.378 342.502 427.704C357.681 419.368 372.953 410.582 387.721 402.087C434.892 374.953 479.447 349.322 523.065 336.047C559.816 324.804 584.006 329.653 597.012 350.877C603.102 360.841 607.395 374.817 610.138 393.599C612.556 410.162 613.492 428.206 614.4 445.654C614.943 456.092 615.454 465.95 616.26 475.225C623.967 566.845 631.154 661.864 637.623 757.647L637.426 757.777Z" fill="#FFE492"/>
<path d="M636.782 754.765C631.151 658.727 625.159 563.049 618.971 470.385C618.336 461.059 618.015 451.087 617.673 440.531C616.559 406 615.296 366.861 601.635 344.898C588.415 323.676 563.562 320.377 525.659 334.808C485.962 349.893 444.353 375.708 404.112 400.677C383.935 413.195 363.07 426.14 342.501 437.725C310.023 456.033 283.544 469.468 259.167 480.005C229.108 492.997 202.601 501.386 178.134 505.649C173.111 506.526 168.11 507.236 163.271 507.762C138.059 510.494 115.215 508.724 95.3064 502.504C94.2003 502.158 93.1074 501.799 92.0202 501.426C69.2671 493.621 50.8747 479.868 37.3523 460.554C30.8406 451.195 25.2684 440.158 20.7926 427.748C16.585 416.084 13.2155 402.841 10.7768 388.388C6.38864 362.386 4.81867 332.187 5.9785 296.069C6.02971 294.516 6.08367 292.96 6.14313 291.4C6.95145 270.129 8.52562 248.122 10.0491 226.839C10.9273 214.554 11.8373 201.849 12.5871 189.44C14.9056 151.211 15.2576 122.579 13.7221 96.6067C13.5154 93.1134 13.2668 89.5981 12.98 86.1544C7.77425 23.489 -10.4713 -30.687 -39.7791 -70.5215C-75.1319 -118.512 -121.521 -142.446 -170.399 -137.918C-220.115 -133.264 -287.516 -87.8708 -320.146 -10.1175L-320.309 -10.1654C-305.11 -46.3817 -281.554 -77.9742 -252.19 -101.526C-238.917 -112.172 -224.948 -120.774 -210.666 -127.099C-196.77 -133.253 -183.199 -136.984 -170.329 -138.188C-144.536 -140.578 -119.608 -135.212 -96.2408 -122.237C-75.2488 -110.581 -56.1963 -93.2593 -39.613 -70.7501C-10.2873 -30.8891 7.96802 23.3199 13.178 86.0224C13.4636 89.4687 13.7144 92.9876 13.9211 96.4809C15.4558 122.468 15.1052 151.109 12.7843 189.352C12.0334 201.764 11.125 214.469 10.2452 226.754C8.72286 248.034 7.1482 270.039 6.34051 291.304C6.28105 292.864 6.22547 294.419 6.17538 295.97C3.71008 372.718 13.9627 426.481 37.5194 460.331C70.2209 507.043 123.989 511.763 163.337 507.496C168.173 506.97 173.17 506.261 178.192 505.384C234.464 495.576 295.559 463.943 342.498 437.482C363.064 425.903 383.928 412.957 404.102 400.441C444.351 375.469 485.97 349.645 525.686 334.554C542.646 328.096 556.7 325.268 568.648 325.912C583.382 326.704 594.538 333.02 601.803 344.685C607.921 354.52 612.088 368.559 614.543 387.6C616.706 404.378 617.298 422.697 617.869 440.416C618.21 450.969 618.531 460.938 619.167 470.259C625.354 562.922 631.347 658.601 636.979 754.638L636.782 754.765Z" fill="#FFE492"/>
<path d="M636.133 751.751L621.874 465.412C621.409 456.061 621.278 446.002 621.138 435.356C620.678 400.222 620.155 360.401 606.421 338.708C593.14 317.732 566.851 315.918 528.284 333.316C491.208 350.042 452.911 375.725 415.874 400.564C391.733 416.755 366.77 433.495 342.492 447.507C269.52 489.621 212.714 510.211 163.722 512.307C143.398 513.175 124.671 510.955 107.844 505.695C102.744 504.101 97.8218 502.228 93.0796 500.077C70.7146 489.935 52.9768 473.796 40.3595 452.115C28.6666 432.018 21.064 406.431 17.1244 373.892C13.9777 347.908 13.1732 317.852 14.5943 279.304C15.3435 258.961 16.6199 237.979 17.8543 217.689C20.6459 171.772 23.5333 124.292 20.5474 80.7767C15.9659 14.0333 -3.12052 -43.1509 -34.6476 -84.5953C-70.6426 -131.915 -117.555 -154.989 -166.742 -149.564C-214.363 -144.312 -281.826 -101.895 -317.418 -21.1736L-317.577 -21.2294C-301.668 -57.3102 -277.839 -88.8115 -248.668 -112.328C-222.291 -133.592 -193.172 -146.911 -166.674 -149.832C-140.705 -152.696 -115.551 -147.789 -91.9151 -135.247C-70.6907 -123.987 -51.3685 -107.019 -34.4827 -84.8212C-18.8825 -64.3142 -6.23732 -39.7864 3.10288 -11.9173C12.5208 16.1851 18.4575 47.326 20.7449 80.6415C23.7332 124.172 20.8461 171.665 18.0533 217.593C16.82 237.881 15.5447 258.859 14.795 279.2C12.7202 335.444 13.7729 405.901 40.5362 451.896C71.2295 504.643 124.508 513.712 163.799 512.033C212.766 509.941 269.547 489.358 342.49 447.258C366.759 433.253 391.72 416.512 415.858 400.326C452.902 375.483 491.208 349.794 528.303 333.06C566.936 315.631 593.278 317.456 606.593 338.487C612.742 348.2 616.784 362.31 618.95 381.628C620.856 398.633 621.101 417.244 621.337 435.239C621.476 445.885 621.609 455.938 622.073 465.286L636.332 751.625L636.133 751.751Z" fill="#FFE492"/>
<path d="M643.364 732.342C642.274 653.516 639.954 589.103 636.065 529.636C634.185 500.751 631.869 472.174 629.18 444.698C628.367 436.387 627.784 427.635 627.167 418.367C625.618 395.076 624.016 370.993 618.522 351.774C615.579 341.44 611.866 333.538 607.172 327.618C592.811 309.328 566.371 310.188 528.588 330.177C509.042 340.5 489.83 353.195 473.614 364.251C456.446 375.956 438.76 389.253 421.654 402.111C397.068 420.595 371.646 439.707 346.532 455.096C331.235 464.497 316.374 472.524 302.359 478.957C274.321 491.827 246.271 500.884 218.986 505.879C202.164 508.882 186.039 510.087 171.064 509.458C158.162 508.905 145.797 507.047 134.309 503.937C117.116 499.284 101.674 491.702 88.4154 481.396C74.3187 470.436 62.591 456.311 53.5606 439.409C45.5083 424.338 39.398 406.622 34.8828 385.244C26.4576 345.436 24.7887 301.929 24.2767 268.474C24.0541 251.971 24.1067 235.229 24.1572 219.039C24.306 172.412 24.4454 128.373 18.5979 87.2785C13.7492 53.9472 4.86689 23.7146 -7.80565 -2.58531C-17.5436 -22.7965 -29.8894 -40.6957 -44.4981 -55.7871C-47.9791 -59.3789 -51.6086 -62.847 -55.2844 -66.0879C-71.1162 -80.0279 -90.5553 -91.9593 -113.06 -101.552C-135.726 -111.275 -157.065 -115.663 -178.296 -114.959C-190.287 -114.59 -202.839 -112.054 -215.609 -107.425C-260.692 -91.0809 -301.593 -52.7715 -325.02 -4.94449L-325.21 -5.03662C-318.964 -17.7865 -311.494 -29.9328 -303.007 -41.1432C-294.944 -51.7912 -285.911 -61.6673 -276.158 -70.498C-257.733 -87.178 -236.782 -100.06 -215.57 -107.75C-202.78 -112.387 -190.208 -114.926 -178.199 -115.296C-156.947 -115.999 -135.59 -111.609 -112.905 -101.876C-90.3882 -92.2801 -70.94 -80.3398 -55.0975 -66.3905C-51.418 -63.1455 -47.7869 -59.6769 -44.3038 -56.0815C-29.6827 -40.9802 -17.327 -23.066 -7.58169 -2.83756C5.09975 23.48 13.9892 53.7387 18.8381 87.091C24.6895 128.211 24.5488 172.261 24.402 218.901C24.3499 235.09 24.2983 251.83 24.5204 268.329C25.0316 301.769 26.7004 345.255 35.1217 385.039C39.6318 406.394 45.7348 424.093 53.7782 439.146C71.4524 472.223 98.5914 493.911 134.444 503.606C145.922 506.713 158.279 508.568 171.17 509.122C186.136 509.748 202.248 508.545 219.057 505.543C246.325 500.552 274.359 491.501 302.379 478.638C316.384 472.211 331.236 464.187 346.52 454.794C371.62 439.413 397.037 420.305 421.615 401.827C438.723 388.967 456.414 375.665 473.588 363.957C489.812 352.894 509.034 340.196 528.594 329.866C545.416 320.965 560.217 315.811 572.588 314.542C587.784 312.984 599.489 317.288 607.375 327.333C612.084 333.272 615.808 341.195 618.759 351.553C624.26 370.801 625.863 394.899 627.414 418.206C628.031 427.47 628.614 436.222 629.426 444.527C632.117 472.007 634.434 500.587 636.313 529.478C640.202 588.95 642.52 653.369 643.611 732.201L643.364 732.342Z" fill="#FFE492"/>
<path d="M650.6 712.927C652.257 633.632 650.737 566.368 645.95 507.295C643.633 478.446 640.45 450.416 636.489 423.984C635.438 416.971 634.533 409.741 633.572 402.089C630.697 379.171 627.724 355.473 620.7 337.525C617.167 328.432 612.99 321.564 607.926 316.526C588.537 297.227 554.25 311.587 528.898 327.029C510.954 337.928 493.207 351.045 475.095 364.65C459.24 376.56 443.462 389.77 426.759 403.754C401.966 424.513 376.329 445.977 350.577 462.68C335.265 472.661 320.287 480.747 306.059 486.713C279.554 497.83 252.87 504.555 224.482 507.276C208.596 508.797 193.093 508.573 178.405 506.605C166.022 504.921 154.192 502.005 143.246 497.929C126.957 491.876 112.315 482.978 99.7249 471.484C86.5031 459.41 75.4122 444.341 66.7618 426.696C59.1819 411.239 53.2274 393.138 48.5566 371.363C40.0544 331.862 36.2878 289.839 33.9585 257.641C33.0963 245.722 32.3454 233.766 31.6196 222.2C28.7284 176.142 25.9993 132.636 16.651 93.7796C9.66485 64.7396 -0.998098 38.6979 -15.0389 16.3807C-25.6626 -0.505719 -38.5194 -14.6884 -54.3412 -26.9781C-57.9938 -29.8119 -61.7841 -32.5216 -65.605 -35.032C-82.3992 -46.0322 -101.824 -54.2797 -125.469 -63.9215C-142.483 -70.9441 -165.176 -79.1598 -189.85 -80.3622C-201.515 -80.9828 -213.672 -79.5285 -225.986 -76.0461C-269.342 -63.779 -309.205 -31.134 -332.623 11.283L-332.834 11.1424C-326.625 -0.105925 -319.267 -10.7414 -310.966 -20.4737C-303.057 -29.7461 -294.243 -38.2526 -284.769 -45.7648C-266.767 -60.0347 -246.418 -70.6436 -225.923 -76.4411C-213.585 -79.9311 -201.405 -81.3872 -189.721 -80.7663C-165.021 -79.5652 -142.313 -71.3413 -125.287 -64.3152C-101.633 -54.6709 -82.2027 -46.4213 -65.3967 -35.4144C-61.5736 -32.9004 -57.7801 -30.1897 -54.1226 -27.3544C-38.2864 -15.0512 -25.4169 -0.855615 -14.7811 16.0495C-0.725984 38.3891 9.94635 64.4516 16.9402 93.5209C26.2944 132.405 29.0271 175.925 31.918 222.001C32.6433 233.564 33.3942 245.52 34.2575 257.436C36.5881 289.622 40.3523 331.629 48.8483 371.111C53.5124 392.863 59.4607 410.944 67.0318 426.384C84.0416 461.079 109.746 485.016 143.426 497.532C154.364 501.602 166.181 504.517 178.553 506.197C193.226 508.164 208.716 508.39 224.588 506.868C252.952 504.151 279.613 497.431 306.095 486.325C320.306 480.365 335.265 472.291 350.559 462.319C376.289 445.631 401.915 424.174 426.698 403.427C443.407 389.437 459.188 376.224 475.052 364.309C493.174 350.694 510.928 337.573 528.89 326.663C545.325 316.651 560.004 310.342 572.521 307.905C587.699 304.951 599.69 307.729 608.163 316.161C613.244 321.22 617.437 328.111 620.981 337.231C628.015 355.212 630.991 378.931 633.869 401.868C634.829 409.518 635.737 416.745 636.786 423.754C640.748 450.196 643.931 478.235 646.25 507.093C651.036 566.181 652.558 633.457 650.898 712.77L650.6 712.927Z" fill="#FFE492"/>
<path d="M657.834 693.513C662.237 612.665 661.584 544.447 655.835 484.959C653.077 456.146 649.027 428.665 643.798 403.275C642.682 397.847 641.592 392.117 640.539 386.578C636.191 363.692 631.695 340.029 622.881 323.281C618.76 315.381 614.117 309.543 608.685 305.436C587.837 289.672 553.958 306.767 529.211 323.881C512.462 335.422 495.759 349.214 479.604 362.555L476.579 365.053C461.916 377.152 447.159 390.837 431.533 405.328C406.652 428.401 380.926 452.258 354.622 470.265C339.275 480.841 324.18 488.987 309.756 494.474C284.606 504.041 259.253 508.553 229.974 508.675C214.834 508.737 199.953 507.081 185.745 503.75C173.881 500.933 162.588 496.956 152.179 491.92C120.657 476.698 96.3595 450.476 79.9601 413.984C72.8709 398.209 67.07 379.73 62.2308 357.484C54.013 319.904 48.5403 282.206 43.6411 246.814C42.9832 242.07 42.3399 237.36 41.7008 232.687C35.0667 184.215 28.802 138.43 14.706 100.292C5.50372 75.3937 -6.9394 53.5461 -22.2741 35.3541C-33.5329 21.9992 -47.2425 11.0352 -64.1833 1.83632C-68.0034 -0.232165 -71.9533 -2.18609 -75.9247 -3.97067C-85.9243 -8.43942 -96.9872 -12.1156 -108.701 -16.007C-118.109 -19.1331 -127.836 -22.365 -137.883 -26.2845C-157.238 -33.9673 -179.175 -42.6721 -201.411 -45.7559C-212.884 -47.3462 -224.645 -46.9765 -236.37 -44.6558C-277.981 -36.4174 -316.809 -9.43214 -340.237 27.5301L-340.457 27.321C-334.281 17.5753 -327.036 8.45011 -318.924 0.198581C-311.168 -7.6924 -302.573 -14.8351 -293.381 -21.0299C-275.8 -32.8771 -256.053 -41.2063 -236.276 -45.1218C-224.525 -47.4491 -212.739 -47.8201 -201.244 -46.2259C-178.986 -43.1382 -157.039 -34.4272 -137.675 -26.7418C-127.634 -22.827 -117.908 -19.5924 -108.503 -16.4674C-96.7845 -12.5744 -85.7184 -8.89726 -75.7102 -4.42284C-71.7368 -2.63462 -67.782 -0.679177 -63.9587 1.39032C-46.9964 10.599 -33.2707 21.5769 -21.9965 34.9515C-6.64324 53.1642 5.81299 75.0368 15.0256 99.9627C29.1346 138.134 35.4027 183.941 42.0386 232.435C42.6777 237.108 43.3237 241.815 43.9789 246.562C48.8771 281.947 54.3467 319.635 62.5626 357.203C67.3979 379.423 73.1915 397.885 80.2729 413.64C96.6498 450.086 120.917 476.272 152.398 491.475C162.795 496.504 174.077 500.478 185.927 503.291C200.121 506.618 214.988 508.272 230.111 508.21C259.361 508.089 284.684 503.582 309.8 494.028C324.194 488.552 339.261 480.422 354.582 469.865C380.852 451.88 406.563 428.036 431.429 404.976C447.062 390.479 461.827 376.787 476.501 364.679L479.526 362.181C495.689 348.835 512.402 335.033 529.169 323.48C553.995 306.31 587.986 289.17 608.932 305.006C614.388 309.132 619.051 314.991 623.185 322.923C632.019 339.706 636.52 363.395 640.872 386.306C641.924 391.845 643.013 397.575 644.129 402.999C649.36 428.402 653.412 455.899 656.171 484.727C661.923 544.239 662.576 612.482 658.171 693.356L657.834 693.513Z" fill="#FFE492"/>
<path d="M665.069 674.096C672.132 592.838 672.351 521.688 665.718 462.625C662.52 433.85 657.604 406.917 651.108 382.571C650.17 379.055 649.227 375.415 648.312 371.895C642.278 348.64 636.039 324.59 625.066 309.045C620.376 302.324 615.268 297.519 609.448 294.351C587.123 282.204 553.664 301.993 529.526 320.734C514.569 332.297 499.78 345.733 485.477 358.727C483.003 360.977 480.531 363.221 478.062 365.454C464.497 377.721 450.676 391.841 436.044 406.789C411.169 432.201 385.447 458.476 358.666 477.856C342.939 489.235 328.15 497.21 313.448 502.241C282.7 512.762 256.77 512.107 235.46 510.083C221.048 508.711 206.789 505.626 193.079 500.904C181.741 496.957 170.985 491.915 161.109 485.921C131.817 468.167 108.954 439.69 93.1571 401.28C86.5826 385.302 80.9391 366.439 75.901 343.615C70.7923 320.604 66.2781 298.589 61.9116 277.296C58.9454 262.825 56.1422 249.156 53.3218 236.001C42.6615 186.273 32.2506 142.227 12.7628 106.814C1.34689 86.0723 -12.8741 68.4135 -29.5067 54.3306C-41.4273 44.2363 -55.5737 36.7136 -74.0218 30.6511C-78.0056 29.3521 -82.1168 28.1534 -86.2408 27.091C-92.5137 25.4971 -99.1499 24.1895 -106.174 22.8082C-119.654 20.1549 -134.936 17.1474 -150.299 11.3541C-156.148 9.14652 -162.06 6.76419 -167.777 4.45772C-182.483 -1.47324 -197.689 -7.60541 -212.974 -11.1512C-224.2 -13.7532 -235.567 -14.466 -246.758 -13.2676C-286.6 -8.99698 -324.394 12.3318 -347.859 43.7856L-348.071 43.4895C-341.927 35.2526 -334.797 27.6404 -326.878 20.8623C-319.273 14.3533 -310.899 8.57703 -301.992 3.69544C-284.83 -5.71019 -265.686 -11.7602 -246.628 -13.8026C-235.409 -15.0045 -224.016 -14.2925 -212.766 -11.6829C-197.464 -8.13468 -182.252 -1.99785 -167.538 3.93563C-161.823 6.2416 -155.911 8.62392 -150.063 10.831C-134.714 16.6197 -119.446 19.6263 -105.972 22.2776C-98.9443 23.6599 -92.3065 24.968 -86.0271 26.564C-81.8983 27.6279 -77.7839 28.8276 -73.7953 30.1281C-55.3201 36.1961 -41.1544 43.7337 -29.213 53.8435C-12.5607 67.9445 1.68055 85.6246 13.1101 106.394C21.9137 122.39 29.5621 141.56 36.4941 164.997C42.7003 185.978 47.8616 208.426 53.7037 235.676C56.5229 248.833 59.3261 262.502 62.294 276.974C66.66 298.263 71.1742 320.279 76.2807 343.286C81.3139 366.088 86.9512 384.93 93.5168 400.891C109.292 439.25 132.122 467.686 161.373 485.416C171.238 491.403 181.981 496.438 193.305 500.381C206.999 505.098 221.243 508.181 235.638 509.548C256.92 511.572 282.816 512.225 313.511 501.723C328.172 496.707 342.922 488.752 358.608 477.402C385.343 458.056 411.045 431.801 435.901 406.41C450.542 391.453 464.37 377.326 477.949 365.046C480.418 362.813 482.889 360.568 485.362 358.321C499.674 345.318 514.473 331.873 529.449 320.295C545.153 308.102 559.602 299.463 572.393 294.617C587.545 288.876 600.097 288.617 609.7 293.845C615.549 297.028 620.682 301.855 625.391 308.603C636.394 324.191 642.641 348.27 648.683 371.554C649.597 375.075 650.54 378.715 651.478 382.228C657.978 406.592 662.897 433.55 666.098 462.347C669.62 493.709 671.235 528.691 670.896 566.321C670.597 599.58 668.764 635.788 665.45 673.935L665.069 674.096Z" fill="#FFE492"/>
<path d="M672.307 654.675C682.106 571.879 683.216 499.75 675.605 440.29C671.965 411.552 666.184 385.169 658.423 361.867C658.054 360.758 657.685 359.648 657.316 358.536C649.256 334.281 640.923 309.201 627.258 294.81C621.965 289.234 616.39 285.46 610.22 283.268C586.416 274.818 553.375 297.266 529.85 317.583C516.043 329.455 502.509 342.967 489.421 356.033C486.185 359.265 482.838 362.605 479.557 365.853C467.058 378.22 454.16 392.692 440.506 408.017C415.668 435.89 389.986 464.711 362.719 485.443C346.944 497.437 332.038 505.471 317.147 510.007C287.813 518.941 263.189 515.997 240.95 511.486C227.238 508.703 213.601 504.183 200.417 498.054C189.608 492.974 179.39 486.87 170.043 479.914C143.011 459.826 121.583 429.094 106.36 388.572C100.263 372.346 94.9302 353.652 89.5805 329.742C79.3691 284.404 71.176 252.158 63.0156 225.189C46.7844 171.55 31.1787 138.099 10.8365 113.341C-2.78242 96.7655 -18.7824 83.2981 -36.7213 73.3097C-49.1676 66.3812 -63.7003 62.1097 -83.844 59.4681C-87.9751 58.9346 -92.246 58.4917 -96.5404 58.1548C-100.602 57.8489 -104.776 57.6484 -109.194 57.4339C-125.51 56.6454 -144.003 55.7519 -162.704 48.9928C-172.562 45.4309 -182.317 41.0652 -191.752 36.8446C-202.475 32.0483 -213.562 27.0874 -224.534 23.4547C-235.534 19.813 -246.508 18.0176 -257.144 18.1244C-295.185 18.4997 -331.95 34.1762 -355.488 60.057L-355.666 59.6522C-349.552 52.9278 -342.536 46.8285 -334.813 41.523C-327.358 36.3994 -319.209 31.9913 -310.588 28.4166C-293.842 21.4708 -275.299 17.701 -256.965 17.5208C-246.301 17.4168 -235.303 19.214 -224.276 22.8639C-213.295 26.4996 -202.201 31.4625 -191.475 36.2629C-182.043 40.4825 -172.292 44.8467 -162.443 48.406C-143.775 55.152 -125.301 56.0451 -109.004 56.8338C-104.583 57.0462 -100.408 57.2503 -96.3429 57.5542C-92.0436 57.8925 -87.7694 58.3364 -83.634 58.8683C-63.4601 61.5164 -48.902 65.7929 -36.4299 72.7384C-18.4658 82.7406 -2.44285 96.2271 11.1952 112.826C31.5655 137.618 47.1874 171.103 63.4335 224.788C71.5969 251.767 79.7932 284.023 90.0065 329.374C95.3533 353.265 100.68 371.939 106.77 388.148C121.974 428.613 143.368 459.302 170.36 479.36C179.695 486.306 189.903 492.401 200.695 497.475C213.864 503.597 227.483 508.111 241.178 510.892C263.383 515.395 287.964 518.338 317.231 509.424C332.066 504.907 346.921 496.898 362.64 484.947C389.848 464.26 415.504 435.469 440.314 407.626C453.978 392.292 466.884 377.808 479.403 365.423C482.683 362.178 486.029 358.838 489.265 355.606C502.364 342.527 515.907 329.006 529.738 317.115C545.09 303.855 559.424 294.051 572.343 287.974C587.476 280.855 600.307 279.08 610.477 282.686C616.683 284.889 622.285 288.684 627.605 294.286C641.314 308.726 649.66 333.841 657.73 358.132C658.099 359.244 658.469 360.356 658.837 361.462C666.607 384.791 672.395 411.206 676.04 439.975C683.655 499.487 682.545 571.673 672.74 654.526L672.307 654.675Z" fill="#FFE492"/>
<path d="M249.12 513.728C248.213 513.445 247.319 513.163 246.443 512.88C233.407 508.703 220.389 502.754 207.758 495.194C197.483 488.983 187.802 481.818 178.981 473.901C166.373 462.602 154.929 448.449 144.962 431.836C135.337 415.793 126.793 396.961 119.568 375.858C112.488 355.183 107.135 332.937 103.262 315.867C94.162 276.014 83.883 241.869 72.7117 214.376C54.6175 169.85 34.3477 139.817 8.91806 119.863C-6.42313 107.825 -24.3788 98.3925 -43.0602 92.5525C-43.3496 92.4621 -43.6375 92.3721 -43.9281 92.2842C-60.0152 87.3567 -77.3364 87.4445 -93.656 88.2751C-97.9078 88.5006 -102.34 88.813 -106.832 89.2082C-109.297 89.4342 -111.777 89.6855 -114.4 89.9515C-132.911 91.837 -153.89 93.9711 -175.107 86.6253C-188.028 82.1504 -200.447 75.7677 -212.456 69.5935C-220.21 65.606 -228.227 61.4853 -236.089 58.0519C-246.897 53.3335 -257.472 50.4572 -267.527 49.5071C-303.732 46.0789 -339.469 56.1057 -363.126 76.3304L-363.244 75.8012C-351.11 65.4292 -336.284 57.7996 -319.177 53.1212C-302.84 48.6555 -284.9 47.1738 -267.3 48.8412C-257.219 49.7962 -246.614 52.6758 -235.783 57.4076C-227.913 60.8435 -219.892 64.9683 -212.135 68.9569C-200.133 75.1285 -187.723 81.5088 -174.819 85.9754C-153.657 93.304 -132.712 91.1709 -114.234 89.2904C-111.607 89.0223 -109.128 88.771 -106.661 88.5455C-102.166 88.1513 -97.7292 87.8373 -93.4742 87.6128C-77.1269 86.7819 -59.7764 86.6943 -43.6494 91.6313C-24.6241 97.4564 -6.32526 107.008 9.27733 119.253C22.4008 129.554 33.9443 142.284 44.5639 158.173C54.7911 173.476 64.1472 191.703 73.1635 213.897C84.3442 241.41 94.6303 275.582 103.736 315.46C107.604 332.52 112.953 354.749 120.027 375.402C134.688 418.222 154.648 451.16 179.352 473.304C188.16 481.211 197.829 488.366 208.088 494.57C220.705 502.118 233.703 508.061 246.722 512.23C267.095 518.754 291.3 525.049 320.955 517.117C335.965 513.102 350.919 505.044 366.674 492.486C394.343 470.43 419.903 439.01 444.625 408.623C457.342 392.994 469.352 378.229 480.857 365.796C484.542 361.812 488.302 357.697 491.939 353.716C504.226 340.268 516.929 326.365 530.022 313.935C545.033 299.62 559.256 288.647 572.292 281.324C587.407 272.832 600.512 269.535 611.246 271.524C617.871 272.75 623.943 275.511 629.811 279.965C645.499 291.87 655.973 315.483 666.192 340.691C675.103 362.67 681.945 389.262 685.976 417.597C690.486 448.993 692.072 484.667 690.687 523.626C689.453 558.336 685.866 595.845 680.026 635.115L679.542 635.263C692.086 550.929 694.088 477.819 685.489 417.967C681.464 389.673 674.634 363.12 665.736 341.178C655.534 316.014 645.081 292.446 629.451 280.584C623.615 276.154 617.576 273.41 610.992 272.19C591.269 268.54 562.567 283.541 530.172 314.436C517.103 326.843 504.411 340.735 492.135 354.169C488.498 358.152 484.734 362.269 481.049 366.253C469.566 378.663 457.564 393.415 444.861 409.031C432.731 423.94 420.188 439.359 407.159 453.876C392.388 470.335 379.179 483.142 366.77 493.035C350.946 505.649 335.924 513.742 320.843 517.777C307.543 521.336 294.458 522.345 280.837 520.868C269.307 519.607 258.454 516.646 249.12 513.728Z" fill="#FFE492"/>
<path d="M274.48 523.151C266.234 520.574 258.657 517.298 251.918 514.272C239.529 508.71 227.134 501.329 215.081 492.333C205.345 484.996 196.2 476.772 187.901 467.884C165.162 443.579 147.126 409.315 132.758 363.14C126.49 343.005 121.5 321.888 116.928 301.987C107.861 262.793 96.2436 229.679 82.396 203.561C62.0304 165.149 38.0716 140.624 6.99487 126.379C-10.7119 118.263 -30.8144 113.032 -51.1401 111.249C-68.1527 109.757 -86.3226 113.309 -103.477 117.072C-107.773 118.023 -112.367 119.094 -117.13 120.252C-118.321 120.545 -119.526 120.846 -120.745 121.148C-140.784 126.139 -163.459 131.787 -186.367 124.625C-186.754 124.504 -187.138 124.381 -187.524 124.252C-202.913 119.151 -217.19 110.606 -230.999 102.339C-236.473 99.0608 -242.135 95.6735 -247.659 92.6366C-258.451 86.7085 -268.35 82.8591 -277.926 80.8743C-312.754 73.657 -346.603 77.9241 -370.794 92.5898L-370.816 91.9292C-358.858 84.6804 -343.971 79.7943 -327.769 77.799C-311.832 75.837 -294.499 76.6481 -277.642 80.1422C-268.04 82.1325 -258.115 85.99 -247.299 91.9315C-241.768 94.9704 -236.106 98.3608 -230.629 101.637C-216.833 109.894 -202.569 118.432 -187.209 123.523C-163.991 131.223 -140.945 125.48 -120.616 120.415C-119.398 120.113 -118.192 119.812 -116.999 119.517C-112.232 118.357 -107.636 117.287 -103.337 116.337C-86.1533 112.565 -67.9515 109.011 -50.8923 110.506C-30.5352 112.292 -10.3993 117.531 7.33709 125.659C22.7378 132.718 36.2242 142.233 48.5678 154.746C61.2804 167.633 72.5041 183.409 82.8783 202.981C96.7421 229.134 108.375 262.288 117.453 301.522C122.022 321.415 127.009 342.519 133.272 362.635C147.621 408.748 165.63 442.961 188.331 467.228C196.619 476.1 205.752 484.314 215.473 491.641C227.509 500.626 239.886 507.998 252.259 513.549C273.078 522.892 295.816 531.457 324.67 524.79C339.854 521.279 354.91 513.173 370.698 500.004C398.824 476.548 425.389 440.865 448.828 409.382C460.621 393.541 471.76 378.58 482.298 366.151C486.099 361.667 489.984 357.018 493.741 352.522C505.494 338.456 517.646 323.913 530.296 310.736C544.982 295.37 559.093 283.228 572.234 274.648C587.327 264.796 600.709 259.979 612.003 260.338C619.064 260.561 625.607 262.29 632.007 265.615C649.886 274.914 662.535 297.196 673.541 319.892C683.704 340.848 691.436 366.886 695.907 395.194C700.913 426.605 702.484 462.627 700.576 502.252C698.869 537.687 694.405 575.848 687.307 615.68L686.781 615.811C701.869 531.144 704.84 454.999 695.376 395.607C690.915 367.353 683.196 341.363 673.053 320.45C662.075 297.807 649.459 275.58 631.655 266.32C625.293 263.012 618.79 261.296 611.776 261.072C590.921 260.411 562.057 278.229 530.5 311.247C517.875 324.396 505.736 338.926 493.995 352.978C490.237 357.476 486.352 362.125 482.547 366.614C472.032 379.014 460.904 393.961 449.123 409.785C425.646 441.316 399.038 477.057 370.82 500.591C354.945 513.831 339.805 521.983 324.535 525.514C311.285 528.576 298.356 528.705 285.008 525.902C281.392 525.16 277.88 524.214 274.48 523.151Z" fill="#FFE492"/>
<path d="M289.541 531.09C289.423 531.053 289.306 531.017 289.188 530.98C277.555 527.29 267.111 521.393 257.409 515.668C245.636 508.723 233.866 499.908 222.422 489.474C213.226 481.016 204.619 471.728 196.839 461.871C176.201 435.764 160.036 400.354 145.966 350.429C140.897 332.453 136.485 313.423 132.215 295.023C131.682 292.72 131.146 290.419 130.611 288.118C121.422 248.894 108.466 216.809 92.1016 192.757C69.692 159.823 41.2323 140.244 5.09516 132.901C-14.7201 128.876 -36.6518 127.949 -58.3287 130.22C-75.4328 132.014 -92.6028 138.102 -113.274 145.874C-117.468 147.46 -121.96 149.183 -127.407 151.3L-127.712 151.42C-138.241 155.547 -150.174 160.222 -162.408 162.789C-176.459 165.738 -188.731 165.435 -199.927 161.893C-217.379 156.356 -232.947 145.486 -247.999 134.971C-251.687 132.394 -255.503 129.73 -259.22 127.238C-269.88 120.094 -279.398 115.195 -288.316 112.261C-321.154 101.458 -354.012 100.222 -378.462 108.865L-378.367 108.089C-366.39 103.854 -351.859 101.921 -336.344 102.498C-320.8 103.076 -304.073 106.18 -287.973 111.475C-279.029 114.418 -269.487 119.328 -258.804 126.487C-255.084 128.981 -251.268 131.645 -247.579 134.222C-232.544 144.723 -216.996 155.581 -199.586 161.104C-199.508 161.128 -199.429 161.153 -199.351 161.177C-174.404 168.976 -148.479 158.818 -127.634 150.65L-127.328 150.531C-121.878 148.412 -117.386 146.689 -113.19 145.103C-92.4844 137.319 -75.2838 131.219 -58.1265 129.421C-36.4121 127.144 -14.4447 128.073 5.404 132.105C23.0875 135.699 38.5179 141.997 52.5782 151.364C67.7298 161.457 80.8239 174.78 92.6053 192.097C109.001 216.194 121.981 248.332 131.184 287.62C131.72 289.921 132.254 292.224 132.787 294.527C137.055 312.921 141.466 331.945 146.53 349.907C160.581 399.77 176.721 435.13 197.325 461.194C205.093 471.037 213.689 480.31 222.871 488.758C234.299 499.178 246.052 507.979 257.807 514.912C278.86 527.336 300.102 538.029 328.397 532.503C343.752 529.503 358.908 521.347 374.73 507.566C403.313 482.671 429.683 444.038 452.952 409.951C463.844 393.993 474.134 378.918 483.747 366.552C487.446 361.794 491.227 356.859 494.884 352.085C506.317 337.158 518.137 321.725 530.579 307.579C544.959 291.16 558.958 277.847 572.185 268.01C587.261 256.8 600.914 250.469 612.765 249.197C620.113 248.408 626.988 249.053 633.764 251.172C633.911 251.218 634.058 251.264 634.206 251.313C655.194 258.077 670.182 280.422 680.897 299.133C692.309 319.068 700.937 344.551 705.848 372.829C711.351 404.258 712.907 440.624 710.472 480.92C708.287 517.08 702.947 555.895 694.594 596.29L694.025 596.401C706.452 536.297 718.486 448.802 705.266 373.294C700.369 345.08 691.76 319.657 680.375 299.769C669.693 281.11 654.752 258.831 633.865 252.101C626.989 249.877 620.023 249.198 612.565 249.999C590.608 252.359 561.581 272.994 530.831 308.103C518.418 322.216 506.61 337.631 495.19 352.541C491.532 357.318 487.749 362.256 484.049 367.016C474.46 379.351 464.182 394.406 453.302 410.347C429.992 444.496 403.572 483.203 374.879 508.194C358.951 522.068 343.692 530.278 328.234 533.297C315.133 535.853 302.47 535.132 289.541 531.09Z" fill="#FFE492"/>
<path d="M300.89 538.841C298.38 538.056 295.871 537.123 293.358 536.039C282.357 531.296 272.668 524.355 262.888 517.06C251.552 508.605 240.712 498.645 229.751 486.613C221.101 477.04 213.031 466.693 205.766 455.855C187.324 428.39 172.952 391.953 159.165 337.715C155.741 324.246 152.549 310.243 149.462 296.701C147.781 289.33 146.045 281.706 144.287 274.243C134.918 234.718 120.623 203.668 101.801 181.95C76.9319 153.255 44.6786 139.341 3.19444 139.413C-18.7228 139.452 -42.4837 142.829 -65.517 149.179C-84.0204 154.28 -102.338 163.841 -121.731 173.964L-123.072 174.664C-126.104 176.252 -129.173 177.865 -132.279 179.497C-134.068 180.438 -135.869 181.385 -137.686 182.339C-149.033 188.332 -161.156 194.494 -173.636 198.252C-188.125 202.615 -200.782 203.033 -212.334 199.529C-231.563 193.691 -247.996 180.336 -263.884 167.414C-266.151 165.569 -268.498 163.662 -270.785 161.834C-281.506 153.261 -290.38 147.482 -298.712 143.642C-329.462 129.472 -361.326 122.722 -386.139 125.123L-385.918 124.255C-361.04 121.848 -329.108 128.607 -298.305 142.802C-289.95 146.652 -281.054 152.447 -270.312 161.036C-268.024 162.867 -265.677 164.774 -263.409 166.62C-247.715 179.383 -231.492 192.574 -212.582 198.485C-212.379 198.549 -212.175 198.612 -211.968 198.674C-187.425 206.12 -162.818 194.815 -137.67 181.538C-135.854 180.584 -134.053 179.637 -132.263 178.696C-129.156 177.062 -126.09 175.451 -123.055 173.861L-121.714 173.161C-102.288 163.021 -83.9395 153.443 -65.3757 148.325C-42.2998 141.961 -18.4982 138.579 3.45753 138.54C45.0463 138.468 77.3856 152.421 102.322 181.194C121.19 202.968 135.519 234.088 144.909 273.7C146.666 281.166 148.405 288.788 150.085 296.161C153.169 309.7 156.361 323.699 159.784 337.159C173.553 391.335 187.905 427.721 206.314 455.14C213.57 465.96 221.627 476.294 230.265 485.851C241.21 497.867 252.033 507.812 263.354 516.254C280.538 529.071 301.923 545.024 332.123 540.19C347.649 537.706 362.904 529.5 378.76 515.102C407.804 488.731 433.932 447.039 456.984 410.258C466.998 394.279 476.457 379.186 485.191 366.936C488.594 362.163 492.076 357.215 495.443 352.428C506.736 336.374 518.414 319.775 530.855 304.406C544.951 286.924 558.837 272.439 572.129 261.352C587.191 248.789 601.116 240.946 613.518 238.041C621.477 236.175 628.96 235.832 636.396 236.99C646.355 238.539 655.692 243.129 664.944 251.01C672.772 257.683 680.394 266.624 688.247 278.351C700.912 297.263 710.433 322.192 715.783 350.443C721.785 381.888 723.325 418.605 720.363 459.568C717.696 496.456 711.477 535.924 701.876 576.88L701.268 576.964C721.535 490.497 726.467 410.232 715.155 350.957C709.82 322.783 700.325 297.924 687.697 279.068C670.777 253.804 654.378 240.707 636.077 237.857C628.691 236.705 621.26 237.047 613.357 238.897C583.853 245.809 552.374 278.622 531.164 304.929C518.754 320.261 507.09 336.84 495.811 352.874C492.441 357.663 488.958 362.614 485.554 367.39C476.847 379.603 467.399 394.679 457.397 410.638C434.295 447.499 408.112 489.278 378.936 515.769C362.955 530.28 347.578 538.551 331.927 541.056C321.32 542.754 311.095 542.031 300.89 538.841Z" fill="#FFE492"/>
<path d="M310.273 546.59C293.172 541.244 279.802 528.957 268.363 518.446C257.6 508.559 247.367 497.207 237.074 483.745C228.971 473.066 221.438 461.658 214.687 449.834C194.436 414.421 182.374 368.907 172.358 324.997C170.313 316.032 168.311 306.824 166.377 297.921C163.692 285.557 160.913 272.774 157.957 260.367C148.377 220.415 132.747 190.395 111.501 171.14C84.017 146.234 47.9679 137.982 1.29364 145.915C-22.7377 149.998 -48.3263 157.68 -72.7066 168.13C-91.5098 176.187 -109.617 188.12 -128.787 200.754C-130.146 201.648 -131.508 202.547 -132.875 203.444L-133.618 203.935C-138.279 207.01 -143.099 210.188 -147.968 213.369C-159.652 221.035 -172.232 228.808 -185.042 233.747C-199.911 239.48 -212.898 240.598 -224.748 237.162C-245.55 231.133 -262.516 215.132 -278.921 199.658C-280.071 198.573 -281.216 197.493 -282.357 196.423C-293.19 186.251 -301.443 179.649 -309.115 175.013C-337.626 157.786 -368.5 145.521 -393.822 141.362L-393.476 140.429C-368.112 144.592 -337.192 156.875 -308.643 174.125C-300.95 178.774 -292.679 185.391 -281.826 195.581C-280.685 196.651 -279.54 197.731 -278.39 198.819C-262.015 214.262 -245.08 230.227 -224.361 236.238C-198.625 243.699 -171.464 227.921 -148.025 212.545C-143.156 209.365 -138.336 206.186 -133.676 203.114L-132.933 202.624C-131.565 201.723 -130.204 200.827 -128.846 199.933C-109.642 187.277 -91.5038 175.323 -72.6373 167.238C-48.2121 156.77 -22.5762 149.076 1.49702 144.984C23.6245 141.225 42.9448 141.1 60.56 144.601C80.2093 148.508 97.5242 157.153 112.026 170.295C133.339 189.61 149.016 219.717 158.624 259.779C161.583 272.192 164.362 284.979 167.048 297.346C168.982 306.249 170.981 315.453 173.026 324.415C183.033 368.278 195.078 413.742 215.293 449.09C222.035 460.895 229.557 472.288 237.648 482.952C247.925 496.394 258.142 507.728 268.889 517.602C285.388 532.762 305.923 551.631 335.834 547.881C351.531 545.913 366.885 537.658 382.774 522.644C412.288 494.752 438.121 449.9 460.913 410.325C470.072 394.425 478.721 379.407 486.621 367.323C489.543 362.853 492.536 358.227 495.431 353.752C506.757 336.249 518.469 318.148 531.117 301.235C544.944 282.679 558.72 267.016 572.059 254.687C587.11 240.775 601.307 231.421 614.256 226.884C622.664 223.938 630.616 222.56 638.571 222.668C649.286 222.816 659.789 226.207 669.789 232.747C678.545 238.474 687.224 246.824 695.582 257.568C709.497 275.456 719.913 299.83 725.705 328.055C732.206 359.519 733.733 396.58 730.243 438.214C727.09 475.827 719.993 515.952 709.147 557.47L708.501 557.525C731.484 469.55 737.355 388.256 725.033 328.621C719.258 300.488 708.877 276.194 695.01 258.365C677.033 235.256 658.478 223.884 638.283 223.608C630.387 223.5 622.49 224.869 614.142 227.791C583.335 238.586 552.19 273.969 531.487 301.753C518.871 318.623 507.174 336.699 495.864 354.179C492.969 358.655 489.973 363.283 487.048 367.758C479.175 379.802 470.536 394.8 461.39 410.68C450.425 429.719 437.998 451.297 424.917 471.08C409.929 493.746 396.212 510.841 382.983 523.345C375.333 530.574 367.629 536.353 360.082 540.523C351.966 545.008 343.732 547.799 335.609 548.816C326.313 549.984 317.919 548.98 310.273 546.59Z" fill="#FFE492"/>
<path d="M318.387 554.411C312.734 552.644 307.194 549.897 301.705 546.155C290.894 538.786 281.84 528.717 273.85 519.836C263.781 508.64 253.876 495.533 244.413 480.88C236.86 469.107 229.864 456.637 223.623 443.813C205.698 407.035 195.783 362.485 185.565 312.281C184.658 307.819 183.742 303.272 182.86 298.872C179.378 281.553 175.778 263.646 171.64 246.496C161.833 206.04 144.867 177.052 121.214 160.336C91.3791 139.249 50.3962 136.583 -0.592427 152.418C-26.7568 160.543 -54.1735 172.527 -79.8793 187.077C-99.2343 198.032 -117.459 212.385 -136.754 227.581C-138.715 229.126 -140.682 230.674 -142.66 232.228C-147.584 236.102 -152.88 240.256 -158.232 244.399C-169.47 253.123 -182.8 262.9 -196.43 269.242C-211.689 276.342 -225.008 278.161 -237.146 274.8C-259.366 268.65 -276.605 249.869 -293.277 231.707L-293.912 231.016C-302.076 222.125 -310.826 212.986 -319.499 206.387C-345.937 186.273 -375.052 168.944 -401.479 157.595L-401.019 156.622C-374.564 167.984 -345.422 185.327 -318.962 205.46C-310.264 212.079 -301.497 221.232 -293.321 230.135L-292.686 230.826C-276.05 248.947 -258.844 267.686 -236.732 273.807C-211.196 280.877 -183.973 263.45 -158.359 243.562C-153.008 239.422 -147.715 235.267 -142.792 231.396C-140.816 229.844 -138.847 228.293 -136.887 226.751C-117.559 211.53 -99.3017 197.152 -79.8831 186.159C-54.1281 171.58 -26.6595 159.574 -0.446629 151.434C23.4751 144.007 45.3502 140.574 64.5662 141.234C86.522 141.989 105.761 148.099 121.747 159.396C145.49 176.176 162.519 205.267 172.359 245.861C176.499 263.027 180.101 280.941 183.585 298.269C184.469 302.666 185.384 307.214 186.292 311.675C196.498 361.831 206.403 406.334 224.295 443.047C230.528 455.851 237.514 468.303 245.055 480.06C254.505 494.691 264.393 507.778 274.448 518.958C290.208 536.483 309.825 558.29 339.573 555.579C355.44 554.133 370.891 545.83 386.811 530.193C416.807 500.733 443.404 450.51 464.777 410.155C473.102 394.435 480.964 379.588 488.071 367.726C490.311 363.986 492.608 360.129 494.83 356.399C506.368 337.017 518.303 316.974 531.402 298.08C551.735 268.661 582.744 230.497 615.011 215.748C623.92 211.676 632.345 209.26 640.764 208.365C662.843 205.906 683.762 215.474 702.938 236.798C718.104 253.663 729.416 277.482 735.65 305.681C742.65 337.16 744.163 374.569 740.144 416.876C738.301 436.281 735.277 456.678 731.158 477.499C727.224 497.387 722.271 517.768 716.437 538.077L715.755 538.096C741.464 448.609 748.274 366.288 734.931 306.295C728.72 278.201 717.451 254.473 702.345 237.672C683.258 216.445 662.454 206.922 640.515 209.364C632.157 210.252 623.797 212.649 614.954 216.691C582.91 231.337 552.067 269.308 531.835 298.582C518.768 317.427 506.853 337.443 495.327 356.799C493.106 360.53 490.809 364.389 488.567 368.131C481.483 379.954 473.631 394.779 465.319 410.476C454.565 430.783 442.376 453.799 429.321 475.038C414.32 499.442 400.493 517.724 387.052 530.925C379.385 538.456 371.643 544.409 364.045 548.617C355.86 553.151 347.538 555.831 339.314 556.578C332.094 557.24 325.157 556.527 318.387 554.411Z" fill="#FFE492"/>
<path d="M325.577 562.24C318.801 560.122 312.269 556.459 305.867 551.208C295.492 542.704 286.9 531.287 279.32 521.213C269.777 508.532 260.495 493.995 251.734 478.004C244.73 465.147 238.272 451.616 232.542 437.784C216.764 399.744 208.638 354.533 200.034 306.671C199.608 304.303 199.183 301.932 198.755 299.56C194.745 277.323 190.6 254.327 185.306 232.62C175.261 191.616 156.961 163.658 130.915 149.524C98.1993 131.768 53.3137 134.927 -2.49445 158.908C-30.4094 170.903 -60.4453 187.633 -87.0689 206.014C-107.172 219.892 -125.763 236.768 -145.447 254.636C-147.778 256.751 -150.115 258.873 -152.464 260.998C-157.16 265.25 -162.739 270.289 -168.518 275.42C-179.232 284.953 -193.383 296.899 -207.826 304.699C-223.47 313.15 -237.124 315.683 -249.565 312.435C-259.767 309.708 -269.75 303.732 -280.084 294.16C-288.958 285.944 -296.84 276.365 -305.493 265.604C-313.358 255.7 -321.721 245.396 -329.914 237.756C-354.182 215.124 -380.846 193.614 -409.159 173.818L-408.598 172.821C-380.267 192.626 -353.59 214.151 -329.308 236.793C-321.093 244.455 -312.718 254.775 -304.843 264.688C-290.341 282.73 -272.294 305.189 -249.131 311.377C-222.584 318.303 -194.796 297.788 -168.722 274.586C-162.948 269.459 -157.372 264.423 -152.678 260.173C-150.329 258.048 -147.992 255.926 -145.664 253.813C-125.948 235.917 -107.324 219.012 -87.1556 205.088C-60.4777 186.67 -30.3838 169.908 -2.41528 157.892C53.5616 133.838 98.5967 130.681 131.438 148.503C144.03 155.336 154.927 165.472 163.825 178.626C173.374 192.738 180.856 210.681 186.068 231.948C191.369 253.678 195.517 276.687 199.528 298.939C199.955 301.314 200.383 303.682 200.809 306.051C209.403 353.871 217.523 399.039 233.27 437.006C238.993 450.818 245.44 464.331 252.435 477.167C261.185 493.134 270.451 507.65 279.981 520.312C294.957 540.213 313.597 564.979 343.283 563.275C359.364 562.352 374.915 554 390.819 537.743C421.326 506.733 447.487 452.972 468.508 409.776C476.027 394.327 483.128 379.735 489.493 368.129C490.806 365.735 492.125 363.327 493.449 360.907C505.416 339.042 517.792 316.43 531.658 294.923C551.557 263.975 582.296 223.184 615.738 204.61C625.068 199.428 633.961 195.977 642.929 194.06C655.417 191.342 667.717 192.075 679.489 196.233C690.236 200.028 700.591 206.688 710.266 216.023C726.681 231.859 738.889 255.121 745.567 283.295C753.069 314.788 754.566 352.551 750.018 395.528C747.932 415.248 744.557 435.973 739.987 457.128C735.611 477.388 730.131 498.097 723.698 518.678L722.984 518.657C751.017 428.975 758.969 343.432 744.804 283.964C738.153 255.912 725.999 232.746 709.655 216.975C689.504 197.528 666.358 189.97 642.721 195.114C633.821 197.017 624.995 200.441 615.738 205.583C582.527 224.029 551.953 264.612 532.153 295.406C518.325 316.856 505.967 339.435 494.015 361.272C492.691 363.692 491.371 366.102 490.058 368.497C483.716 380.059 476.624 394.633 469.117 410.059C448.035 453.379 421.798 507.296 391.095 538.504C383.429 546.34 375.652 552.473 367.985 556.727C359.735 561.304 351.326 563.867 342.99 564.347C336.974 564.686 331.192 563.995 325.577 562.24Z" fill="#FFE492"/>
<path d="M332.133 570.098C324.412 567.685 317.106 563.097 310.043 556.264C300.05 546.596 291.948 533.843 284.801 522.594C275.769 508.378 267.111 492.407 259.064 475.133C252.609 461.209 246.691 446.614 241.469 431.759C228.609 395.19 222.185 353.306 215.384 308.962C214.273 301.713 213.122 294.218 211.956 286.838C207.855 260.908 204.078 239.404 198.982 218.746C188.692 177.163 169.06 150.237 140.629 138.711C104.903 124.228 56.1127 133.206 -4.38547 165.395C-34.4403 181.387 -66.3541 202.534 -94.2482 224.943C-115.262 241.826 -134.415 261.366 -154.693 282.054C-157.205 284.617 -159.726 287.188 -162.256 289.76C-166.768 294.351 -172.726 300.396 -178.787 306.43C-204.326 331.891 -234.183 356.99 -261.971 350.064C-262.836 349.844 -263.694 349.6 -264.541 349.335C-285.72 342.714 -301.482 322.321 -317.06 300.182L-318.03 298.793C-325.717 287.76 -332.98 277.341 -340.312 269.116C-367.947 238.121 -395.714 210.57 -416.818 190.031L-416.167 189.015C-395.058 209.56 -367.282 237.117 -339.639 268.124C-332.285 276.37 -325.016 286.804 -317.318 297.849L-316.35 299.238C-300.201 322.187 -283.857 343.264 -261.516 348.941C-234.035 355.789 -204.42 330.88 -179.071 305.61C-173.014 299.581 -167.061 293.54 -162.551 288.952C-160.019 286.378 -157.501 283.808 -154.989 281.245C-134.68 260.526 -115.496 240.953 -94.4151 224.017C-66.4637 201.56 -34.4858 180.37 -4.37134 164.346C23.5786 149.473 49.4585 139.436 72.5509 134.507C99.0463 128.851 122.124 129.894 141.141 137.603C169.72 149.187 189.453 176.247 199.792 218.023C204.894 238.713 208.674 260.239 212.781 286.192C213.948 293.572 215.097 301.069 216.21 308.319C223.005 352.619 229.422 394.462 242.259 430.959C247.471 445.796 253.381 460.367 259.828 474.27C267.861 491.523 276.507 507.469 285.526 521.663C299.684 543.948 317.304 571.681 347.011 570.963C363.249 570.569 378.895 562.169 394.842 545.285C425.858 512.587 451.541 455.191 472.178 409.073C478.911 394.025 485.272 379.811 490.931 368.525L491.06 368.267C503.734 342.994 516.839 316.863 531.929 291.755C545.069 269.848 558.503 250.659 571.86 234.716C586.921 216.743 601.932 202.863 616.48 193.46C626.213 187.169 635.578 182.681 645.108 179.743C670.891 171.722 695.963 177.077 717.61 195.234C726.322 202.541 733.998 211.884 740.429 223.002C746.896 234.184 751.967 246.939 755.502 260.905C763.507 292.415 764.991 330.525 759.911 374.178C755.345 413.414 745.34 456.673 730.979 499.274L730.234 499.211C760.973 408.032 769.889 321.436 754.695 261.628C747.604 233.624 734.564 211.023 716.983 196.279C695.458 178.226 670.549 172.895 644.944 180.862C635.488 183.778 626.199 188.23 616.541 194.47C589.38 212.027 560.316 245.83 532.489 292.225C517.437 317.268 504.351 343.363 491.695 368.599L491.566 368.857C485.927 380.102 479.575 394.296 472.85 409.322C452.149 455.581 426.389 513.149 395.154 546.078C387.466 554.22 379.651 560.526 371.932 564.821C363.608 569.452 355.113 571.902 346.678 572.109C341.655 572.228 336.818 571.563 332.133 570.098Z" fill="#FFE492"/>
<path d="M-277.232 386.915C-286.703 383.954 -295.725 377.729 -304.73 367.961C-313.678 358.256 -321.501 346.273 -328.626 334.772C-329.912 332.681 -331.185 330.597 -332.449 328.528C-338.743 318.226 -344.687 308.496 -350.707 300.482C-374.715 268.535 -398.102 239.255 -420.722 210.944L-424.469 206.251L-423.738 205.224L-419.991 209.916C-397.371 238.233 -373.979 267.514 -349.968 299.469C-343.931 307.503 -337.978 317.244 -331.678 327.56C-330.415 329.629 -329.142 331.713 -327.856 333.801C-313.232 357.411 -297.021 380.928 -273.897 386.513C-245.433 393.286 -213.796 363.417 -189.417 336.642C-183.177 329.796 -177.055 322.942 -172.419 317.737C-169.862 314.869 -167.314 312.001 -164.773 309.14C-143.705 285.424 -123.804 263.022 -101.669 242.954C-72.4534 216.47 -38.5925 190.847 -6.32327 170.811C23.6147 152.222 51.5067 138.859 76.5796 131.097C105.339 122.192 130.326 120.717 150.847 126.711C181.804 135.547 202.893 161.59 213.519 204.106C219.4 227.698 223.146 252.401 226.037 273.456C227.609 284.914 229.078 296.614 230.498 307.928C235.525 347.985 240.724 389.402 251.25 424.923C255.95 440.793 261.325 456.426 267.223 471.385C274.535 489.865 282.558 507.239 291.074 523.025C304.385 547.698 320.95 578.405 350.739 578.658C367.136 578.797 382.878 570.35 398.867 552.834C430.412 518.379 455.557 457.232 475.76 408.098C481.735 393.569 487.378 379.843 492.372 368.934C503.628 344.34 516.918 315.823 532.205 288.601C545.143 265.53 558.463 245.162 571.793 228.065C586.872 208.725 602.157 193.337 617.223 182.327C627.206 175.031 637.322 169.351 647.287 165.442C661.521 159.835 675.613 157.918 689.174 159.746C701.874 161.457 713.912 166.408 724.953 174.458C734.265 181.248 742.475 190.194 749.353 201.052C756.274 211.976 761.687 224.584 765.438 238.522C769.77 254.576 772.298 272.724 772.949 292.464C773.567 311.167 772.508 331.479 769.805 352.835C764.748 392.789 753.838 436.723 738.258 479.88L737.483 479.772C770.939 387.094 780.817 299.447 764.586 239.303C757.163 211.732 742.862 189.101 724.315 175.577C701.381 158.856 674.706 155.751 647.173 166.597C637.287 170.474 627.252 176.11 617.348 183.348C588.96 204.093 560.523 239.65 532.828 289.037C517.58 316.185 504.315 344.653 493.078 369.208C488.102 380.078 482.467 393.783 476.501 408.294C466.533 432.533 455.235 460.008 442.38 485.963C427.463 516.082 413.346 538.22 399.222 553.646C391.513 562.092 383.661 568.575 375.887 572.912C367.49 577.598 358.905 579.936 350.374 579.863C346.069 579.827 342.039 579.161 338.257 577.978C315.605 570.897 301.747 545.206 290.287 523.964C281.76 508.154 273.723 490.754 266.403 472.247C260.496 457.268 255.114 441.612 250.407 425.718C239.859 390.125 234.655 348.664 229.622 308.571C228.202 297.259 226.734 285.562 225.163 274.111C222.278 253.082 218.537 228.413 212.666 204.866C202.099 162.577 181.133 136.686 150.352 127.893C102.13 113.809 38.5636 144.037 -6.27159 171.878C-38.4762 191.874 -72.2673 217.441 -101.422 243.873C-123.491 263.881 -143.361 286.247 -164.397 309.926C-166.938 312.787 -169.488 315.655 -172.046 318.525C-176.684 323.732 -182.81 330.591 -189.055 337.444C-199.289 348.685 -214.731 364.877 -230.606 375.67C-238.315 380.911 -245.713 384.611 -252.594 386.67C-260.267 388.965 -267.596 389.312 -274.372 387.698C-275.333 387.472 -276.286 387.21 -277.232 386.915Z" fill="#FFE492"/>
<path d="M-289.93 424.488C-299.411 421.524 -308.313 415.073 -317.056 404.857C-326.107 394.281 -333.832 380.974 -340.192 369.35C-342.144 365.774 -344.074 362.163 -345.941 358.67C-351.16 348.907 -356.09 339.682 -361.106 331.842C-379.117 303.682 -397.157 276.047 -414.604 249.32C-420.376 240.48 -426.343 231.339 -432.12 222.467L-431.314 221.427C-425.536 230.299 -419.569 239.44 -413.798 248.28C-396.351 275.007 -378.308 302.646 -360.297 330.809C-355.268 338.671 -350.331 347.904 -345.107 357.68C-343.242 361.173 -341.311 364.781 -339.362 368.357C-326.167 392.456 -310.096 418.625 -286.283 424.079C-257.025 430.725 -224.677 397.422 -199.763 367.669C-193.379 360.047 -187.071 352.363 -182.289 346.52C-179.834 343.522 -177.387 340.524 -174.944 337.534C-152.981 310.635 -132.238 285.23 -108.925 261.892C-78.6051 231.54 -42.8603 201.49 -8.27892 177.277C39.8008 143.742 108.118 105.86 160.544 115.824C193.927 122.064 216.369 147.085 227.24 190.195C232.122 209.572 235.837 231.323 239.285 260.728C241.028 275.587 242.519 290.89 243.961 305.685C247.714 344.179 251.592 383.983 260.233 418.897C264.417 435.815 269.254 452.506 274.609 468.51C281.1 487.873 288.504 506.677 296.613 524.4C309.121 551.5 324.687 585.23 354.457 586.366C370.745 587.071 387.036 578.333 402.879 560.398C434.98 524.113 460.565 456.328 479.244 406.835C484.486 392.945 489.437 379.826 493.801 369.359C503.496 346.095 516.653 315.536 532.468 285.463C559.856 233.344 588.619 194.902 617.956 171.21C628.261 162.853 638.86 156.108 649.457 151.158C664.536 144.103 679.52 140.87 693.991 141.553C707.624 142.199 720.507 146.283 732.285 153.695C742.198 160.01 750.934 168.572 758.255 179.138C765.646 189.81 771.402 202.262 775.366 216.15C779.951 232.199 782.6 250.445 783.236 270.383C783.839 289.279 782.645 309.841 779.688 331.506C774.135 372.179 762.322 416.785 745.527 460.503L744.725 460.344C780.909 366.165 791.75 277.464 774.47 216.989C766.641 189.557 751.43 167.503 731.639 154.895C707.175 139.504 678.736 138.626 649.393 152.355C638.883 157.264 628.37 163.956 618.148 172.246C589.005 195.781 560.412 234.007 533.159 285.87C517.386 315.861 504.258 346.359 494.58 369.578C490.233 380.009 485.287 393.112 480.051 406.983C470.396 432.566 459.45 461.566 446.697 489.231C431.844 521.443 417.642 544.996 403.275 561.235C395.535 569.997 387.645 576.661 379.821 581.043C371.339 585.795 362.67 588.014 354.054 587.642C340.663 587.13 328.999 580.183 318.394 566.403C309.177 554.423 302.048 538.982 295.76 525.36C287.638 507.612 280.225 488.781 273.725 469.391C268.361 453.364 263.517 436.649 259.326 419.709C250.666 384.724 246.783 344.876 243.027 306.342C241.587 291.55 240.095 276.256 238.354 261.41C234.91 232.057 231.202 210.346 226.332 191.016C215.528 148.154 193.232 123.285 160.062 117.085C107.859 107.167 39.763 144.936 -8.17239 178.37C-42.6845 202.533 -78.3546 232.519 -108.611 262.808C-131.858 286.079 -152.572 311.449 -174.501 338.308C-176.944 341.301 -179.392 344.298 -181.847 347.297C-186.632 353.144 -192.946 360.836 -199.337 368.465C-224.471 398.484 -257.125 432.078 -286.786 425.339C-287.84 425.096 -288.89 424.813 -289.93 424.488Z" fill="#FFE492"/>
<path d="M-302.569 462.084C-328.476 453.985 -344.537 419.604 -358.774 389.124C-363.149 379.759 -367.281 370.912 -371.508 363.202L-439.774 238.683L-438.9 237.635L-370.633 362.153C-366.395 369.882 -362.258 378.74 -357.877 388.118C-343.09 419.776 -326.328 455.659 -298.673 461.648C-268.647 468.155 -235.573 431.425 -210.115 398.702C-201.788 387.999 -193.487 377.056 -185.458 366.472C-163.498 337.528 -140.792 307.598 -116.186 280.827C-96.648 259.572 -74.3827 237.835 -51.7991 217.97C-27.0238 196.176 -2.21136 176.832 21.9446 160.475C48.5778 142.443 73.7659 128.513 96.8059 119.073C122.29 108.634 145.078 103.742 164.543 104.53C203.536 106.111 229.247 130.248 240.958 176.272C250.691 214.518 253.808 259.023 256.821 302.063C259.445 339.527 262.158 378.263 269.214 412.858C277.365 452.813 288.446 490.799 302.154 525.757C313.702 555.212 328.073 591.872 358.182 594.054C383.611 595.898 407.787 574.917 432.092 529.906C452.766 491.621 469.332 443.717 482.644 405.228C487.18 392.111 491.466 379.721 495.234 369.765C516.003 314.883 536.777 270.711 558.741 234.73C572.445 212.28 586.751 192.922 601.26 177.193C617.466 159.623 634.413 146.049 651.628 136.851C666.521 128.893 681.391 124.381 695.827 123.439C709.568 122.542 722.624 124.884 734.633 130.398C758.25 141.243 776.241 163.745 785.292 193.756C790.132 209.798 792.901 228.144 793.523 248.28C794.112 267.365 792.784 288.181 789.572 310.154C783.521 351.545 770.803 396.827 752.794 441.099L751.966 440.891C790.315 346.612 802.422 254.559 784.35 194.651C765.16 131.031 709.335 107.239 651.608 138.083C594.425 168.638 543.55 244.472 496.079 369.919C492.323 379.843 488.045 392.217 483.514 405.318C470.173 443.89 453.572 491.896 432.803 530.355C421.491 551.303 409.943 567.369 398.479 578.112C392.032 584.15 385.445 588.674 378.902 591.552C371.937 594.615 364.817 595.907 357.735 595.394C354.84 595.185 352.032 594.656 349.31 593.805C339.392 590.704 330.58 583.322 322.556 571.438C313.517 558.048 306.706 540.677 301.234 526.72C287.509 491.712 276.411 453.676 268.248 413.663C261.175 378.994 258.46 340.213 255.834 302.709C252.824 259.724 249.711 215.274 240.002 177.126C228.368 131.414 202.836 107.438 164.111 105.869C85.7793 102.694 -35.8975 194.807 -115.802 281.735C-140.341 308.431 -163.017 338.32 -184.947 367.225C-192.98 377.814 -201.286 388.765 -209.621 399.477C-226.522 421.202 -240.437 436.191 -253.407 446.645C-261.502 453.168 -269.268 457.878 -276.487 460.643C-284.515 463.717 -292.157 464.503 -299.202 462.978C-300.338 462.727 -301.463 462.429 -302.569 462.084Z" fill="#FFE492"/>
</g>
</svg>
