<svg width="21" height="21" viewBox="0 0 21 21" fill="none" xmlns="http://www.w3.org/2000/svg">
<path d="M7.11357 0C2.92144 0 0 1.45574 0 2.76229C0 4.06884 2.92144 5.52458 7.11357 5.52458C11.3057 5.52458 14.2271 4.06879 14.2271 2.76229C14.2271 1.45579 11.3057 0 7.11357 0Z" fill="#FFE492"/>
<path d="M0 15.4536V18.0372C0 19.3437 2.92144 20.7995 7.11357 20.7995C8.99242 20.7995 10.7658 20.5036 12.1072 19.9662C12.9814 19.616 13.6285 19.1816 13.9653 18.7302C13.3309 18.2338 12.5984 17.5201 11.9603 16.5355C10.5555 16.9853 8.89522 17.2213 7.11361 17.2213C4.87193 17.2213 2.77491 16.8351 1.20886 16.1338C0.752072 15.9293 0.348036 15.7013 0 15.4536H0Z" fill="#FFE492"/>
<path d="M4.44434e-05 10.3737L0 12.922C0 14.2285 2.92144 15.6842 7.11357 15.6842C8.60034 15.6842 10.0268 15.4978 11.2219 15.1528C10.7886 14.1509 10.5084 13.0449 10.3848 11.848C9.36254 12.0403 8.24852 12.1406 7.11357 12.1406C4.85744 12.1406 2.75056 11.7501 1.18108 11.0409C0.735583 10.8396 0.340837 10.616 4.44434e-05 10.3737Z" fill="#FFE492"/>
<path d="M0 5.29153V7.84161C0 9.14811 2.92144 10.6039 7.11357 10.6039C8.23479 10.6039 9.32783 10.4983 10.3118 10.2963C10.3131 10.0548 10.3852 9.42637 10.967 9.26664C11.8839 9.01491 12.5256 8.41066 12.5823 7.58179C12.6057 7.24055 13.0327 6.76239 13.3508 6.76714H14.2272V5.29153C13.8863 5.53388 13.4918 5.75748 13.0463 5.95903C11.4748 6.66995 9.36787 7.06149 7.11361 7.06149C4.85935 7.06149 2.75243 6.66995 1.18095 5.95903C0.735405 5.75748 0.340837 5.53388 0 5.29153H0Z" fill="#FFE492"/>
<path d="M18.6212 8.3042H14.0361C13.7797 9.37009 12.9602 10.2445 11.8516 10.6258C11.9378 15.7422 14.8787 17.6931 16.1752 18.3048C16.2494 18.3397 16.3372 18.336 16.4103 18.2949C17.7119 17.5614 20.6631 15.3781 20.8005 10.624C19.6946 10.2418 18.8771 9.36849 18.6212 8.3042ZM16.0539 14.967C15.7428 15.2871 15.2072 15.2695 14.9177 14.9298L13.4566 13.2154L14.6268 12.2186L15.5401 13.2904L18.0883 10.6696L19.1906 11.7408L16.0539 14.967Z" fill="#FFE492"/>
</svg>
