<svg width="21" height="21" viewBox="0 0 21 21" fill="none" xmlns="http://www.w3.org/2000/svg">
<g clip-path="url(#clip0_70_48076)">
<path d="M18.8391 1.96051C16.2253 -0.653362 11.9722 -0.653321 9.35828 1.96051C7.57302 3.74578 6.95309 6.37736 7.7258 8.76435L0.178543 16.3117C0.0642266 16.4259 0 16.5809 0 16.7426V20.1902C0 20.5268 0.272872 20.7996 0.609442 20.7996H4.05704C4.21873 20.7996 4.37367 20.7354 4.48802 20.6211L5.35007 19.7591C5.48173 19.6273 5.546 19.4427 5.52447 19.2577L5.41689 18.3322L6.69996 18.2112C6.99132 18.1838 7.22206 17.9531 7.24953 17.6617L7.37055 16.3785L8.29617 16.4861C8.46898 16.5062 8.64196 16.4515 8.77187 16.3358C8.90171 16.2202 8.97601 16.0546 8.97601 15.8807V14.7457H10.0903C10.2508 14.7457 10.4047 14.6825 10.5188 14.5697L12.0329 13.073C14.4205 13.847 17.0534 13.2271 18.8392 11.4413C21.453 8.82748 21.453 4.57435 18.8391 1.96051ZM17.9772 10.5795C16.439 12.1177 14.1315 12.5978 12.0988 11.8028C11.8745 11.7151 11.6196 11.7677 11.4484 11.937L9.83996 13.5268H8.36653C8.02995 13.5268 7.75708 13.7997 7.75708 14.1363V15.1963L6.8926 15.0958C6.72974 15.0769 6.56619 15.1244 6.43875 15.2275C6.31135 15.3306 6.23084 15.4807 6.21544 15.644L6.08329 17.045L4.68233 17.1771C4.5191 17.1925 4.369 17.2729 4.26581 17.4004C4.16267 17.5278 4.11518 17.6914 4.13411 17.8542L4.27962 19.1056L3.80457 19.5808H1.21884V16.9951L8.86011 9.35385C9.0313 9.18266 9.08496 8.92636 8.99677 8.7009C8.20167 6.66815 8.68189 4.36079 10.2201 2.82247C12.3588 0.683861 15.8386 0.683861 17.9772 2.82247C20.1158 4.96105 20.1158 8.44086 17.9772 10.5795Z" fill="#4F9CF9"/>
<path d="M17.1164 3.68408C16.4036 2.97117 15.2436 2.97121 14.5307 3.68408C13.8179 4.39695 13.8179 5.55689 14.5307 6.26976C15.2436 6.98263 16.4036 6.98271 17.1164 6.26976C17.8293 5.55689 17.8293 4.39695 17.1164 3.68408ZM16.2545 5.40788C16.0169 5.64549 15.6303 5.64553 15.3927 5.40788C15.1551 5.17027 15.1551 4.78365 15.3927 4.546C15.6309 4.30778 16.0163 4.30778 16.2545 4.546C16.4928 4.78422 16.4927 5.16966 16.2545 5.40788Z" fill="#4F9CF9"/>
</g>
<defs>
<clipPath id="clip0_70_48076">
<rect width="20.7995" height="20.7995" fill="white"/>
</clipPath>
</defs>
</svg>
