<svg width="21" height="21" viewBox="0 0 21 21" fill="none" xmlns="http://www.w3.org/2000/svg">
<path d="M9.62256 12.081C9.45616 12.081 9.28977 12.0176 9.16302 11.8905C8.9092 11.6367 8.9092 11.2253 9.16302 10.9714L13.3752 6.75921C13.6287 6.50539 14.0408 6.50539 14.2943 6.75921C14.5481 7.01303 14.5481 7.42447 14.2943 7.67829L10.0821 11.8905C9.95535 12.0176 9.78896 12.081 9.62256 12.081Z" fill="#FFE492"/>
<path d="M9.62301 12.0812C9.45662 12.0812 9.29054 12.0178 9.16347 11.8907L7.03997 9.76756C6.78615 9.51374 6.78615 9.1023 7.03997 8.84848C7.29347 8.59466 7.70523 8.59466 7.95905 8.84848L10.0826 10.9717C10.3364 11.2255 10.3364 11.6369 10.0826 11.8907C9.9558 12.0178 9.78941 12.0812 9.62301 12.0812Z" fill="#FFE492"/>
<path d="M10.3998 18.8495C10.3322 18.8495 10.2637 18.8388 10.1961 18.8167C6.04136 17.4462 3.25 13.5859 3.25 9.21053C3.25 8.85174 3.54119 8.56055 3.89998 8.56055C4.25878 8.56055 4.54997 8.85174 4.54997 9.21053C4.54997 13.0233 6.98254 16.3877 10.6033 17.582C10.9442 17.6945 11.1294 18.062 11.017 18.4029C10.927 18.6763 10.6728 18.8495 10.3998 18.8495Z" fill="#FFE492"/>
<path d="M3.89998 9.86069C3.54119 9.86069 3.25 9.5695 3.25 9.21071V4.61239C3.25 4.2536 3.54119 3.9624 3.89998 3.9624C4.25878 3.9624 4.54997 4.2536 4.54997 4.61239V9.21071C4.54997 9.56982 4.25878 9.86069 3.89998 9.86069Z" fill="#FFE492"/>
<path d="M3.89943 5.26209C3.58029 5.26209 3.30177 5.0268 3.25627 4.70148C3.20687 4.34594 3.45484 4.01769 3.81071 3.96829C6.00635 3.66313 8.12563 3.00697 10.11 2.01801C10.4315 1.85812 10.8218 1.98844 10.9817 2.30986C11.1419 2.63127 11.0109 3.02126 10.6898 3.18149C8.57899 4.23316 6.32485 4.93092 3.98945 5.25592C3.95923 5.26014 3.929 5.26209 3.89943 5.26209Z" fill="#FFE492"/>
<path d="M10.4 18.8495C10.1274 18.8495 9.87291 18.6763 9.78288 18.4029C9.67044 18.062 9.85568 17.6945 10.1966 17.582C13.8173 16.388 16.2499 13.0237 16.2499 9.21053C16.2499 8.85174 16.5411 8.56055 16.8999 8.56055C17.2587 8.56055 17.5499 8.85174 17.5499 9.21053C17.5499 13.5856 14.7585 17.4462 10.6035 18.8167C10.5359 18.8391 10.4676 18.8495 10.4 18.8495Z" fill="#FFE492"/>
<path d="M16.9 9.86069C16.5412 9.86069 16.25 9.5695 16.25 9.21071V4.61239C16.25 4.2536 16.5412 3.9624 16.9 3.9624C17.2588 3.9624 17.55 4.2536 17.55 4.61239V9.21071C17.55 9.56982 17.2588 9.86069 16.9 9.86069Z" fill="#FFE492"/>
<path d="M16.9009 5.26209C16.871 5.26209 16.8408 5.26014 16.8106 5.25592C14.4752 4.93092 12.2211 4.23316 10.1102 3.18149C9.78914 3.02126 9.65817 2.63127 9.81839 2.30986C9.97829 1.98844 10.3686 1.85812 10.69 2.01801C12.6744 3.00664 14.7937 3.66313 16.9893 3.96829C17.3449 4.01769 17.5932 4.34626 17.5438 4.70148C17.4989 5.0268 17.2204 5.26209 16.9009 5.26209Z" fill="#FFE492"/>
</svg>
