<svg width="56" height="52" viewBox="0 0 56 52" fill="none" xmlns="http://www.w3.org/2000/svg">
<path d="M46.3673 21.7463C44.4968 12.3324 53.4321 6.81135 53.4321 6.81135C53.4321 6.81135 49.9508 1.7747 44.1 0.478978C38.2521 -0.819586 35.3252 0.80284 32.4041 2.01969C29.4802 3.23952 28.0211 3.23952 28.0211 3.23952C23.8016 3.23952 20.717 -1.22813 12.6777 0.805817C7.13915 2.20354 1.30867 8.5972 0.255239 16.2281C-0.798195 23.8619 1.47507 33.6026 5.85804 41.1518C10.241 48.7068 14.7058 51.5461 17.8748 51.6278C21.0439 51.7066 24.2072 49.3575 28.0211 48.7856C31.8381 48.2194 34.1871 50.1688 37.931 51.2223C41.6603 52.2729 42.9677 51.2982 47.2631 47.6446C51.5702 43.9911 55.4689 33.5122 55.4689 33.5122C55.4689 33.5122 48.2378 31.1659 46.3673 21.7463Z" fill="black"/>
</svg>
