<svg width="463" height="21" viewBox="0 0 463 21" fill="none" xmlns="http://www.w3.org/2000/svg">
<path d="M435.029 10.8386C434.394 10.8557 433.754 10.8675 433.133 10.8933C432.729 10.9094 432.556 10.8622 432.287 10.8375C432.197 10.8289 432.101 10.8118 432.018 10.8139C431.39 10.8311 430.762 10.8504 430.135 10.8697C429.943 10.9115 429.821 10.9673 429.526 10.9877C429.238 11.007 428.898 11.007 428.578 11.0166C428.155 11.0284 427.733 11.0403 427.31 11.051C427.098 11.0563 426.925 11.0767 426.855 11.1153C426.842 11.1218 426.983 11.1379 427.06 11.1475C427.316 11.1797 427.566 11.2162 427.848 11.2408C428.117 11.2644 428.45 11.2258 428.738 11.2559C429.385 11.3234 429.392 11.3224 429.885 11.3095C430.308 11.2977 430.73 11.2848 431.153 11.2762C431.237 11.2741 431.333 11.2902 431.422 11.2988C431.691 11.3224 431.864 11.376 432.261 11.3556C432.563 11.3395 432.896 11.3363 433.21 11.3277C433.472 11.3588 433.716 11.3942 433.997 11.4189C434.26 11.4425 434.337 11.4607 434.196 11.4919C434.068 11.5208 433.888 11.5326 433.651 11.5348C433.44 11.5358 433.229 11.5455 433.017 11.5508C432.908 11.5541 432.806 11.5562 432.703 11.5594C432.3 11.5712 432.3 11.5712 431.563 11.5026C431.275 11.4758 430.948 11.5133 430.673 11.4876C430.487 11.4704 430.327 11.4447 430.148 11.4264C430.071 11.4189 429.949 11.4178 429.853 11.42C429.533 11.4275 429.212 11.4329 428.905 11.4468C428.687 11.4565 428.559 11.4865 428.585 11.5165C428.591 11.5283 428.745 11.5455 428.834 11.5466C429.039 11.5487 429.257 11.5337 429.456 11.5412C429.648 11.5487 429.846 11.5702 429.987 11.5938C430.276 11.6431 430.602 11.5991 430.878 11.612C431.166 11.6259 431.403 11.6689 431.678 11.6946C431.749 11.701 431.883 11.6903 431.992 11.6871C432.306 11.6796 432.62 11.6731 432.934 11.6656C433.197 11.6967 433.479 11.7246 433.716 11.76C434.145 11.8244 434.606 11.8491 435.163 11.8179C435.477 11.8008 435.785 11.8072 436.034 11.8491C436.291 11.892 436.585 11.8877 436.912 11.8791C437.213 11.8705 437.521 11.8469 437.828 11.877C438.494 11.9435 438.501 11.9467 439.289 11.9209C439.526 11.9134 439.705 11.9113 439.884 11.936C440.051 11.9585 440.23 11.9778 440.403 11.9992C440.717 11.9917 441.037 11.9842 441.351 11.9756C441.755 11.9638 441.979 11.9789 442.075 12.0389C442.133 12.0754 442.158 12.1087 442.299 12.1333C442.466 12.1634 442.645 12.1623 442.889 12.1537C443.119 12.1462 443.286 12.1344 443.382 12.0958C443.42 12.0797 443.497 12.0647 443.568 12.0518C443.625 12.0421 443.715 12.0271 443.766 12.0293C443.862 12.0336 443.99 12.0454 444.022 12.0593C444.336 12.1891 444.336 12.1902 444.657 12.2277C445.009 12.2696 445.374 12.3071 445.694 12.3543C445.983 12.3961 446.271 12.3779 446.585 12.3779C446.822 12.3779 446.975 12.4058 446.956 12.4337C446.943 12.4498 446.854 12.4734 446.777 12.4755C446.149 12.497 445.515 12.5152 444.881 12.5302C444.804 12.5324 444.708 12.5131 444.618 12.5034C444.439 12.4841 444.279 12.4541 444.086 12.4476C443.894 12.4412 443.67 12.4573 443.459 12.4626C443.247 12.468 443.023 12.482 442.831 12.4734C442.639 12.4648 442.485 12.4337 442.306 12.4133C442.222 12.4036 442.107 12.3897 442.037 12.3929C441.569 12.4187 441.223 12.3833 440.89 12.3361C440.82 12.3264 440.698 12.32 440.608 12.3221C439.865 12.3404 439.128 12.3618 438.385 12.3822C438.084 12.3908 437.841 12.3532 437.777 12.2899C437.745 12.2545 437.681 12.2191 437.681 12.1837C437.681 12.1194 437.328 12.084 437.072 12.0915C436.649 12.1022 436.22 12.1108 435.804 12.1269C435.464 12.1398 435.176 12.1269 434.945 12.0883C434.676 12.0443 434.369 12.0529 434.062 12.0647C433.831 12.0733 433.767 12.1087 433.78 12.1977C433.792 12.2696 433.683 12.2921 433.267 12.3039C432.742 12.3189 432.21 12.3339 431.678 12.3457C431.595 12.3479 431.499 12.3296 431.416 12.32C431.236 12.3007 431.076 12.2696 430.884 12.2631C430.692 12.2556 430.468 12.2717 430.256 12.2781C430.045 12.2835 429.821 12.2985 429.629 12.291C429.436 12.2835 429.276 12.2513 429.103 12.2309C429.02 12.2213 428.918 12.2073 428.834 12.2095C428.412 12.2181 427.989 12.2309 427.566 12.2427C427.092 12.2556 427.092 12.2556 426.419 12.1891C426.112 12.1591 425.804 12.1827 425.503 12.1913C425.183 12.1998 424.882 12.2041 424.632 12.1612C424.466 12.1333 424.28 12.1162 424.081 12.1215C423.55 12.1344 423.024 12.1505 422.493 12.1634C422.403 12.1655 422.281 12.1601 422.211 12.1505C421.871 12.1054 421.538 12.07 421.064 12.0926C420.654 12.1119 420.212 12.1129 419.802 12.1312C419.578 12.1408 419.475 12.1752 419.52 12.202C419.546 12.2159 419.681 12.232 419.77 12.232C419.975 12.2331 420.199 12.217 420.392 12.2234C420.789 12.2363 420.987 12.3264 421.506 12.3017C421.814 12.2867 422.134 12.2814 422.454 12.2771C422.537 12.276 422.627 12.2964 422.717 12.3071C422.973 12.3361 423.197 12.3736 423.569 12.3543C423.876 12.3393 424.203 12.335 424.517 12.3264C425.016 12.3125 425.017 12.3135 425.663 12.379C425.971 12.4101 426.278 12.3854 426.579 12.3779C426.804 12.3725 427.015 12.3618 427.194 12.3768C427.47 12.3994 427.668 12.4508 428.008 12.4476C428.328 12.4444 428.642 12.4294 428.962 12.424C429.161 12.4208 429.347 12.438 429.507 12.4669C429.673 12.4959 429.853 12.5088 430.071 12.5023C430.384 12.4937 430.705 12.483 431.025 12.4777C431.115 12.4766 431.217 12.4862 431.301 12.4948C431.48 12.5141 431.653 12.5367 431.826 12.557C432.14 12.5506 432.46 12.5485 432.768 12.5356C433.005 12.5259 433.171 12.5302 433.363 12.5517C433.607 12.5806 433.805 12.6321 434.202 12.6075C434.401 12.5957 434.632 12.5989 434.83 12.5881C435.074 12.5742 435.24 12.5796 435.413 12.6117C435.74 12.6729 436.15 12.674 436.573 12.6504C437.034 12.6246 437.38 12.6547 437.726 12.7019C438.091 12.7512 438.091 12.7501 438.373 12.8692C438.456 12.9035 438.693 12.9196 438.891 12.9132C439.224 12.9025 439.513 12.9078 439.756 12.9486C440.012 12.9926 440.32 12.9872 440.634 12.9754C441.05 12.9593 441.466 12.9454 441.806 13.0076C441.973 13.0376 442.152 13.0451 442.376 13.0376C443.01 13.0183 443.651 13.0065 444.272 12.9829C444.65 12.9679 444.868 13.0022 445.124 13.0312C445.47 13.0709 445.848 13.1063 445.848 13.191C445.848 13.205 445.938 13.221 446.015 13.2318C446.181 13.2543 446.361 13.2736 446.534 13.2951C446.79 13.3272 447.04 13.3541 447.392 13.3369C447.699 13.3229 448.026 13.3187 448.34 13.309C448.654 13.2993 448.942 13.294 449.224 13.3347C449.551 13.3809 449.896 13.4249 450.268 13.4592C450.531 13.4839 450.877 13.442 451.158 13.4753C451.331 13.4957 451.498 13.5192 451.684 13.5364C451.76 13.5439 451.882 13.5386 451.985 13.5364C452.196 13.5321 452.414 13.5289 452.619 13.5182C452.856 13.5064 453.035 13.5085 453.215 13.5332C453.381 13.5557 453.548 13.5868 453.74 13.5933C454.028 13.6029 454.349 13.56 454.637 13.6094C454.784 13.634 454.97 13.6576 455.162 13.6651C455.354 13.6727 455.578 13.6566 455.783 13.6576C455.873 13.6576 455.982 13.6748 456.033 13.6887C456.065 13.6962 456.02 13.7166 455.976 13.7274C455.918 13.7402 455.835 13.7574 455.751 13.7595C455.117 13.7788 454.483 13.7949 453.849 13.8132C453.471 13.8239 453.471 13.8239 452.709 13.7563C452.529 13.7402 452.331 13.7434 452.107 13.7509C451.805 13.7606 451.498 13.7788 451.184 13.7595C450.774 13.6866 450.268 13.6801 449.73 13.708C449.506 13.7198 449.301 13.7198 449.134 13.6995C448.782 13.6587 448.41 13.6212 448.097 13.5729C447.853 13.5353 447.738 13.5321 447.635 13.5836C447.603 13.5997 447.571 13.6169 447.578 13.6319C447.616 13.6855 447.686 13.7381 447.725 13.7917C447.738 13.8067 447.687 13.8239 447.655 13.84C447.552 13.885 447.418 13.8818 447.193 13.8443C446.969 13.8067 446.7 13.7821 446.341 13.7992C446.034 13.8142 445.701 13.8121 445.393 13.8282C444.919 13.8518 444.586 13.8175 444.247 13.7713C444.176 13.7617 444.054 13.7563 443.965 13.7585C443.01 13.7831 442.062 13.811 441.108 13.8357C440.903 13.8411 440.717 13.825 440.557 13.796C440.39 13.767 440.205 13.752 440 13.7574C439.154 13.7799 438.308 13.8003 437.463 13.8282C437.117 13.84 436.842 13.826 436.605 13.7885C436.425 13.7606 436.259 13.752 436.034 13.7552C435.791 13.7585 435.618 13.7692 435.496 13.8003C435.381 13.8303 435.464 13.8486 435.721 13.8722C435.996 13.8979 436.252 13.9312 436.515 13.9612C436.726 13.9569 436.938 13.9483 437.143 13.9494C437.232 13.9494 437.316 13.9687 437.405 13.9794C437.662 14.0105 437.898 14.0417 438.264 14.0245C438.571 14.0095 438.898 14.0063 439.212 13.9966C439.647 13.9848 439.647 13.9848 440.352 14.0524C440.531 14.0695 440.723 14.0685 440.954 14.0588C441.153 14.0513 441.358 14.0663 441.499 14.0985C441.556 14.1114 441.537 14.1328 441.415 14.2036C441.415 14.2562 441.55 14.2326 441.595 14.1983C441.665 14.1489 441.53 14.1328 441.274 14.1597C441.095 14.179 441.005 14.2069 441.05 14.2294C441.076 14.2412 441.198 14.2562 441.415 14.2036C441.979 14.1393 442.408 14.1318 442.818 14.1146C443.062 14.1049 443.215 14.1092 443.407 14.1371C443.638 14.1704 443.869 14.2058 444.247 14.1886C444.657 14.1693 445.092 14.1672 445.509 14.1511C445.893 14.136 446.091 14.1833 446.335 14.2111C446.63 14.2444 446.956 14.2069 447.225 14.2262C447.507 14.2455 447.706 14.2927 448.032 14.3012C448.506 14.2723 448.808 14.3259 449.166 14.3613C449.448 14.3881 449.781 14.3645 450.082 14.3527C450.422 14.3399 450.704 14.3517 450.941 14.3903C451.21 14.4343 451.511 14.4246 451.818 14.415C452.536 14.3935 452.561 14.3903 452.978 14.4493C453.279 14.4922 453.567 14.4729 453.868 14.4675C454.131 14.4965 454.387 14.5276 454.662 14.5533C454.733 14.5598 454.867 14.549 454.976 14.5458C455.29 14.5372 455.61 14.5287 455.924 14.5201C456.136 14.5147 456.36 14.4986 456.552 14.5051C456.744 14.5126 456.904 14.5437 457.077 14.5641C457.25 14.5844 457.43 14.6048 457.596 14.6263C457.853 14.6585 458.096 14.6853 458.455 14.6692C458.762 14.6552 459.082 14.6509 459.403 14.6413C459.806 14.6295 459.793 14.6327 460.543 14.6971C460.946 14.7325 461.363 14.6896 461.773 14.6853C461.978 14.6831 462.176 14.6949 462.317 14.726C462.375 14.7389 462.356 14.7604 462.375 14.7786C461.318 14.8076 460.255 14.8322 459.21 14.8676C458.807 14.8816 458.596 14.843 458.378 14.8108C458.019 14.7593 457.545 14.8344 457.205 14.7679C457 14.7282 456.706 14.7057 456.353 14.725C456.149 14.7357 455.931 14.7346 455.719 14.7443C455.181 14.7679 454.688 14.7689 454.259 14.6949C454.111 14.6692 453.9 14.6552 453.746 14.6306C453.567 14.6038 453.394 14.5887 453.183 14.5941C452.228 14.6198 451.28 14.6456 450.332 14.6735C450.249 14.6756 450.165 14.6917 450.095 14.7035C449.916 14.7335 449.973 14.7571 450.262 14.7765C450.358 14.7829 450.435 14.7968 450.524 14.8076C450.697 14.8279 450.857 14.8601 451.049 14.8676C451.242 14.8751 451.466 14.8601 451.677 14.8548C451.889 14.8494 452.113 14.8333 452.305 14.8397C452.497 14.8472 452.657 14.8784 452.837 14.8977C452.92 14.9073 453.023 14.9234 453.106 14.9223C453.529 14.9159 453.945 14.9041 454.368 14.8944C454.63 14.9234 454.855 14.9652 455.168 14.9749C455.367 14.9813 455.578 14.9695 455.783 14.9717C455.873 14.9728 455.988 14.9888 456.033 15.0028C456.059 15.0114 455.976 15.0328 455.912 15.0436C455.668 15.0843 455.335 15.0768 455.034 15.0897C454.707 15.1036 454.413 15.0993 454.163 15.0575C453.996 15.0296 453.81 15.0146 453.605 15.02C453.074 15.0339 452.548 15.05 452.017 15.0618C451.927 15.0639 451.818 15.0543 451.735 15.0468C451.062 14.9813 451.062 14.9792 450.588 14.9931C449.89 15.0135 449.89 15.0135 449.423 14.9567C449.333 14.9459 449.237 14.9256 449.16 14.9266C448.417 14.9438 447.68 14.961 446.943 14.9856C446.7 14.9931 446.534 14.9931 446.354 14.9653C446.2 14.9417 446.021 14.9148 445.829 14.9084C445.63 14.902 445.412 14.9181 445.201 14.9234C444.99 14.9288 444.766 14.9427 444.58 14.9341C444.388 14.9256 444.221 14.8955 444.054 14.8741C443.881 14.8515 443.696 14.8526 443.459 14.8612C442.728 14.8859 442.722 14.8827 441.998 14.8161C441.915 14.8086 441.806 14.8001 441.716 14.8022C441.185 14.8151 440.659 14.8312 440.128 14.844C439.923 14.8494 439.724 14.8355 439.583 14.8043C439.526 14.7915 439.545 14.77 439.506 14.7282C439.462 14.7185 439.513 14.7357 439.526 14.7518C439.622 14.7496 439.737 14.7518 439.807 14.7432C439.987 14.7228 440.076 14.696 440.032 14.6735C440.006 14.6617 439.884 14.6466 439.807 14.6466C439.667 14.6466 439.545 14.6702 439.506 14.7282C439.103 14.7636 438.674 14.7711 438.257 14.7883C438.014 14.799 437.86 14.7936 437.668 14.7657C437.437 14.7314 437.2 14.6981 436.822 14.7153C436.412 14.7346 435.977 14.7378 435.554 14.7529C435.067 14.77 434.856 14.6735 434.446 14.6756C434.023 14.6778 433.6 14.696 433.177 14.7089C432.806 14.7196 432.806 14.7196 432.037 14.6499C431.755 14.6241 431.422 14.6617 431.147 14.6349C430.961 14.6177 430.801 14.5919 430.622 14.5737C430.545 14.5662 430.423 14.5662 430.327 14.5683C429.795 14.5812 429.257 14.5898 428.745 14.6134C428.162 14.6413 427.72 14.6113 427.303 14.548C426.778 14.5598 426.246 14.5662 425.728 14.5866C425.35 14.6016 425.132 14.5662 424.876 14.5372C424.786 14.5276 424.709 14.5115 424.613 14.5072C424.517 14.5029 424.401 14.5115 424.299 14.5147C423.876 14.5265 423.441 14.5319 423.031 14.5512C422.525 14.5759 422.332 14.4879 421.942 14.4772C421.679 14.5297 421.538 14.6016 421.019 14.607C420.597 14.6113 420.174 14.6284 419.751 14.6402C419.54 14.6456 419.328 14.652 419.117 14.6574C418.777 14.667 418.617 14.7089 418.688 14.7732C418.726 14.8086 418.758 14.844 418.79 14.8794C418.854 14.9427 418.694 14.9964 418.425 15.0039C417.682 15.0242 416.945 15.0457 416.202 15.0639C416.004 15.0693 415.811 15.0511 415.651 15.0221C415.485 14.9931 415.299 14.9803 415.094 14.9856C414.351 15.006 413.614 15.0275 412.871 15.0457C412.788 15.0478 412.679 15.0371 412.596 15.0285C412.416 15.0092 412.243 14.9867 412.07 14.9663C411.648 14.976 411.231 14.9824 410.815 14.9953C410.142 15.0146 410.142 15.0157 409.649 14.9567C409.559 14.9459 409.47 14.9256 409.386 14.9266C409.066 14.9309 408.752 14.9417 408.432 14.9513C407.49 14.9792 407.49 14.9792 407.215 14.947C406.965 14.917 406.741 14.8805 406.363 14.8977C405.953 14.917 405.517 14.9234 405.094 14.9341C404.781 14.9416 404.467 14.9502 404.153 14.9524C404.07 14.9535 403.98 14.9331 403.89 14.9223C403.634 14.8891 403.384 14.8623 403.032 14.8805C402.827 14.8912 402.609 14.8934 402.398 14.8987C401.847 14.9138 401.847 14.9138 400.944 14.8494C400.854 14.843 400.745 14.8354 400.655 14.8387C399.912 14.858 399.176 14.8794 398.433 14.8977C398.343 14.8998 398.234 14.8934 398.144 14.888C397.132 14.8258 397.132 14.8258 396.056 14.8558C395.646 14.8666 395.633 14.8708 395.204 14.814C395.012 14.7893 394.852 14.7775 394.628 14.785C393.782 14.8108 392.93 14.8279 392.091 14.858C391.713 14.8709 391.495 14.8387 391.239 14.8097C391.149 14.8 391.053 14.7786 390.976 14.7797C390.131 14.8001 389.285 14.8247 388.439 14.8451C388.363 14.8473 388.267 14.8258 388.177 14.8161C388.004 14.7968 387.837 14.7679 387.645 14.7614C387.447 14.755 387.229 14.7711 387.011 14.7765C386.479 14.7904 386.479 14.7893 385.864 14.726C385.781 14.7175 385.672 14.7057 385.589 14.7078C384.743 14.7293 383.891 14.7475 383.052 14.7786C382.572 14.7958 382.245 14.7647 381.906 14.7196C381.835 14.7099 381.713 14.7057 381.624 14.7078C380.669 14.7325 379.721 14.7604 378.767 14.785C378.568 14.7904 378.376 14.7722 378.216 14.7443C377.96 14.7003 377.659 14.7056 377.338 14.7153C376.602 14.7378 376.595 14.7368 376.16 14.6853C376.07 14.6746 375.993 14.6606 375.897 14.6552C375.807 14.6499 375.692 14.6531 375.596 14.6552C375.173 14.666 374.75 14.6778 374.328 14.6896C373.905 14.7014 373.476 14.7078 373.059 14.726C372.547 14.7486 372.303 14.6788 371.945 14.6466C371.419 14.6606 370.881 14.6692 370.362 14.6917C369.965 14.7089 369.78 14.6617 369.517 14.637C369.427 14.6284 369.331 14.6102 369.248 14.6123C368.293 14.6359 367.339 14.6617 366.391 14.6906C366.16 14.6971 366.007 14.6885 365.814 14.6627C365.385 14.6048 365.366 14.607 364.649 14.6284C364.335 14.6381 364.033 14.6467 363.764 14.6027C363.527 14.563 363.239 14.5533 362.9 14.5662C362.483 14.5823 362.054 14.5909 361.631 14.6016C361.209 14.6134 360.786 14.6295 360.363 14.6349C360.024 14.6402 359.819 14.5898 359.55 14.5641C359.466 14.5566 359.351 14.5555 359.255 14.5576C358.832 14.5673 358.397 14.5748 357.987 14.593C357.487 14.6155 357.211 14.5566 356.859 14.5222C356.782 14.5147 356.654 14.519 356.558 14.5222C355.815 14.5415 355.078 14.563 354.335 14.5834C354.073 14.5544 353.803 14.5265 353.541 14.4976C353.118 14.5083 352.695 14.5201 352.273 14.5308C351.952 14.5394 351.626 14.5426 351.324 14.5587C350.934 14.5801 350.741 14.5297 350.479 14.5051C350.389 14.4965 350.293 14.4782 350.21 14.4804C349.678 14.4922 349.147 14.5051 348.621 14.5233C348.122 14.5415 347.923 14.445 347.513 14.4461C347.09 14.4471 346.655 14.4611 346.245 14.4804C345.771 14.5029 345.438 14.4686 345.098 14.4225C345.028 14.4128 344.906 14.4074 344.816 14.4096C344.285 14.4225 343.759 14.4386 343.228 14.4514C343.138 14.4536 343.029 14.4482 342.939 14.4418C341.927 14.3785 341.927 14.3774 341.485 14.3903C341.171 14.3989 340.851 14.4096 340.531 14.415C340.441 14.4171 340.332 14.4074 340.249 14.3989C339.583 14.3334 339.583 14.3324 339.102 14.3452C338.679 14.357 338.257 14.3688 337.834 14.3806C337.571 14.3517 337.302 14.3238 337.04 14.2948C336.514 14.3088 335.976 14.3195 335.457 14.3388C335.214 14.3474 335.054 14.3442 334.868 14.3173C334.637 14.2852 334.407 14.2476 334.022 14.2658C333.613 14.2852 333.177 14.2873 332.761 14.3034C332.261 14.3227 332.056 14.2251 331.652 14.2262C331.23 14.2272 330.794 14.2412 330.384 14.2605C329.91 14.283 329.577 14.2487 329.237 14.2026C329.167 14.1929 329.045 14.1875 328.956 14.1897C327.79 14.2208 326.63 14.2519 325.464 14.2852C324.747 14.3055 324.747 14.3066 323.383 14.2476C323.286 14.2433 323.184 14.239 323.088 14.2412C322.665 14.2508 322.229 14.2583 321.819 14.2766C321.32 14.2991 321.044 14.2412 320.692 14.2058C320.615 14.1983 320.493 14.2026 320.391 14.2047C320.071 14.2122 319.757 14.2219 319.437 14.2305C319.014 14.2423 318.591 14.2541 318.168 14.2658C317.906 14.238 317.637 14.209 317.374 14.1811C316.849 14.195 316.311 14.2026 315.792 14.2251C315.395 14.2423 315.209 14.1972 314.946 14.1715C314.856 14.1629 314.76 14.1446 314.677 14.1457C313.723 14.1693 312.768 14.194 311.82 14.224C311.429 14.2369 311.25 14.1886 310.987 14.1639C310.898 14.1564 310.795 14.1425 310.712 14.1446C310.078 14.1597 309.444 14.1779 308.809 14.1961C308.451 14.2068 308.451 14.2068 307.669 14.1403C307.58 14.1328 307.477 14.1253 307.387 14.1275C305.376 14.1811 303.371 14.238 301.359 14.2916C301.154 14.297 300.969 14.2809 300.809 14.2519C300.642 14.2229 300.456 14.2079 300.251 14.2133C299.406 14.2358 298.554 14.2562 297.715 14.2841C297.369 14.2959 297.093 14.2819 296.856 14.2444C296.677 14.2165 296.51 14.2058 296.286 14.2122C295.863 14.2251 295.441 14.2358 295.018 14.2476C294.595 14.2594 294.172 14.2712 293.749 14.283C293.327 14.2948 292.898 14.3012 292.481 14.3195C291.969 14.342 291.719 14.2755 291.367 14.2423C290.732 14.2583 290.098 14.2744 289.47 14.2916C288.625 14.3141 287.779 14.3388 286.934 14.3602C286.857 14.3624 286.761 14.3431 286.671 14.3334C286.408 14.3066 286.216 14.2691 285.825 14.2809C283.929 14.3377 282.021 14.386 280.118 14.4418C279.721 14.4536 279.548 14.4074 279.279 14.3828C279.189 14.3753 279.087 14.3602 279.003 14.3624C277.946 14.3892 276.89 14.4192 275.833 14.4482C275.403 14.46 275.403 14.46 274.686 14.3935C274.603 14.386 274.494 14.3763 274.404 14.3785C273.027 14.4149 271.656 14.4536 270.279 14.4911C270.074 14.4965 269.888 14.4815 269.721 14.4525C269.561 14.4235 269.369 14.4074 269.17 14.4128C267.902 14.4471 266.627 14.4804 265.365 14.5179C265.026 14.5287 264.744 14.519 264.501 14.4804C264.328 14.4525 264.155 14.4407 263.937 14.4471C262.034 14.4997 260.132 14.5501 258.229 14.6059C257.864 14.6166 257.608 14.5962 257.377 14.5608C257.192 14.533 257.031 14.5276 256.801 14.5319C256.557 14.5372 256.41 14.549 256.276 14.5812C256.103 14.6231 255.994 14.6756 255.584 14.6788C255.161 14.6821 254.732 14.6949 254.316 14.7132C253.918 14.7314 253.733 14.6831 253.483 14.6542C253.297 14.6338 253.124 14.6306 252.887 14.6402C252.669 14.6488 252.535 14.667 252.407 14.7014C252.125 14.7743 252.099 14.7743 251.753 14.7282C251.567 14.7035 251.401 14.6842 251.196 14.6885C250.35 14.7099 249.505 14.7335 248.659 14.7582C248.172 14.7722 248.166 14.7743 247.801 14.7207C247.622 14.6939 247.448 14.681 247.237 14.6874C244.912 14.7518 242.587 14.814 240.261 14.8816C239.903 14.8923 239.659 14.8698 239.403 14.8376C239.32 14.8269 239.236 14.8118 239.14 14.8076C239.044 14.8033 238.935 14.8076 238.833 14.8097C237.142 14.8558 235.444 14.8998 233.759 14.9513C233.375 14.9631 233.17 14.9288 232.907 14.9009C232.818 14.8912 232.741 14.8762 232.645 14.8719C232.549 14.8687 232.433 14.8762 232.331 14.8794C230.64 14.9256 228.942 14.9695 227.258 15.021C226.854 15.0328 226.681 14.9878 226.418 14.9642C226.329 14.9556 226.233 14.9395 226.149 14.9416C225.618 14.9534 225.092 14.9695 224.561 14.9835C223.292 15.0189 222.024 15.0521 220.756 15.0886C220.269 15.1026 220.057 15.0071 219.647 15.0114C219.116 15.0167 218.59 15.0382 218.059 15.0532C217.636 15.065 217.213 15.0757 216.79 15.0886C216.374 15.1004 216.374 15.1004 215.336 15.0382C215.247 15.0328 215.138 15.0253 215.048 15.0275C213.568 15.0672 212.082 15.1068 210.609 15.1498C210.269 15.1594 209.988 15.154 209.744 15.1144C209.571 15.0865 209.392 15.0725 209.18 15.0789C206.958 15.1401 204.741 15.2012 202.518 15.2613C202.435 15.2635 202.326 15.2527 202.243 15.2441C202.064 15.2248 201.891 15.2023 201.718 15.1819C201.59 15.2066 201.423 15.2291 201.34 15.257C201.225 15.2946 201.071 15.3053 200.827 15.3117C200.584 15.3182 200.43 15.316 200.238 15.2881C200.007 15.2538 199.77 15.227 199.392 15.2377C197.067 15.3053 194.742 15.3664 192.416 15.4329C192.032 15.4437 191.853 15.3965 191.584 15.3718C191.494 15.3643 191.392 15.3525 191.308 15.3546C190.354 15.3793 189.406 15.4061 188.451 15.4319C185.806 15.5048 183.16 15.5745 180.521 15.6518C180.041 15.6657 179.714 15.6389 179.374 15.5928C179.304 15.5831 179.182 15.5778 179.093 15.5799C175.39 15.6807 171.687 15.7826 167.991 15.8845C167.793 15.8899 167.601 15.8727 167.44 15.8449C167.274 15.8159 167.088 15.802 166.883 15.8073C165.192 15.8534 163.501 15.8996 161.81 15.9468C161.387 15.9586 161.381 15.9596 160.945 15.9081C160.855 15.8974 160.759 15.877 160.689 15.8792C160.542 15.8846 160.401 15.9114 160.298 15.9478C160.196 15.9864 160.035 15.9972 159.798 16.0047C159.555 16.0122 159.395 16.009 159.209 15.9832C158.972 15.9511 158.754 15.92 158.37 15.9307C153.508 16.068 148.646 16.1999 143.784 16.3361C143.393 16.3469 143.214 16.3018 142.945 16.2772C142.855 16.2696 142.765 16.2589 142.669 16.2568C142.567 16.2546 142.458 16.2611 142.355 16.2643C134.425 16.482 126.495 16.7009 118.564 16.9186C118.09 16.9315 118.097 16.9315 117.578 17.0302C117.514 17.042 117.431 17.0581 117.341 17.0602C114.913 17.1289 112.479 17.1954 110.045 17.2619C108.988 17.2908 107.931 17.3209 106.874 17.3488C106.496 17.3584 106.496 17.3584 105.593 17.4743C105.516 17.4839 105.426 17.4968 105.336 17.499C101.109 17.6159 96.8808 17.7328 92.6466 17.8476C92.3135 17.8562 92.0445 17.8755 91.8908 17.927C91.7819 17.9634 91.641 17.9849 91.4296 17.9913C88.4701 18.0729 85.5107 18.1554 82.5448 18.2348C82.1925 18.2445 81.981 18.2745 81.8081 18.3196C81.7504 18.3346 81.6991 18.3517 81.6159 18.3625C81.539 18.3721 81.4237 18.3753 81.3276 18.3786C78.791 18.4483 76.2543 18.5202 73.7113 18.5867C73.3333 18.5963 73.1795 18.636 72.9937 18.6779C72.9297 18.6918 72.8848 18.7111 72.8015 18.7208C72.7182 18.7293 72.5966 18.7293 72.4941 18.7315C70.3802 18.7894 68.2663 18.8484 66.1524 18.9063C65.7424 18.901 65.6527 18.9632 65.4541 19.0007C65.3837 19.0136 65.3325 19.0308 65.2492 19.0394C65.1596 19.0479 65.0441 19.0469 64.9352 19.049C63.2441 19.0951 61.553 19.1445 59.8555 19.1874C59.4647 19.197 59.3878 19.2517 59.1764 19.2893C59.106 19.3011 59.0356 19.3193 58.9523 19.3225C57.8954 19.3537 56.8385 19.3826 55.7815 19.4105C55.4292 19.4202 55.4292 19.4191 54.8078 19.5253C54.7373 19.5371 54.654 19.55 54.5643 19.5532C52.9821 19.5982 51.3935 19.6411 49.8049 19.6851C49.5999 19.6905 49.459 19.7162 49.3565 19.7527C49.254 19.7892 49.1067 19.8128 48.9017 19.8181C47.6334 19.8535 46.3649 19.89 45.0966 19.9222C44.7442 19.9308 44.5137 19.9576 44.36 20.0059C44.2447 20.0423 44.1037 20.0606 43.8795 20.067C42.6112 20.1013 41.3429 20.1389 40.0681 20.1689C39.6966 20.1775 39.5043 20.214 39.3506 20.259C39.2289 20.2955 39.088 20.3084 38.8509 20.3148C36.5256 20.377 34.194 20.4392 31.8751 20.5079C31.4844 20.5197 31.2857 20.4821 31.0295 20.4553C30.6644 20.4178 30.325 20.377 30.325 20.2933C30.325 20.2805 30.2161 20.2654 30.1392 20.2547C29.5691 20.1743 29.5691 20.1743 29.4794 20.0885C29.4281 20.0359 29.3705 19.9823 29.3256 19.9286C29.2424 19.8407 29.0373 19.8181 28.448 19.8342C28.2366 19.8396 28.0252 19.8471 27.8138 19.8514C27.4999 19.8589 27.2629 19.8235 27.2053 19.7591C27.1733 19.7237 27.1349 19.6883 27.1029 19.6529C27.4231 19.6444 27.4167 19.6433 27.9804 19.5135C28.2174 19.4588 28.2175 19.4588 27.7627 19.4041C27.5897 19.3837 27.4231 19.3612 27.2374 19.3418C27.1541 19.3333 27.0452 19.3279 26.9555 19.33C26.4239 19.3429 25.8986 19.3579 25.3733 19.373C24.5278 19.3966 24.5277 19.3966 23.6693 19.2871C23.5988 19.2786 23.4899 19.2625 23.5027 19.2539C23.5732 19.2142 23.7461 19.197 23.9639 19.1927C24.2842 19.1863 24.5981 19.1756 24.912 19.167C25.1234 19.1616 25.3347 19.1552 25.5461 19.1498C25.7447 19.1091 25.9498 19.0694 26.1356 19.0276C26.4302 18.9632 26.4301 18.961 26.0266 18.916C25.7703 18.886 25.4949 18.8591 25.2323 18.8312C24.9184 18.8398 24.5981 18.8495 24.2842 18.857C23.8871 18.8666 23.7269 18.8463 23.6244 18.7765C23.5347 18.7154 23.6436 18.6628 23.9511 18.65C24.265 18.6371 24.5598 18.6285 24.7199 18.5738C24.8737 18.5212 25.1427 18.5009 25.4758 18.4966C25.6872 18.4933 25.8985 18.4858 26.1099 18.4794C26.3854 18.4708 26.5328 18.4161 26.4751 18.355C26.4431 18.3153 26.379 18.282 26.1292 18.2734C25.021 18.2359 25.0081 18.237 24.4572 18.164C24.4059 18.1576 24.3676 18.1383 24.3868 18.1286C24.4188 18.1125 24.4893 18.0889 24.5662 18.0857C25.3029 18.0621 26.0395 18.0407 26.7762 18.0246C27.0196 18.0192 27.199 18.0117 27.2822 17.972C27.3975 17.9173 27.3463 17.8669 27.1221 17.8293C27.0516 17.8175 26.9362 17.8025 26.8594 17.8036C26.0138 17.8229 25.1747 17.8476 24.3291 17.8669C24.2522 17.869 24.1114 17.8508 24.0793 17.8369C24.0153 17.8111 24.1113 17.7768 24.3355 17.765C24.6302 17.7489 24.9312 17.7478 25.1298 17.6942C25.4053 17.618 25.7447 17.5483 26.0522 17.4754C26.1035 17.4625 26.1869 17.4378 26.1676 17.4357C26.0075 17.4121 25.8217 17.3938 25.6551 17.3713C25.3733 17.3338 25.3732 17.2812 25.4373 17.2308C25.4885 17.19 25.6807 17.1739 25.9177 17.1739C26.0202 17.1739 26.1483 17.1739 26.2316 17.1643C26.4494 17.1407 26.5199 17.1106 26.411 17.0881C26.3469 17.0752 26.2317 17.057 26.1548 17.0592C24.784 17.0946 23.4066 17.1289 22.0422 17.1729C21.6386 17.1857 21.453 17.145 21.2096 17.116C21.0238 17.0935 20.8507 17.0849 20.6201 17.101C20.4023 17.116 20.191 17.1074 20.0565 17.072C19.9476 17.0431 20.1397 17.0184 20.6586 16.9905C20.7547 16.9851 20.8636 16.9819 20.934 16.9712C21.6771 16.8553 21.6771 16.8543 22.1895 16.8392C22.6892 16.8253 22.6893 16.8242 22.9519 16.762C23.0736 16.7331 23.2081 16.7041 23.3234 16.674C23.3682 16.6622 23.4452 16.6408 23.4195 16.6344C23.2786 16.6011 23.0864 16.5936 22.8622 16.6011C22.3625 16.6194 21.7733 16.6043 21.5106 16.7062C21.4081 16.7449 21.248 16.7556 21.0174 16.762C18.6985 16.8242 16.3795 16.8907 14.0542 16.9508C13.6763 16.9605 13.5034 17.0002 13.3561 17.0441C13.228 17.0806 13.087 17.0913 12.8436 17.0978C12.6002 17.1042 12.4079 17.1074 12.267 17.072C12.1837 17.0506 12.2542 17.0205 12.4464 16.9905C12.7218 16.9476 12.6705 16.894 12.5809 16.8435C12.5168 16.8103 12.3182 16.7867 12.1068 16.7888C11.793 16.7931 11.492 16.8049 11.2293 16.762C11.0756 16.7373 10.8834 16.7202 10.7104 16.6987C10.3773 16.6547 10.0442 16.6097 9.5766 16.6387C9.25631 16.6279 9.03211 16.5893 8.77587 16.5593C8.34669 16.5099 8.30825 16.5024 8.61573 16.4499C8.96164 16.3909 8.69255 16.3136 8.88472 16.2557C9.08971 16.1935 9.37166 16.1388 9.62148 16.0809C9.68554 16.0658 9.74322 16.0519 9.80727 16.0369C9.65994 16.0154 9.52544 15.9886 9.35249 15.9736C9.12829 15.9543 9.01298 15.9307 9.02579 15.8642C8.98095 15.8545 9.00003 15.8792 9.05128 15.8856C9.10893 15.8921 9.24996 15.8867 9.32043 15.8792C9.49979 15.8588 9.58938 15.832 9.54454 15.8095C9.51891 15.7977 9.3973 15.7826 9.32043 15.7826C9.1795 15.7826 9.05781 15.8062 9.01938 15.8642C8.30193 15.9082 7.55874 15.9296 6.81567 15.9468C6.7388 15.9489 6.64277 15.9275 6.55309 15.9167C6.25843 15.8803 6.25839 15.8813 5.39361 15.8706C5.30393 15.8695 5.18228 15.8545 5.13744 15.8395C4.95167 15.7741 4.95813 15.7022 4.86845 15.6325C5.035 15.5874 5.20142 15.5434 5.37437 15.4995C5.72028 15.4104 6.16879 15.3321 6.43783 15.2345C6.38018 15.1819 6.3033 15.1294 6.58515 15.0865C7.38587 15.0328 7.37952 15.0328 7.59731 14.9813C8.21867 14.8355 8.83359 14.6885 9.48057 14.5447C9.65353 14.5072 9.65355 14.4868 9.34608 14.4707C9.24999 14.4664 9.14736 14.4654 9.04487 14.4675C8.72458 14.475 8.4043 14.4943 8.09041 14.49C7.77653 14.4868 7.54592 14.4396 7.28969 14.4107C7.02706 14.3806 6.76443 14.3495 6.50179 14.3184C6.20072 14.3216 5.89971 14.3517 5.59864 14.3034C5.36803 14.2658 5.07979 14.239 4.81715 14.2079C5.01573 14.1264 5.38732 14.0642 5.67558 13.9923C5.93822 13.9269 5.94448 13.928 6.64912 13.8775C6.98222 13.8539 7.09753 13.7327 6.81567 13.6973C6.47617 13.6544 6.11752 13.6147 5.77161 13.574C5.47053 13.5772 5.16312 13.6061 4.87486 13.5579C4.65066 13.5214 4.39438 13.4967 4.02284 13.5107C3.39508 13.5343 2.75452 13.5461 2.12035 13.5654C1.90255 13.5718 1.66547 13.5675 1.56938 13.5311C1.50532 13.5053 1.6911 13.4699 1.9025 13.4624C2.22278 13.4517 2.51101 13.4388 2.67116 13.3852C2.82489 13.3315 3.10672 13.3154 3.43982 13.3079C3.5295 13.3058 3.63207 13.2929 3.67691 13.28C3.90751 13.2178 4.16376 13.1642 4.65701 13.1663C4.86199 13.1449 4.97082 13.1181 4.90676 13.0923C4.86833 13.0784 4.73388 13.0601 4.65701 13.0623C4.12533 13.073 3.59367 13.0837 3.0748 13.103C2.83138 13.1116 2.64551 13.1138 2.49178 13.0816C2.38288 13.0601 2.44052 13.0312 2.64551 13.0001C2.82487 12.9732 2.87617 12.9421 2.86336 12.9057C2.83133 12.8209 2.63912 12.7963 2.02417 12.8016C1.58217 12.8059 1.47326 12.792 1.37718 12.719C1.35156 12.7019 1.28761 12.6783 1.33245 12.6665C1.6079 12.5935 1.78727 12.5034 2.30614 12.4691C2.51112 12.4562 2.72883 12.4562 2.85695 12.4283C2.98506 12.4004 3.10042 12.3682 3.23495 12.3414C3.4015 12.3092 3.51669 12.2792 3.43982 12.2588C3.3117 12.2224 3.10679 12.2191 2.86977 12.232C2.66479 12.2427 2.447 12.2438 2.23561 12.2502C1.85767 12.262 1.55026 12.2342 1.50542 12.187C1.38371 12.0625 1.25556 11.9392 1.14666 11.8147C1.13385 11.7997 1.16579 11.7804 1.21703 11.7675C1.3964 11.7225 1.58864 11.6796 1.77441 11.6356C1.99221 11.5852 2.33818 11.5948 2.63284 11.5852C3.04922 11.5712 3.04907 11.5723 3.60637 11.4693C3.82417 11.4286 4.20213 11.4447 4.42633 11.4082C4.49679 11.3964 4.60569 11.3771 4.58648 11.3663C4.56085 11.3524 4.43281 11.3417 4.33672 11.3352C4.24704 11.3288 4.13817 11.3256 4.04208 11.3288C2.87623 11.3599 1.71681 11.3932 0.550965 11.4232C0.352386 11.4286 0.134584 11.405 0.0641203 11.3717C-0.00634319 11.3406 0.0128115 11.3031 0 11.2677C0.185767 11.2237 0.397077 11.1829 0.557221 11.1357C0.67893 11.0992 0.819883 11.0831 1.0633 11.081C1.38359 11.0778 1.6975 11.0649 2.05623 11.0553C2.72243 10.8986 3.37577 10.7345 4.09322 10.5779C4.38148 10.5146 4.31113 10.4503 4.36878 10.3827C4.42643 10.3205 4.85559 10.3301 5.14385 10.3119C5.37446 10.2969 5.45123 10.2625 5.36155 10.2389C5.3103 10.225 5.19506 10.2089 5.10538 10.2089C4.89399 10.2089 4.68261 10.2186 4.47122 10.2239C4.25983 10.2293 4.01642 10.2261 3.84346 10.2443C3.67691 10.2615 3.56795 10.2979 3.45905 10.329C3.33734 10.3634 3.17731 10.3752 2.93389 10.3773C2.62001 10.3795 2.30615 10.3891 1.99226 10.3966C1.64635 10.3548 1.28755 10.314 0.954454 10.2701C0.890396 10.2615 0.877516 10.2368 0.883921 10.2207C0.896733 10.1789 0.800671 10.1531 0.589281 10.1327C0.409919 10.1156 0.262574 10.0909 0.096024 10.0695C0.224139 10.0405 0.365116 10.0126 0.467609 9.98149C0.691811 9.91605 0.973696 9.86887 1.46053 9.87101C1.65271 9.82918 1.8064 9.77769 2.05623 9.74872C2.29324 9.72083 2.69682 9.74871 2.87619 9.68542C2.96587 9.65432 3.10046 9.61892 3.27342 9.60605C3.54887 9.58566 3.90758 9.5964 4.06773 9.53633C4.16381 9.50201 4.30468 9.47089 4.49045 9.46231C4.70184 9.45265 4.91958 9.45052 5.07332 9.43013C5.1566 9.41941 5.24629 9.40224 5.24629 9.38722C5.24629 9.37757 5.11827 9.36255 5.02859 9.35611C4.94532 9.3486 4.83629 9.34324 4.74021 9.34539C4.41992 9.35182 4.10604 9.36362 3.78575 9.37006C3.69607 9.3722 3.59361 9.3647 3.49753 9.35826C3.21567 9.3411 3.23485 9.31965 3.45905 9.28103C3.68326 9.24348 3.84349 9.1952 4.02926 9.15122C4.23424 9.14371 4.49043 9.14693 4.63136 9.12655C4.86837 9.0933 5.03488 9.04503 5.22705 9.00319C5.43844 8.99675 5.65623 8.99462 5.85481 8.98282C5.93808 8.97853 5.97655 8.95492 6.04701 8.94098C6.17513 8.91416 6.28411 8.87555 6.45707 8.86267C6.73892 8.84337 7.08483 8.85087 7.25138 8.79187C7.34746 8.75755 7.49474 8.72108 7.6741 8.71894C8.17375 8.71465 8.38515 8.65564 8.64138 8.59986C8.83355 8.55802 9.24353 8.57948 9.45492 8.53764C9.59585 8.51083 9.69841 8.47757 9.83933 8.45182C9.89698 8.4411 10.0187 8.43574 10.1147 8.43252C10.64 8.41643 11.1717 8.40463 11.6969 8.38746C11.7802 8.38425 11.8572 8.36816 11.9212 8.35529C12.0557 8.3274 12.1389 8.28878 12.3055 8.27054C12.472 8.25231 12.709 8.25231 12.914 8.24695C13.5738 8.23086 13.6251 8.23514 13.9261 8.14396C14.1696 8.06994 14.7654 8.12251 14.964 8.04098C15.0793 7.99379 15.2906 7.95517 15.6685 7.94981C16.2002 7.9423 16.7254 7.92192 17.2571 7.90797C17.7311 7.8951 17.7248 7.89509 18.2372 7.79533C18.4678 7.75028 18.8074 7.75672 19.1085 7.74814C19.4288 7.73956 19.7234 7.72669 19.8771 7.67306C20.0309 7.62049 20.3127 7.60332 20.6394 7.59581C20.9404 7.5883 21.28 7.59367 21.517 7.55077C22.0936 7.44779 22.0872 7.44671 22.4907 7.43598C23.1249 7.41882 23.7591 7.40166 24.3932 7.38342C24.816 7.37162 25.258 7.36948 25.6551 7.34588C25.9434 7.32871 26.0715 7.26865 26.2572 7.22681C26.7825 7.21072 27.3078 7.19462 27.833 7.1796C28.5697 7.15815 29.3128 7.13885 30.0558 7.11847C30.3761 7.0777 30.4211 6.9876 30.9591 6.98331C31.2794 6.98116 31.5933 6.96722 31.9136 6.95864C32.4453 6.94362 32.9705 6.92431 33.5022 6.9168C33.9058 6.91144 33.9761 6.8535 34.1875 6.81703C34.258 6.80416 34.3221 6.78593 34.4054 6.78271C35.2381 6.75268 36.0964 6.74624 36.91 6.70226C36.9932 6.69797 37.0701 6.67544 37.0894 6.65935C37.1022 6.65077 36.9933 6.63469 36.9228 6.62718C36.8395 6.6186 36.7307 6.61001 36.641 6.61216C33.9954 6.68403 31.3499 6.75697 28.7043 6.82884C28.3328 6.83957 28.3328 6.83849 27.4296 6.95649C27.3527 6.96614 27.2629 6.97687 27.1668 6.98008C26.744 6.99296 26.3149 7.00048 25.8985 7.01657C25.559 7.02944 25.2772 7.01655 25.0338 6.97794C24.8608 6.95005 24.6814 6.94147 24.4636 6.94362C24.2202 6.94683 24.0601 6.95864 23.9192 6.9876C23.7334 7.02729 23.6373 7.07878 23.2466 7.0895C21.4465 7.13563 19.6464 7.18712 17.8528 7.23646C17.603 7.22144 17.4813 7.19892 17.5453 7.1721C17.5838 7.15601 17.6607 7.13456 17.7375 7.13241C18.4742 7.10989 19.2173 7.09058 19.9539 7.06913C20.0564 7.06591 20.1973 7.06804 20.255 7.05732C20.5368 7.00904 20.6394 6.93074 21.1711 6.92538C21.4786 6.92216 21.7924 6.90607 22.0871 6.89106C22.1704 6.88676 22.2472 6.86424 22.2665 6.84815C22.2729 6.83956 22.1704 6.82347 22.0935 6.81596C21.8116 6.78485 21.485 6.82241 21.2032 6.80095C21.1071 6.79344 20.9725 6.78271 20.9533 6.76984C20.9404 6.75804 21.0494 6.73873 21.1262 6.72693C21.1967 6.7162 21.2927 6.70655 21.3888 6.70333C22.2344 6.67866 23.0801 6.65291 23.9256 6.63361C24.2715 6.6261 24.5149 6.59928 24.6686 6.54993C24.7839 6.51346 24.9249 6.49416 25.1427 6.48879C26.6224 6.4491 28.1021 6.40512 29.5882 6.36865C29.9598 6.36007 30.152 6.32468 30.3057 6.27855C30.4275 6.24208 30.5684 6.2292 30.8054 6.22277C32.9257 6.16699 35.0332 6.10477 37.1535 6.05114C37.5442 6.04148 37.6596 5.99536 37.8582 5.95567C37.9286 5.94172 37.9734 5.92456 38.063 5.91598C38.1527 5.9074 38.268 5.90846 38.3769 5.90631C40.068 5.86019 41.7593 5.81085 43.4568 5.76795C43.854 5.75829 43.9307 5.70465 44.1357 5.6671C44.2062 5.65531 44.2703 5.636 44.3536 5.63278C45.6219 5.59631 46.8902 5.56199 48.1585 5.52659C49.0041 5.50299 49.8496 5.47939 50.6952 5.45686C51.1116 5.44613 51.1116 5.44505 51.6753 5.34315C51.7394 5.33135 51.8291 5.3174 51.9124 5.31418C54.3466 5.24553 56.7743 5.18011 59.2085 5.11253C59.4135 5.10716 59.5608 5.08248 59.6633 5.04601C59.7658 5.00954 59.9132 4.98487 60.1118 4.9795C62.0143 4.92587 63.9168 4.87331 65.8257 4.82289C66.1716 4.81431 66.415 4.78856 66.5687 4.74029C66.684 4.70382 66.8249 4.68452 67.0427 4.67915C68.9453 4.62766 70.8479 4.57295 72.7568 4.52361C73.1219 4.51395 73.3012 4.47748 73.4806 4.43458C73.5446 4.41956 73.5959 4.39489 73.6728 4.39274C74.6208 4.3627 75.5624 4.33159 76.5169 4.31121C76.9141 4.30263 77.0486 4.25758 77.2088 4.21467C77.3369 4.18034 77.4843 4.16855 77.7277 4.16425C78.2594 4.1546 78.7846 4.13637 79.3035 4.11814C79.3803 4.11492 79.4765 4.09132 79.4829 4.0763C79.4957 4.04841 79.3483 4.0291 79.1049 4.01944C76.5682 4.08917 74.0252 4.15889 71.4885 4.22861C71.0721 4.24041 71.0721 4.24042 70.5084 4.34233C70.4443 4.35413 70.3545 4.36807 70.2649 4.37129C67.8307 4.43887 65.403 4.50538 62.9688 4.57296C62.7638 4.57832 62.6165 4.60299 62.514 4.63947C62.4115 4.67594 62.264 4.70061 62.0654 4.70597C59.7402 4.77033 57.4149 4.83577 55.0832 4.89692C54.7373 4.9055 54.4939 4.93016 54.3402 4.9795C54.2249 5.01597 54.084 5.03529 53.8662 5.04065C51.6434 5.10072 49.4269 5.16401 47.1977 5.22193C46.9735 5.2273 46.807 5.19619 46.8198 5.16722C46.8262 5.15221 46.9222 5.12755 46.9991 5.1254C48.1585 5.09 49.3117 5.05353 50.4775 5.02671C50.8683 5.01813 50.9835 4.97093 51.182 4.93124C51.2461 4.91729 51.2974 4.89906 51.3807 4.89155C51.4703 4.88297 51.5856 4.88404 51.6945 4.8819C54.4426 4.80573 57.1908 4.7285 59.9453 4.65663C60.3424 4.64591 60.4192 4.59334 60.6241 4.55579C60.6946 4.54292 60.7587 4.52362 60.842 4.52147C61.6876 4.49573 62.5331 4.4732 63.3787 4.45067C64.8584 4.40991 66.3381 4.36914 67.8242 4.32838C68.2534 4.31658 68.2534 4.31658 68.8043 4.21574C68.8684 4.20394 68.9581 4.18894 69.0414 4.18679C72.9553 4.07845 76.8693 3.9701 80.7832 3.86283C80.9882 3.85747 81.1355 3.8328 81.238 3.79633C81.3405 3.76093 81.4878 3.73518 81.6864 3.72875C86.9776 3.58286 92.2623 3.43697 97.5535 3.29322C97.8994 3.28357 98.1428 3.26104 98.2965 3.21063C98.4054 3.17415 98.5528 3.15485 98.7705 3.14841C104.587 2.98858 110.403 2.82875 116.226 2.66785C120.14 2.56058 124.054 2.45116 127.968 2.34604C128.327 2.33638 128.519 2.30312 128.698 2.25914C128.756 2.24413 128.814 2.21945 128.89 2.21731C129.73 2.19049 130.569 2.16582 131.408 2.14115C131.671 2.17011 131.933 2.19801 132.196 2.22697C132.394 2.18621 132.587 2.14437 132.785 2.10361C134.054 2.0725 135.303 2.02423 136.584 2.00921C136.667 2.00814 136.757 2.02852 136.846 2.03925C137.442 2.10683 137.782 2.10146 138.16 2.01136C138.294 1.97918 138.409 1.95021 138.614 1.94485C139.249 1.92554 139.889 1.91267 140.517 1.89014C140.857 1.87834 141.138 1.88907 141.382 1.92768C141.555 1.95557 141.734 1.96738 141.946 1.96094C143.111 1.92876 144.271 1.89765 145.437 1.86332C145.52 1.86118 145.597 1.84294 145.661 1.83006C145.795 1.80217 145.911 1.77215 146.039 1.74318C146.212 1.76142 146.404 1.77537 146.545 1.79897C146.724 1.82686 146.891 1.82685 147.134 1.81934C151.785 1.68954 156.442 1.56297 161.092 1.4321C161.489 1.42137 161.662 1.46643 161.932 1.49003C162.021 1.49861 162.111 1.50933 162.207 1.51148C162.309 1.51362 162.418 1.50719 162.521 1.50397C166.012 1.40743 169.503 1.31195 172.994 1.21541C173.455 1.20254 173.456 1.20254 174.141 1.26905C174.224 1.27763 174.333 1.28728 174.423 1.28407C176.011 1.24223 177.6 1.19718 179.182 1.15427C179.387 1.14891 179.56 1.16607 179.746 1.19074C180.111 1.23901 180.137 1.23902 180.406 1.16822C180.534 1.13496 180.668 1.11457 180.88 1.10492C181.11 1.09419 181.296 1.09742 181.476 1.11673C181.732 1.14355 181.918 1.1886 182.308 1.1768C183.999 1.12638 185.697 1.08455 187.382 1.03306C187.766 1.02126 187.971 1.05773 188.227 1.08454C188.317 1.0942 188.4 1.10922 188.496 1.11244C188.592 1.11565 188.708 1.10814 188.81 1.10492C190.924 1.04699 193.044 0.990152 195.152 0.927935C195.549 0.916136 195.722 0.962253 195.991 0.985852C196.081 0.994434 196.183 1.00946 196.266 1.00731C197.535 0.97406 198.81 0.938651 200.078 0.903252C200.533 0.89038 200.533 0.891453 201.224 0.956887C201.308 0.965469 201.417 0.974052 201.506 0.971906C202.986 0.932217 204.472 0.891454 205.952 0.850691C206.407 0.837819 206.407 0.837821 207.72 0.893602C207.816 0.897892 207.919 0.904337 208.015 0.902192C209.706 0.856066 211.403 0.811006 213.094 0.761662C213.434 0.752008 213.716 0.760587 213.959 0.799204C214.132 0.827094 214.311 0.8389 214.523 0.832464C216.425 0.779901 218.334 0.729487 220.23 0.673707C220.596 0.66298 220.832 0.68657 221.089 0.717678C221.172 0.728405 221.255 0.743426 221.351 0.747716C221.448 0.752007 221.556 0.747713 221.659 0.744495C223.561 0.691933 225.47 0.642591 227.366 0.585738C227.751 0.573938 227.956 0.610408 228.212 0.637225C228.302 0.64688 228.398 0.666189 228.475 0.665117C229.218 0.646881 229.961 0.630796 230.697 0.603979C231.095 0.588961 231.268 0.638296 231.537 0.661895C231.626 0.669404 231.729 0.685503 231.812 0.683357C233.401 0.641522 234.989 0.597545 236.572 0.552491C236.796 0.546055 236.962 0.5557 237.142 0.583591C237.379 0.621135 237.654 0.636153 238 0.624354C238.737 0.599682 239.48 0.582523 240.223 0.562142C240.658 0.550342 240.658 0.550346 241.991 0.606126C242.087 0.610417 242.189 0.616848 242.285 0.614703C243.554 0.580377 244.829 0.547125 246.09 0.509581C246.43 0.498854 246.712 0.508505 246.955 0.547123C247.128 0.575013 247.301 0.586819 247.519 0.580382C248.685 0.548201 249.844 0.516018 251.01 0.483837C251.433 0.472037 251.856 0.451651 252.279 0.451651C252.586 0.452724 252.81 0.504211 253.086 0.529956C253.163 0.537465 253.291 0.528893 253.393 0.526748C254.873 0.485985 256.359 0.448437 257.832 0.402311C258.217 0.390511 258.422 0.426981 258.678 0.453798C258.768 0.463453 258.864 0.482762 258.94 0.48169C259.472 0.46989 259.997 0.453798 260.529 0.439853C261.163 0.42269 261.804 0.409817 262.432 0.386218C262.944 0.366909 263.136 0.460231 263.546 0.463449C263.86 0.466667 264.18 0.448434 264.494 0.439853C265.128 0.42269 265.763 0.403383 266.397 0.388365C266.621 0.383002 266.794 0.365831 266.864 0.327214C266.877 0.319705 266.768 0.303622 266.698 0.293968C265.846 0.184552 265.846 0.184547 264.987 0.208146C264.456 0.223164 263.931 0.238185 263.399 0.251057C263.309 0.253202 263.207 0.244621 263.117 0.238185C262.861 0.219949 262.886 0.198497 263.104 0.15988C263.322 0.121263 263.489 0.0740688 263.674 0.0300882C263.937 0.0579783 264.193 0.0858585 264.456 0.113749C264.667 0.108385 264.879 0.101958 265.09 0.0965949C266.147 0.0687047 267.204 0.0397398 268.261 0.0139951C268.338 0.0118497 268.434 0.0333068 268.523 0.0440337C268.78 0.075142 269.01 0.101952 269.382 0.0901524C270.33 0.0590442 271.284 0.0365175 272.232 0.0097001C272.649 -0.00209957 272.649 -0.00209855 273.379 0.0644087C273.462 0.0719176 273.571 0.0804997 273.661 0.0783543C274.615 0.0536823 275.563 0.026868 276.518 0.00112324C276.723 -0.00424025 276.921 0.00970428 277.069 0.0408125C277.126 0.0536849 277.114 0.0751346 277.357 0.251057C278.113 0.393726 278.632 0.378715 279.157 0.365843C279.381 0.360479 279.58 0.355111 279.727 0.333657C279.804 0.321857 279.9 0.304691 279.9 0.290746C279.9 0.280019 279.759 0.262853 279.67 0.260708C279.035 0.239254 278.433 0.284313 277.812 0.293968C277.524 0.298258 277.274 0.260713 277.223 0.19957C277.21 0.182406 277.19 0.164172 277.171 0.147008C277.152 0.129845 277.139 0.111611 277.12 0.0944474C276.87 0.0890839 276.723 0.108389 276.614 0.144861C276.524 0.174897 276.396 0.209223 276.223 0.225313C276.05 0.242476 275.813 0.239264 275.602 0.244628C275.397 0.249991 275.173 0.263935 274.981 0.256426C274.788 0.247844 274.635 0.216731 274.455 0.197422C274.372 0.187768 274.27 0.173828 274.186 0.175973C273.45 0.194209 272.719 0.212438 271.989 0.236038C271.605 0.24891 271.413 0.203864 271.169 0.175973C270.977 0.154519 270.785 0.159876 270.753 0.20922C270.669 0.327217 270.964 0.376558 271.618 0.354032C272.156 0.334723 272.642 0.331515 273.065 0.404458C273.123 0.414113 273.257 0.418402 273.341 0.416257C273.866 0.403384 274.385 0.387292 274.91 0.37442C275.006 0.372274 275.109 0.376558 275.198 0.380849C276.505 0.438775 276.505 0.439853 276.947 0.426981C277.159 0.420545 277.363 0.415181 277.344 0.252131C277.748 0.077281 278.388 0.0654835 279.01 0.0397388C279.413 0.0236483 279.586 0.0708491 279.849 0.0955211C279.939 0.104103 280.035 0.121263 280.118 0.119117C281.495 0.0837183 282.866 0.0461687 284.237 0.00647887C284.467 4.26811e-05 284.634 0.0064799 284.813 0.03437C285.044 0.0697691 285.3 0.0923004 285.665 0.079428C286.396 0.0536833 287.139 0.0375965 287.882 0.0161426C288.26 0.00541559 288.26 0.00540458 289.022 0.0719118C289.105 0.0794207 289.214 0.0880028 289.304 0.0858574C290.047 0.0676216 290.784 0.0451017 291.52 0.0257932C291.725 0.0204297 291.911 0.0354459 292.071 0.0644087C292.231 0.0933716 292.423 0.108388 292.622 0.103024C293.365 0.0837157 294.102 0.0622686 294.838 0.04296C294.928 0.0408146 295.037 0.048323 295.12 0.0558318C295.902 0.122339 295.902 0.122328 296.261 0.111601C296.786 0.0955106 297.324 0.0880102 297.843 0.0665562C298.349 0.0451022 298.611 0.107313 298.957 0.14164C299.905 0.116968 300.86 0.0965917 301.801 0.0665562C302.186 0.0536838 302.391 0.0890797 302.647 0.11697C302.737 0.126624 302.826 0.147007 302.91 0.145935C303.23 0.141644 303.544 0.129846 303.858 0.121265C304.172 0.112683 304.492 0.104103 304.806 0.0955211C305.165 0.126629 305.402 0.199572 305.914 0.1749C306.222 0.159882 306.548 0.156664 306.862 0.148082C307.176 0.139501 307.496 0.13092 307.81 0.122339C308.022 0.116975 308.239 0.113752 308.444 0.104098C308.822 0.0880075 309.008 0.140576 309.277 0.164175C309.367 0.171684 309.469 0.184548 309.552 0.182403C310.187 0.167385 310.827 0.154514 311.449 0.129842C311.929 0.110533 312.256 0.142718 312.595 0.187772C312.666 0.197426 312.787 0.202789 312.877 0.200643C313.62 0.182408 314.357 0.159875 315.093 0.140566C315.292 0.135203 315.484 0.152365 315.644 0.180255C315.811 0.209218 315.997 0.223174 316.202 0.21781C316.938 0.198502 317.681 0.177041 318.418 0.157733C318.508 0.155587 318.617 0.164171 318.7 0.172752C319.417 0.239259 319.417 0.240333 319.84 0.227461C319.943 0.224243 320.052 0.222089 320.154 0.218871C320.679 0.203853 321.224 0.198497 321.736 0.172752C322.326 0.143789 322.755 0.180263 323.171 0.241406C323.696 0.228534 324.234 0.221024 324.747 0.19957C325.131 0.183479 325.336 0.22424 325.593 0.251057C325.682 0.260711 325.778 0.28002 325.855 0.277874C326.598 0.259639 327.341 0.243554 328.072 0.216736C328.469 0.201719 328.642 0.249981 328.911 0.274653C329 0.283235 329.096 0.29826 329.18 0.296115C329.602 0.287533 330.025 0.274655 330.448 0.262855C330.941 0.24891 330.941 0.249982 331.595 0.315416C331.902 0.346524 332.21 0.321851 332.511 0.314342C332.831 0.305761 333.132 0.299327 333.388 0.343307C333.548 0.371198 333.741 0.388361 333.939 0.38407C334.362 0.374416 334.791 0.364767 335.208 0.348676C335.541 0.335804 335.829 0.344381 336.072 0.38407C336.245 0.411961 336.425 0.425914 336.636 0.419478C337.584 0.393733 338.539 0.366906 339.487 0.342234C339.57 0.340088 339.685 0.349746 339.762 0.3594C339.941 0.378709 340.114 0.400158 340.287 0.421612C340.704 0.411958 341.133 0.407678 341.543 0.39266C341.978 0.377643 342.376 0.372278 342.715 0.431276C342.786 0.444148 342.888 0.462374 342.971 0.461302C343.292 0.457011 343.605 0.446287 343.919 0.437705C344.233 0.429124 344.554 0.420543 344.867 0.411962C345.233 0.438779 345.463 0.516012 345.976 0.49134C346.283 0.476322 346.61 0.473104 346.924 0.464523C347.238 0.455941 347.558 0.446288 347.872 0.438779C347.974 0.436634 348.09 0.431267 348.179 0.435558C348.275 0.439849 348.359 0.45487 348.442 0.465596C348.698 0.496705 348.935 0.527817 349.3 0.509581C349.608 0.494563 349.934 0.491344 350.248 0.48169C350.678 0.46989 350.678 0.469892 351.389 0.537472C351.677 0.565362 352.003 0.528892 352.279 0.552491C352.465 0.568582 352.625 0.595393 352.804 0.613629C352.881 0.621138 353.003 0.624352 353.092 0.622206C353.515 0.612552 353.944 0.602902 354.361 0.586812C354.7 0.573939 354.982 0.58681 355.219 0.625427C355.392 0.653317 355.565 0.665123 355.783 0.658687C356.84 0.628652 357.897 0.602899 358.947 0.569645C359.306 0.557845 359.594 0.576086 359.793 0.614703C360.132 0.68121 360.613 0.602905 360.965 0.65654C361.183 0.689793 361.401 0.728413 361.798 0.712322C362.528 0.684432 363.271 0.669406 364.008 0.650097C364.271 0.67906 364.533 0.708029 364.802 0.736992C365.225 0.725192 365.648 0.713385 366.071 0.702658C366.384 0.694077 366.705 0.684424 367.019 0.676915C367.121 0.674769 367.23 0.670478 367.326 0.675841C367.422 0.681204 367.499 0.695153 367.589 0.70588C368.031 0.758442 368.031 0.75952 368.761 0.738066C369.075 0.728412 369.376 0.721975 369.639 0.764883C369.882 0.804573 370.17 0.812077 370.503 0.800278C371.131 0.778824 371.765 0.762734 372.406 0.747716C372.605 0.742353 372.79 0.760589 372.957 0.788479C373.207 0.83246 373.514 0.82817 373.828 0.816371C374.244 0.801353 374.654 0.786338 375.007 0.846409C375.077 0.859282 375.186 0.877508 375.263 0.876435C375.788 0.867853 376.32 0.861422 376.832 0.841041C377.345 0.820659 377.595 0.887164 377.947 0.919345C378.472 0.9054 379.004 0.891454 379.529 0.877509C379.632 0.87429 379.753 0.864642 379.843 0.870005C380.221 0.892532 380.439 0.972982 380.958 0.94831C381.259 0.934365 381.585 0.93008 381.899 0.926862C381.982 0.925789 382.091 0.944016 382.149 0.957961C382.181 0.96547 382.149 0.985849 382.111 0.996576C381.995 1.02661 381.854 1.05451 381.752 1.08562C381.739 1.08991 381.861 1.10921 381.931 1.11779C382.104 1.1371 382.303 1.13389 382.533 1.12531C382.732 1.1178 382.937 1.13282 383.078 1.165C383.136 1.17787 383.116 1.19932 382.995 1.27012C382.995 1.32268 383.129 1.29908 383.174 1.26475C383.244 1.21541 383.11 1.19932 382.854 1.22614C382.674 1.24544 382.585 1.27334 382.63 1.29586C382.655 1.30766 382.777 1.32268 382.995 1.27012C383.558 1.20576 383.981 1.19396 384.404 1.18216C384.513 1.17895 384.641 1.16821 384.718 1.17465C384.993 1.20039 385.25 1.23151 385.519 1.26047C385.826 1.25403 386.114 1.23793 386.415 1.27977C386.838 1.33877 386.857 1.33341 387.267 1.32161C387.479 1.31517 387.69 1.30982 387.901 1.30445C388.113 1.29909 388.279 1.31518 388.465 1.33985C388.843 1.39026 388.875 1.39026 389.125 1.32161C389.272 1.27977 389.375 1.26583 389.56 1.28514C390.175 1.35057 390.182 1.35486 390.707 1.33555C391.143 1.31946 391.553 1.31517 391.873 1.37632C392.091 1.41922 392.161 1.40957 392.334 1.36452C392.795 1.24545 393.007 1.24759 393.872 1.3334C394.275 1.37417 394.692 1.33019 395.102 1.32483C395.447 1.32054 395.691 1.34628 395.716 1.41386C395.736 1.45569 395.793 1.48573 396.024 1.49968C396.114 1.50504 396.223 1.51255 396.312 1.5104C396.844 1.49753 397.369 1.48251 397.901 1.46749C398.17 1.45998 398.317 1.40958 398.266 1.34307C398.208 1.27227 398.311 1.24652 398.695 1.22614C398.926 1.21434 399.112 1.21649 399.297 1.2358C399.502 1.25725 399.445 1.27656 399.265 1.31518C398.836 1.40957 398.887 1.46749 399.438 1.53293C399.63 1.55545 399.784 1.57584 399.829 1.6091C399.855 1.62626 399.829 1.64878 399.887 1.66166C400.201 1.73353 400.636 1.77966 401.123 1.81398C401.591 1.78502 401.911 1.83328 402.27 1.8719C402.551 1.90194 402.885 1.8762 403.186 1.86547C403.525 1.85367 403.807 1.86225 404.05 1.90194C404.223 1.92983 404.403 1.9427 404.614 1.93733C405.037 1.92553 405.466 1.91803 405.882 1.90087C406.241 1.88585 406.51 1.9073 406.734 1.94378C407.016 1.9899 407.33 1.95879 407.625 1.96523C408.022 1.97273 408.221 2.0682 408.739 2.04246C409.047 2.02744 409.367 2.02208 409.688 2.01779C409.771 2.01671 409.873 2.03495 409.944 2.04783C410.283 2.10682 410.68 2.1036 411.116 2.08644C411.417 2.07464 411.712 2.06392 412.006 2.10468C412.493 2.17333 413.031 2.23341 413.544 2.2967C413.614 2.34604 413.563 2.40396 413.928 2.43292C414.12 2.44794 414.3 2.47047 414.447 2.49514C414.626 2.52411 414.793 2.53162 415.023 2.52411C415.44 2.50909 415.876 2.50586 416.285 2.48655C416.663 2.46939 416.9 2.5048 417.131 2.53806C417.317 2.56487 417.49 2.57774 417.714 2.55843C417.945 2.54019 418.111 2.55199 418.297 2.58095C418.559 2.62064 418.579 2.61636 419.45 2.62816C419.54 2.62923 419.648 2.64531 419.7 2.65926C419.725 2.66677 419.668 2.68823 419.623 2.69896C419.565 2.71183 419.475 2.72684 419.392 2.73006C418.444 2.75795 417.49 2.78262 416.542 2.81051C416.446 2.81373 416.343 2.82125 416.273 2.83197C416.196 2.84377 416.1 2.85985 416.1 2.87487C416.1 2.8856 416.228 2.89847 416.317 2.90598C416.599 2.93065 416.932 2.89311 417.208 2.921C417.394 2.93924 417.547 2.96498 417.733 2.98214C417.81 2.98965 417.932 2.98858 418.028 2.98644C418.348 2.97893 418.662 2.9682 418.982 2.96177C419.072 2.96069 419.174 2.97142 419.258 2.98001C419.873 3.04437 419.873 3.04436 420.404 3.03042C420.616 3.02506 420.84 3.00896 421.039 3.0154C421.231 3.02184 421.397 3.0508 421.57 3.06903C421.929 3.10765 422.268 3.1452 422.294 3.22887C422.307 3.26105 422.518 3.28893 422.73 3.29108C422.935 3.29322 423.152 3.28143 423.364 3.275C423.863 3.26213 423.863 3.26212 424.51 3.32756C424.69 3.34579 424.882 3.34794 425.113 3.33721C425.202 3.33292 425.311 3.33721 425.407 3.34258C425.721 3.35867 425.721 3.37904 425.516 3.41766C425.228 3.47451 425.253 3.47988 426.061 3.52815C426.368 3.54639 426.605 3.58072 426.861 3.61075C427.278 3.65902 427.271 3.65901 426.996 3.7223C426.932 3.73625 426.874 3.75127 426.81 3.76629C426.624 3.80812 426.477 3.85317 426.093 3.85746C425.67 3.86176 425.247 3.87893 424.824 3.89072C424.414 3.90252 424.305 3.92826 424.344 4.0012C424.389 4.08916 424.472 4.09882 425.209 4.09775C425.42 4.09775 425.606 4.10633 425.766 4.13529C425.689 4.16962 425.548 4.19643 425.343 4.20287C424.818 4.21896 424.286 4.23291 423.761 4.24685C423.338 4.25865 422.915 4.27045 422.493 4.28225C422.23 4.28976 422.063 4.34554 422.134 4.40776C422.172 4.44316 422.204 4.47856 422.236 4.51396C422.307 4.58475 422.441 4.60299 422.87 4.59978C422.979 4.5987 423.082 4.59011 423.184 4.59226C423.601 4.59977 423.799 4.6888 424.299 4.67056C424.715 4.65555 425.151 4.65233 425.561 4.63302C425.939 4.61586 426.15 4.65449 426.413 4.68345C426.503 4.6931 426.599 4.71347 426.676 4.7124C427.207 4.7006 427.739 4.68881 428.258 4.66843C428.501 4.65985 428.649 4.66628 428.841 4.69203C429.302 4.75424 429.315 4.75102 430 4.73172C430.5 4.7167 430.506 4.71884 431.147 4.78428C431.326 4.80251 431.518 4.80251 431.749 4.79393C432.05 4.7832 432.364 4.76604 432.678 4.78213C432.774 4.78642 432.896 4.7993 432.928 4.81324C432.947 4.8229 432.857 4.8465 432.78 4.854C432.217 4.90979 431.557 4.90013 430.942 4.92266C430.75 4.9291 430.557 4.90871 430.397 4.87975C430.231 4.85079 430.051 4.83899 429.834 4.84435C429.411 4.85615 428.982 4.86366 428.565 4.88082C428.207 4.89584 427.957 4.87117 427.707 4.83791C427.624 4.82718 427.528 4.8068 427.444 4.80787C426.496 4.82933 425.542 4.85079 424.6 4.88082C424.222 4.89369 424.004 4.85937 423.748 4.83041C423.658 4.82075 423.569 4.80037 423.486 4.80144C423.165 4.80573 422.851 4.81753 422.531 4.82611C421.365 4.85829 420.206 4.89048 419.04 4.92051C418.963 4.92266 418.867 4.90013 418.777 4.89047C418.604 4.87116 418.425 4.85293 418.246 4.83469C417.925 4.84327 417.611 4.854 417.291 4.86043C417.06 4.86472 416.856 4.87975 416.823 4.92051C416.804 4.94733 417.016 4.972 417.24 4.96985C417.458 4.96771 417.676 4.95483 417.855 4.96878C418.745 5.03743 418.745 5.03851 419.303 5.02456C419.789 5.01169 419.738 5.00096 420.167 5.05995C420.353 5.0857 420.52 5.10072 420.731 5.09429C421.256 5.07927 421.788 5.06425 422.32 5.05138C422.403 5.04923 422.512 5.05996 422.595 5.06854C423.223 5.13291 423.223 5.13505 423.742 5.11896C424.421 5.09965 424.446 5.09429 424.901 5.15972C425.215 5.20477 425.503 5.17366 425.804 5.17152C426.15 5.21335 426.528 5.2509 426.842 5.2981C427.214 5.35388 427.604 5.34422 428.027 5.32813C428.341 5.31633 428.649 5.31204 428.905 5.35602C429.148 5.39678 429.443 5.40108 429.776 5.39035C430.077 5.3807 430.385 5.36031 430.698 5.38391C430.782 5.39035 430.91 5.40644 430.903 5.4161C430.897 5.43112 430.814 5.45257 430.73 5.45901C430.141 5.50299 429.494 5.50191 428.873 5.52229C428.79 5.52551 428.681 5.51371 428.597 5.50513C428.418 5.48582 428.245 5.4633 428.072 5.44291C427.758 5.44935 427.438 5.45149 427.13 5.46436C426.893 5.47402 426.714 5.47295 426.541 5.44721C426.381 5.42361 426.208 5.39464 426.016 5.38713C425.824 5.37962 425.599 5.39572 425.388 5.40215C425.177 5.40859 424.933 5.40536 424.767 5.42253C424.6 5.43969 424.498 5.47724 424.389 5.50727C424.267 5.54053 424.1 5.55126 423.857 5.55448C423.633 5.5577 423.454 5.5534 423.287 5.52337C423.216 5.51049 423.12 5.50084 423.024 5.49225C422.935 5.48475 422.832 5.47294 422.749 5.47509C421.794 5.49976 420.846 5.52659 419.892 5.55233C419.418 5.5652 419.424 5.56519 418.438 5.50191C418.348 5.49654 418.239 5.48904 418.15 5.49118C417.618 5.50405 417.093 5.51907 416.561 5.53409C416.023 5.54911 416.029 5.54696 415.113 5.47938C414.947 5.46651 414.703 5.48368 414.505 5.48153C414.088 5.47617 413.883 5.38606 413.396 5.40323C412.98 5.41824 412.544 5.42146 412.128 5.44077C411.75 5.45793 411.532 5.42039 411.276 5.39143C411.186 5.38177 411.09 5.36032 411.013 5.36246C410.059 5.38606 409.111 5.41288 407.843 5.4161C407.529 5.4161 407.67 5.43863 407.875 5.44614C408.169 5.45794 408.265 5.43541 408.105 5.3925C407.99 5.36247 407.823 5.34744 407.689 5.35495C407.618 5.35924 407.529 5.37963 407.843 5.4161C408.176 5.45686 408.157 5.47938 408.214 5.49225C408.355 5.52336 408.554 5.53623 408.759 5.53194C409.079 5.52444 409.393 5.51371 409.713 5.50727C409.803 5.50513 409.912 5.51264 409.995 5.52122C410.7 5.58773 410.706 5.59202 411.456 5.56628C411.693 5.55877 411.865 5.55877 412.051 5.57915C412.307 5.60704 412.493 5.65423 412.884 5.63921C413.403 5.61883 413.935 5.60704 414.466 5.59524C414.549 5.5931 414.639 5.6124 414.735 5.62099C414.998 5.64673 415.19 5.695 415.581 5.67462C415.882 5.65853 416.209 5.65423 416.529 5.65101C416.612 5.64994 416.74 5.66711 416.779 5.68105C416.855 5.70572 416.759 5.73469 416.542 5.75507C416.452 5.76365 416.33 5.76151 416.228 5.76472C415.805 5.77652 415.382 5.78939 414.959 5.79904C414.735 5.80441 414.524 5.82051 414.498 5.8602C414.479 5.88701 414.71 5.91061 414.927 5.90846C415.248 5.90524 415.568 5.89666 415.875 5.88272C416.42 5.85912 416.894 5.86555 417.336 5.93313C417.65 5.98033 417.631 5.96318 417.964 6.10263C418.047 6.13803 418.297 6.14124 418.515 6.13909C419.04 6.13373 419.283 6.14982 419.238 6.18308C419.181 6.22384 418.995 6.23671 418.758 6.24207C418.335 6.25065 417.913 6.2646 417.49 6.2764C417.387 6.27962 417.272 6.28605 417.176 6.28391C417.08 6.28176 416.99 6.26889 416.907 6.25924C416.727 6.23885 416.574 6.20774 416.382 6.20023C416.189 6.19272 415.965 6.20882 415.754 6.21525C415.542 6.22062 415.318 6.23671 415.126 6.2292C414.934 6.22169 414.774 6.18952 414.601 6.17021C414.517 6.16055 414.415 6.14552 414.332 6.1466C413.909 6.15518 413.486 6.16913 413.063 6.17986C412.545 6.1938 412.544 6.1938 411.917 6.1273C411.737 6.10799 411.552 6.10906 411.315 6.11765C410.802 6.13481 410.796 6.13158 409.861 6.06937C409.771 6.06293 409.662 6.05542 409.572 6.05864C408.618 6.08331 407.67 6.11013 406.722 6.13587C405.908 6.1584 405.908 6.15841 405.46 6.26568C405.127 6.34506 405.12 6.34505 405.447 6.38152C405.709 6.41156 405.946 6.45554 406.235 6.47163C406.504 6.48665 406.837 6.43838 407.132 6.48772C407.279 6.51239 407.471 6.53921 407.657 6.5435C407.951 6.54887 408.265 6.51775 408.547 6.56495C408.688 6.58855 408.9 6.61323 409.079 6.6143C409.393 6.61645 409.713 6.59928 410.027 6.59177C410.123 6.58962 410.232 6.58963 410.322 6.59499C410.418 6.60143 410.501 6.6143 410.584 6.62503C410.84 6.6615 411.116 6.67866 411.449 6.66042C411.994 6.63039 412.48 6.64541 412.903 6.71406C412.961 6.72371 413.102 6.72479 413.191 6.7205C413.422 6.70977 413.621 6.7087 413.794 6.72908C413.864 6.73766 413.967 6.75267 413.954 6.76232C413.934 6.77842 413.858 6.79987 413.774 6.80524C413.172 6.84171 412.525 6.846 411.904 6.86531C411.821 6.86746 411.718 6.8535 411.635 6.84385C411.456 6.82454 411.302 6.79237 411.11 6.78486C410.917 6.77735 410.693 6.79129 410.482 6.79666C410.27 6.80202 410.046 6.81811 409.854 6.81168C409.662 6.80417 409.483 6.77735 409.329 6.75375C409.149 6.72693 408.976 6.72372 408.739 6.73445C408.432 6.74839 408.112 6.75053 407.798 6.75804C407.625 6.73766 407.452 6.71513 407.273 6.69582C407.189 6.68616 407.087 6.67437 406.997 6.67544C406.574 6.68402 406.151 6.69689 405.729 6.70869C405.306 6.72049 405.306 6.7205 404.589 6.65399C404.505 6.64649 404.396 6.6379 404.307 6.64005C403.775 6.65292 403.25 6.669 402.718 6.68187C402.513 6.68724 402.327 6.67222 402.161 6.64326C402.001 6.61429 401.808 6.5982 401.61 6.60357C400.764 6.62609 399.919 6.64755 399.073 6.67437C398.734 6.6851 398.445 6.67544 398.215 6.63683C397.946 6.59285 397.645 6.60358 397.331 6.61216C396.62 6.63361 396.613 6.63253 396.158 6.57782C396.069 6.5671 395.979 6.54671 395.896 6.54779C395.159 6.56388 394.416 6.5789 393.686 6.60464C393.302 6.61859 393.097 6.58104 392.84 6.55315C392.751 6.5435 392.655 6.52312 392.578 6.52526C392.046 6.53706 391.514 6.54779 390.995 6.56925C390.477 6.5907 390.278 6.49094 389.887 6.49202C389.356 6.49309 388.83 6.51776 388.305 6.53278C387.882 6.54458 387.459 6.55637 387.037 6.56817C386.614 6.57997 386.191 6.58962 385.768 6.60357C385.544 6.61108 385.378 6.60142 385.192 6.5746C384.955 6.5392 384.673 6.51132 384.417 6.47914C384.026 6.43302 384.026 6.43301 383.552 6.44588C383.449 6.4491 383.341 6.45124 383.238 6.45446C382.463 6.47806 382.463 6.47592 381.476 6.40834C381.432 6.40512 381.316 6.41693 381.271 6.42551C381.137 6.4534 381.015 6.48343 380.894 6.51239C380.721 6.49523 380.509 6.48558 380.394 6.4609C380.067 6.39118 379.555 6.48665 379.222 6.41799C379.1 6.39225 378.889 6.36972 378.696 6.36328C378.498 6.35685 378.274 6.37187 378.069 6.3783C377.537 6.39439 377.537 6.39332 377.082 6.48879C376.851 6.53599 376.518 6.52741 376.217 6.53813C375.904 6.54993 375.602 6.55637 375.34 6.51239C375.103 6.4727 374.815 6.46305 374.475 6.47592C374.059 6.49201 373.629 6.50166 373.207 6.51132C373.117 6.51346 373.008 6.5081 372.918 6.50167C371.938 6.43838 371.938 6.43731 371.464 6.45125C371.253 6.45769 371.035 6.45983 370.83 6.46948C370.484 6.48664 370.222 6.46412 369.972 6.42979C369.888 6.41906 369.792 6.39869 369.709 6.39977C369.286 6.40513 368.87 6.41478 368.453 6.42444C368.133 6.43194 367.813 6.43623 367.505 6.45125C366.993 6.47592 366.743 6.40619 366.391 6.37401C365.866 6.38795 365.334 6.39761 364.809 6.41692C364.565 6.4255 364.405 6.42229 364.219 6.39654C363.982 6.36436 363.765 6.32789 363.38 6.34398C362.868 6.36544 362.33 6.37295 361.804 6.38582C361.452 6.35257 361.196 6.28498 360.69 6.30965C360.382 6.32467 360.056 6.32789 359.742 6.33647C359.319 6.34827 358.896 6.359 358.473 6.37187C358.019 6.38475 358.025 6.38153 357.327 6.31824C356.923 6.2807 356.507 6.32253 356.097 6.32896C355.776 6.33433 355.616 6.38367 355.693 6.44696C355.77 6.51025 355.597 6.55959 355.302 6.56817C354.566 6.58855 353.823 6.61 353.086 6.62824C352.996 6.63038 352.888 6.62287 352.804 6.61537C352.016 6.54779 352.016 6.54887 351.664 6.55852C351.139 6.57461 350.601 6.58319 350.082 6.60357C349.723 6.61751 349.46 6.59499 349.23 6.55852C349.05 6.53063 348.884 6.5242 348.653 6.53063C346.117 6.6025 343.58 6.66901 341.05 6.74302C340.672 6.75375 340.454 6.72265 340.198 6.69368C340.108 6.68403 340.025 6.66364 339.935 6.66364C339.724 6.66364 339.512 6.6733 339.301 6.67974C338.353 6.70548 337.405 6.73659 336.45 6.75589C336.047 6.76448 335.938 6.81383 335.765 6.85459C335.63 6.8857 335.477 6.89856 335.24 6.90285C335.009 6.90714 334.842 6.90178 334.663 6.87389C334.432 6.83742 334.17 6.81489 333.811 6.8299C333.395 6.84707 332.972 6.85459 332.543 6.86639C332.325 6.87175 332.158 6.89105 332.088 6.92967C332.075 6.93611 332.21 6.9522 332.287 6.96186C332.543 6.99404 332.786 7.03158 333.074 7.05411C333.369 7.07663 333.689 7.05088 333.997 7.04444C334.106 7.0423 334.208 7.03587 334.311 7.03694C334.407 7.03801 334.522 7.04338 334.593 7.05303C334.926 7.10131 335.278 7.13456 335.739 7.1056C336.136 7.11954 336.341 7.20857 336.848 7.18497C337.155 7.17103 337.475 7.16459 337.796 7.15923C337.879 7.15816 337.968 7.17747 338.058 7.18712C338.314 7.21394 338.519 7.25684 338.904 7.23861C339.314 7.2193 339.749 7.21608 340.166 7.20107C340.396 7.19249 340.563 7.19999 340.742 7.22788C340.973 7.26328 341.235 7.29009 341.594 7.27293C341.902 7.25791 342.228 7.25469 342.542 7.24504C342.952 7.23324 342.952 7.23431 343.682 7.30082C343.766 7.30833 343.875 7.31691 343.964 7.31477C344.496 7.30189 345.021 7.2858 345.553 7.27293C345.758 7.26757 345.956 7.28151 346.097 7.31262C346.155 7.32549 346.136 7.34696 346.155 7.36519C345.098 7.39416 344.041 7.41882 342.991 7.45422C342.593 7.46817 342.414 7.42419 342.151 7.39951C342.062 7.39093 341.966 7.3727 341.882 7.37484C341.139 7.39308 340.403 7.41238 339.666 7.43598C339.435 7.44349 339.263 7.4392 339.09 7.40809C338.648 7.32549 338.109 7.37055 337.61 7.38235C337.225 7.39093 337.104 7.42419 337.149 7.49498C337.206 7.57865 337.437 7.6044 338.026 7.58938C338.237 7.58402 338.449 7.57651 338.66 7.57222C338.865 7.56793 339.051 7.58187 339.218 7.61083C339.378 7.63979 339.57 7.65481 339.768 7.65052C340.191 7.64087 340.62 7.63122 341.03 7.61513C341.37 7.60225 341.652 7.61298 341.889 7.65267C342.151 7.69665 342.459 7.68699 342.766 7.67734C343.484 7.65588 343.49 7.65696 343.939 7.7106C344.028 7.72132 344.118 7.74171 344.201 7.74064C344.938 7.72455 345.681 7.7106 346.405 7.68485C346.783 7.67198 347.001 7.7063 347.25 7.73419C347.34 7.74385 347.43 7.7653 347.513 7.76316C348.045 7.75136 348.576 7.73956 349.095 7.71917C349.339 7.70952 349.486 7.71595 349.685 7.7417C350.159 7.80499 350.171 7.80284 350.844 7.78246C351.049 7.77602 351.273 7.76423 351.465 7.77281C351.658 7.78139 351.811 7.8125 351.991 7.83181C352.074 7.84039 352.176 7.85219 352.266 7.85004C352.689 7.84146 353.112 7.82859 353.534 7.81679C353.932 7.80499 353.932 7.80607 354.675 7.87258C354.976 7.90047 355.29 7.87686 355.591 7.86828C355.918 7.85863 356.212 7.85863 356.462 7.90047C356.712 7.9423 357.013 7.94015 357.333 7.93157C357.634 7.92299 357.942 7.8994 358.249 7.92836C358.954 7.99487 358.954 7.99593 359.389 7.98305C360.024 7.96482 360.651 7.94766 361.292 7.93157C361.375 7.92942 361.484 7.9423 361.567 7.95088C361.747 7.97019 361.9 8.00236 362.093 8.00987C362.285 8.01845 362.509 8.00558 362.714 7.99915C363.374 7.97877 363.419 7.97126 363.861 8.04206C364.232 8.09998 364.693 8.01631 365.039 8.08282C365.238 8.12037 365.507 8.1504 365.878 8.13216C366.186 8.11714 366.506 8.11285 366.826 8.10427C367.332 8.09032 367.332 8.09141 367.973 8.15577C368.056 8.16435 368.165 8.17507 368.248 8.17292C368.671 8.16434 369.101 8.15684 369.511 8.13753C369.991 8.115 370.298 8.15577 370.657 8.19546C370.939 8.22657 371.272 8.20082 371.573 8.19009C371.9 8.17936 372.194 8.18258 372.438 8.22441C372.694 8.26732 372.995 8.26196 373.316 8.25338C373.617 8.24587 373.924 8.22119 374.232 8.25123C374.891 8.31774 374.891 8.31774 375.372 8.30486C375.795 8.29306 376.217 8.2802 376.64 8.27162C376.723 8.26947 376.826 8.28341 376.909 8.29307C377.088 8.31237 377.242 8.34456 377.434 8.35207C377.627 8.35958 377.851 8.34563 378.062 8.34027C378.274 8.33491 378.498 8.31882 378.69 8.32525C378.882 8.33169 379.061 8.35851 379.215 8.38211C379.395 8.41 379.561 8.41321 379.805 8.40248C380.112 8.38854 380.432 8.38532 380.746 8.37781C380.919 8.39819 381.099 8.41857 381.265 8.4411C381.438 8.4647 381.624 8.46255 381.861 8.45504C382.649 8.4293 382.655 8.43252 383.315 8.49903C383.616 8.52906 383.93 8.50439 384.231 8.49688C384.551 8.4883 384.852 8.48401 385.102 8.52692C385.346 8.56768 385.647 8.57304 385.967 8.56017C386.172 8.55158 386.39 8.54623 386.601 8.54301C386.697 8.54194 386.812 8.54623 386.883 8.55481C387.222 8.59986 387.556 8.64063 388.023 8.61167C388.433 8.62025 388.638 8.70821 389.131 8.69104C389.548 8.67603 389.983 8.6728 390.393 8.65349C390.771 8.63633 391.04 8.66637 391.232 8.70392C391.578 8.77042 392.065 8.68032 392.411 8.74575C392.61 8.7833 392.866 8.81333 393.25 8.79724C393.673 8.78008 393.808 8.8026 393.929 8.87018C394 8.90879 393.987 8.93991 393.859 8.96994C393.731 9.00105 393.59 8.99569 393.385 8.96029C393.148 8.9206 392.866 8.91308 392.526 8.92166C392.193 8.93025 391.988 8.87448 391.713 8.85302C391.437 8.8305 391.111 8.86804 390.823 8.83908C390.144 8.7715 390.144 8.7715 389.682 8.78437C389.368 8.79295 389.042 8.79724 388.734 8.81226C388.369 8.8305 388.132 8.79724 387.882 8.7672C387.793 8.75648 387.703 8.73609 387.626 8.73716C386.889 8.75325 386.146 8.76828 385.416 8.79509C385.032 8.80904 384.827 8.77042 384.571 8.74361C384.481 8.73395 384.385 8.71464 384.308 8.71679C383.674 8.73181 383.046 8.75111 382.412 8.76935C382.29 8.79831 382.155 8.8262 382.04 8.8573C381.918 8.88949 381.752 8.90344 381.509 8.90236C381.105 8.90236 380.708 8.94742 380.304 8.89057C379.888 8.83264 379.856 8.83586 379.452 8.8498C378.94 8.86804 378.395 8.86375 377.915 8.90558C377.832 8.91309 377.742 8.93346 377.742 8.94848C377.735 8.95814 377.87 8.97209 377.953 8.98067C378.235 9.00641 378.562 8.96887 378.844 8.99569C379.029 9.01285 379.183 9.03859 379.369 9.05682C379.446 9.06433 379.561 9.06327 379.664 9.06219C379.773 9.06112 379.875 9.05362 379.977 9.05469C380.074 9.05576 380.176 9.06219 380.253 9.07184C380.605 9.11261 380.977 9.15016 381.291 9.19843C381.598 9.24563 381.886 9.21345 382.194 9.2113C383.424 9.28639 383.424 9.28746 384.25 9.26386C384.455 9.2585 384.667 9.25206 384.878 9.25314C384.968 9.25314 385.051 9.27244 385.141 9.28316C385.397 9.31534 385.64 9.34431 385.999 9.32715C386.306 9.31213 386.633 9.30891 386.947 9.29926C387.37 9.28746 387.37 9.28746 388.087 9.35504C388.267 9.3722 388.459 9.37006 388.689 9.36148C388.888 9.35397 389.093 9.37006 389.234 9.40117C389.291 9.41404 389.272 9.43549 389.292 9.45373C388.657 9.47089 388.017 9.4827 387.402 9.50844C387.005 9.52453 386.825 9.4784 386.563 9.45373C386.473 9.44515 386.377 9.42692 386.294 9.42906C385.666 9.44515 385.038 9.46338 384.41 9.48483C384.334 9.48698 384.237 9.51165 384.231 9.52667C384.218 9.55456 384.378 9.58138 384.609 9.5803C384.916 9.57923 385.217 9.56099 385.493 9.60497C385.724 9.64359 386.012 9.66076 386.351 9.6436C386.556 9.63395 386.774 9.63394 386.979 9.62536C387.524 9.59961 388.017 9.60498 388.427 9.67792C388.741 9.69723 389.048 9.679 389.349 9.66934C389.573 9.66184 389.791 9.65432 389.951 9.6747C390.291 9.71761 390.624 9.76052 391.092 9.73156C391.598 9.76159 391.982 9.82488 392.405 9.87637C392.603 9.90104 392.757 9.91499 392.988 9.8989C393.084 9.89247 393.199 9.89246 393.302 9.88924C393.513 9.88388 393.737 9.86778 393.929 9.87422C394.121 9.88173 394.282 9.91284 394.455 9.93215C394.538 9.9418 394.634 9.95789 394.717 9.95682C395.037 9.95146 395.351 9.94073 395.665 9.93215C395.979 9.92464 396.293 9.91714 396.607 9.90963C396.869 9.93752 397.139 9.96541 397.401 9.9933C397.824 9.9815 398.247 9.96969 398.663 9.95897C399.131 9.9461 399.131 9.94717 399.803 10.0137C400.104 10.0437 400.425 10.0244 400.713 10.0105C401.193 9.98793 401.514 10.0287 401.853 10.0716C401.924 10.0802 402.052 10.0855 402.135 10.0813C402.468 10.0662 402.756 10.078 403 10.1177C403.173 10.1456 403.346 10.1585 403.557 10.1531C404.294 10.1328 405.03 10.1113 405.767 10.0931C405.857 10.0909 405.959 10.1006 406.043 10.1091C406.696 10.1746 406.702 10.1778 407.183 10.1606C407.612 10.1456 408.009 10.1392 408.349 10.1982C408.419 10.211 408.528 10.2293 408.605 10.2282C409.13 10.2175 409.662 10.2057 410.181 10.1875C410.418 10.1789 410.584 10.1821 410.77 10.2068C411.007 10.2379 411.219 10.2754 411.609 10.2615C412.692 10.2218 412.698 10.2282 413.979 10.3022C414.069 10.3076 414.191 10.299 414.293 10.2947C414.511 10.284 414.671 10.299 414.863 10.3237C415.292 10.3795 415.305 10.3762 415.715 10.3644C416.029 10.3548 416.356 10.3526 416.663 10.3366C417.137 10.313 417.451 10.3548 417.804 10.3945C418.085 10.4256 418.412 10.3998 418.713 10.3902C419.04 10.3795 419.335 10.3827 419.578 10.4234C419.745 10.4513 419.924 10.4664 420.135 10.461C420.872 10.4417 421.609 10.4202 422.345 10.4009C422.435 10.3988 422.544 10.4074 422.627 10.4149C423.357 10.4814 423.357 10.4846 424.081 10.4599C424.312 10.4524 424.504 10.4503 424.677 10.4728C424.844 10.4942 425.023 10.5146 425.196 10.535C425.51 10.5275 425.83 10.5254 426.138 10.5125C426.375 10.5028 426.541 10.5071 426.727 10.5297C426.97 10.5586 427.175 10.609 427.56 10.5843C427.758 10.5725 427.989 10.5758 428.187 10.565C428.424 10.5511 428.585 10.5597 428.77 10.5876C429.001 10.6208 429.238 10.6551 429.609 10.638C430.019 10.6187 430.455 10.6155 430.871 10.6004C431.102 10.5919 431.262 10.6004 431.448 10.6283C431.679 10.6637 431.941 10.6863 432.3 10.6723C433.03 10.6455 433.036 10.6509 433.747 10.7184C433.927 10.7356 434.119 10.7335 434.35 10.7249C434.548 10.7174 434.753 10.7335 434.894 10.7646C435.029 10.7989 435.016 10.8203 435.029 10.8386ZM377.947 1.16392C377.736 1.16929 377.524 1.17572 377.217 1.0824C377.197 1.06631 377.21 1.047 377.165 1.03306C377.063 1.00409 376.903 0.983715 376.711 0.980496C376.365 0.976206 375.948 1.01267 375.955 1.04056C375.961 1.06416 376.07 1.08454 376.281 1.10385C376.371 1.11136 376.442 1.12423 376.525 1.13281C376.768 1.15748 376.96 1.20576 377.313 1.18109C377.249 1.11458 377.281 1.14784 377.313 1.18109C377.281 1.22185 377.377 1.25082 377.607 1.26262C377.671 1.26583 377.768 1.26368 377.819 1.25725C378.017 1.23365 378.049 1.20147 377.902 1.11673C377.876 1.13068 377.896 1.15534 377.953 1.16178C378.011 1.16821 378.152 1.16286 378.222 1.15535C378.402 1.13497 378.491 1.10815 378.447 1.08562C378.421 1.07382 378.299 1.0588 378.222 1.0588C378.088 1.0588 377.966 1.0824 377.947 1.16392ZM429.744 13.604C429.276 13.6244 428.738 13.6169 428.271 13.6587C428.187 13.6662 428.104 13.6855 428.098 13.7005C428.091 13.7102 428.219 13.7241 428.296 13.7316C428.469 13.7488 428.661 13.7434 428.886 13.7381C429.225 13.7306 429.424 13.7799 429.686 13.8046C429.77 13.8121 429.878 13.8175 429.968 13.8153C430.487 13.8024 430.999 13.7885 431.518 13.7735C431.608 13.7703 431.704 13.7628 431.781 13.7531C432.037 13.722 432.012 13.7016 431.762 13.678C431.486 13.6523 431.269 13.6094 430.987 13.589C430.583 13.56 430.173 13.5986 429.744 13.604ZM393.366 14.3871C393.052 14.3956 392.744 14.4042 392.43 14.4128C392.328 14.416 392.219 14.4171 392.123 14.4214C391.924 14.4289 391.777 14.4514 391.681 14.4868C391.828 14.5147 392.008 14.5308 392.206 14.5276C392.52 14.5211 392.827 14.5072 393.141 14.504C393.481 14.4997 393.679 14.548 393.942 14.5726C394.025 14.5801 394.128 14.5812 394.224 14.5823C394.698 14.5866 394.986 14.5308 394.897 14.4525C394.832 14.3914 394.589 14.3549 394.294 14.3624C393.987 14.3699 393.673 14.3785 393.366 14.3871ZM431.935 12.0185C432.012 12.0003 432.095 11.9874 432.133 11.9713C432.249 11.9166 432.204 11.8759 431.992 11.833C431.736 11.7804 431.422 11.8158 431.134 11.8212C431.064 11.8222 430.987 11.8448 430.948 11.8587C430.923 11.8684 430.923 11.8888 430.961 11.8941C431.275 11.937 431.608 11.9767 431.935 12.0185ZM376.365 8.8498C376.057 8.85838 375.743 8.86482 375.436 8.87662C375.359 8.87984 375.289 8.90022 375.244 8.91416C375.16 8.93991 375.25 8.9753 375.513 8.97852C375.814 8.98281 376.128 8.96458 376.441 8.956C376.839 8.94527 377.076 8.90558 376.928 8.87125C376.787 8.838 376.595 8.83157 376.365 8.8498ZM39.1712 6.55745C39.3762 6.55209 39.5876 6.54779 39.7926 6.54028C39.9847 6.53277 40.1322 6.50917 40.2283 6.47378C40.0681 6.44589 39.8887 6.43087 39.6901 6.43409C39.3763 6.44052 39.0688 6.4491 38.7613 6.45983C38.5692 6.46627 38.3834 6.48986 38.3386 6.52634C38.2938 6.55423 38.7228 6.57032 39.1712 6.55745ZM349.275 6.39225C349.358 6.4019 349.441 6.42121 349.524 6.42121C349.729 6.42121 349.941 6.41477 350.133 6.40405C350.216 6.39976 350.28 6.38045 350.319 6.36543C350.344 6.35578 350.338 6.33862 350.3 6.33004C350.114 6.27855 349.371 6.29678 349.249 6.35578C349.236 6.36651 349.268 6.38045 349.275 6.39225ZM329.064 0.518158C329.084 0.535321 329.09 0.552482 329.116 0.569645C329.167 0.601826 329.308 0.62543 329.513 0.64152C329.673 0.614703 329.756 0.584672 329.75 0.552491C329.743 0.535328 329.724 0.518154 329.699 0.500991C329.647 0.46881 329.507 0.445219 329.302 0.429128C329.141 0.454873 329.064 0.484904 329.064 0.518158ZM446.738 14.5737C446.681 14.5877 446.623 14.6016 446.559 14.6145C446.732 14.6456 446.892 14.6552 447.014 14.6381C447.091 14.6273 447.136 14.6113 447.193 14.5973C447.02 14.5662 446.867 14.5576 446.738 14.5737ZM442.754 14.7196C442.837 14.7293 442.914 14.7421 443.004 14.7486C443.151 14.7593 443.286 14.741 443.388 14.7024C443.305 14.6928 443.228 14.6799 443.138 14.6735C442.991 14.6627 442.857 14.681 442.754 14.7196ZM445.278 14.5233C445.233 14.549 445.323 14.5705 445.56 14.5887C445.618 14.5748 445.694 14.5619 445.733 14.5469C445.797 14.5222 445.688 14.4997 445.457 14.4825C445.393 14.4954 445.336 14.5094 445.278 14.5233ZM431.755 13.3669C431.711 13.3927 431.8 13.4141 432.037 13.4324C432.095 13.4184 432.172 13.4055 432.21 13.3905C432.274 13.3659 432.165 13.3433 431.935 13.3262C431.871 13.339 431.813 13.353 431.755 13.3669ZM413.332 5.77652C413.275 5.79047 413.217 5.80441 413.153 5.81728C413.326 5.84839 413.486 5.85804 413.608 5.84088C413.685 5.83015 413.729 5.81406 413.787 5.80012C413.614 5.76901 413.46 5.76043 413.332 5.77652ZM395.684 1.74961C395.838 1.75712 395.966 1.74211 396.075 1.70242C395.992 1.69277 395.915 1.67989 395.825 1.67345C395.678 1.66273 395.544 1.68097 395.441 1.71959C395.524 1.73031 395.608 1.73996 395.684 1.74961ZM386.313 1.49753C386.255 1.51148 386.198 1.52542 386.133 1.53829C386.306 1.5694 386.467 1.57905 386.588 1.56189C386.665 1.55116 386.71 1.53507 386.768 1.52113C386.595 1.49002 386.441 1.48251 386.313 1.49753ZM322.761 0.517084C322.704 0.531029 322.646 0.544975 322.582 0.557847C322.755 0.588955 322.915 0.598606 323.037 0.581443C323.114 0.570716 323.158 0.554625 323.216 0.54068C323.043 0.509572 322.889 0.502066 322.761 0.517084ZM6.32241 9.24455C6.23914 9.23489 6.15594 9.22525 6.07907 9.21452C5.8933 9.24348 5.83567 9.2703 5.93816 9.29068C6.00222 9.30355 6.09823 9.31106 6.18151 9.32072C6.37368 9.29176 6.4185 9.266 6.32241 9.24455Z" fill="#4F9CF9"/>
</svg>
