<svg width="282" height="39" viewBox="0 0 282 39" fill="none" xmlns="http://www.w3.org/2000/svg">
<g filter="url(#filter0_d_70_2947)">
<path d="M261.795 16.382C261.419 16.4079 261.039 16.4257 260.671 16.4647C260.432 16.489 260.33 16.4177 260.17 16.3804C260.117 16.3674 260.06 16.3414 260.011 16.3447C259.639 16.3706 259.267 16.3998 258.895 16.429C258.781 16.4922 258.709 16.5765 258.534 16.6073C258.363 16.6365 258.162 16.6365 257.972 16.6511C257.722 16.6689 257.471 16.6868 257.221 16.703C257.095 16.7111 256.993 16.7419 256.951 16.8003C256.944 16.81 257.027 16.8343 257.073 16.8489C257.224 16.8976 257.372 16.9527 257.539 16.99C257.699 17.0256 257.896 16.9673 258.067 17.0127C258.451 17.1148 258.454 17.1132 258.747 17.0937C258.997 17.0759 259.248 17.0565 259.498 17.0435C259.548 17.0402 259.604 17.0646 259.658 17.0775C259.817 17.1132 259.92 17.1943 260.155 17.1635C260.333 17.1391 260.531 17.1343 260.717 17.1213C260.872 17.1683 261.017 17.2218 261.184 17.2591C261.339 17.2948 261.385 17.3224 261.301 17.3694C261.225 17.4131 261.119 17.431 260.979 17.4342C260.853 17.4358 260.728 17.4504 260.603 17.4585C260.538 17.4634 260.478 17.4667 260.417 17.4715C260.178 17.4893 260.178 17.4893 259.741 17.3856C259.57 17.345 259.377 17.4018 259.214 17.3629C259.103 17.3369 259.009 17.298 258.902 17.2705C258.857 17.2591 258.785 17.2575 258.728 17.2607C258.538 17.2721 258.348 17.2802 258.166 17.3013C258.037 17.3159 257.961 17.3613 257.976 17.4067C257.98 17.4245 258.071 17.4504 258.124 17.4521C258.245 17.4553 258.375 17.4326 258.492 17.4439C258.606 17.4553 258.724 17.4877 258.807 17.5234C258.978 17.598 259.172 17.5315 259.335 17.551C259.506 17.572 259.646 17.6369 259.809 17.6758C259.851 17.6855 259.931 17.6693 259.995 17.6644C260.181 17.6531 260.368 17.6434 260.554 17.632C260.709 17.679 260.876 17.7212 261.017 17.7747C261.271 17.872 261.544 17.9093 261.875 17.8622C262.061 17.8363 262.243 17.846 262.391 17.9093C262.543 17.9741 262.717 17.9676 262.911 17.9547C263.089 17.9417 263.271 17.906 263.454 17.9514C263.848 18.0519 263.852 18.0568 264.319 18.0179C264.46 18.0066 264.566 18.0033 264.672 18.0406C264.771 18.0746 264.877 18.1038 264.98 18.1363C265.166 18.1249 265.355 18.1136 265.541 18.1006C265.781 18.0828 265.913 18.1054 265.97 18.1962C266.005 18.2514 266.02 18.3016 266.103 18.3389C266.202 18.3843 266.308 18.3827 266.452 18.3697C266.589 18.3584 266.688 18.3405 266.745 18.2822C266.768 18.2579 266.813 18.2352 266.855 18.2157C266.889 18.2011 266.942 18.1784 266.973 18.1817C267.03 18.1881 267.105 18.206 267.124 18.227C267.31 18.4232 267.31 18.4249 267.5 18.4816C267.709 18.5448 267.925 18.6016 268.115 18.6729C268.286 18.7361 268.457 18.7086 268.643 18.7086C268.783 18.7086 268.874 18.7507 268.863 18.7929C268.855 18.8172 268.802 18.8529 268.757 18.8561C268.385 18.8885 268.009 18.9161 267.633 18.9388C267.587 18.942 267.531 18.9129 267.477 18.8983C267.371 18.8691 267.276 18.8237 267.162 18.814C267.048 18.8042 266.916 18.8286 266.79 18.8367C266.665 18.8448 266.532 18.8659 266.418 18.8529C266.304 18.8399 266.213 18.7929 266.107 18.7621C266.058 18.7475 265.989 18.7264 265.948 18.7313C265.671 18.7702 265.466 18.7167 265.268 18.6454C265.226 18.6308 265.154 18.621 265.101 18.6243C264.661 18.6518 264.224 18.6843 263.784 18.7151C263.606 18.728 263.461 18.6713 263.423 18.5756C263.404 18.5221 263.366 18.4686 263.366 18.4151C263.366 18.3178 263.158 18.2643 263.006 18.2757C262.755 18.2919 262.501 18.3049 262.254 18.3292C262.053 18.3486 261.882 18.3292 261.745 18.2708C261.586 18.2043 261.404 18.2173 261.222 18.2352C261.085 18.2481 261.047 18.3016 261.055 18.4362C261.062 18.5448 260.998 18.5789 260.751 18.5967C260.44 18.6194 260.125 18.6421 259.809 18.6599C259.76 18.6632 259.703 18.6356 259.654 18.621C259.548 18.5918 259.453 18.5448 259.339 18.5351C259.225 18.5237 259.092 18.5481 258.967 18.5578C258.841 18.5659 258.709 18.5886 258.595 18.5773C258.481 18.5659 258.386 18.5173 258.283 18.4865C258.234 18.4719 258.173 18.4508 258.124 18.454C257.873 18.467 257.623 18.4865 257.372 18.5043C257.092 18.5238 257.092 18.5238 256.693 18.4232C256.511 18.3778 256.329 18.4135 256.15 18.4265C255.96 18.4394 255.782 18.4459 255.634 18.3811C255.535 18.3389 255.425 18.313 255.307 18.3211C254.992 18.3405 254.681 18.3649 254.366 18.3843C254.313 18.3876 254.241 18.3795 254.199 18.3649C253.998 18.2968 253.8 18.2433 253.52 18.2773C253.277 18.3065 253.015 18.3081 252.772 18.3357C252.639 18.3503 252.578 18.4022 252.605 18.4427C252.62 18.4638 252.7 18.4881 252.753 18.4881C252.874 18.4897 253.007 18.4654 253.121 18.4751C253.356 18.4946 253.474 18.6308 253.781 18.5935C253.964 18.5708 254.153 18.5627 254.343 18.5562C254.393 18.5546 254.446 18.5854 254.499 18.6016C254.651 18.6454 254.784 18.7021 255.004 18.6729C255.186 18.6502 255.38 18.6437 255.566 18.6308C255.862 18.6097 255.862 18.6113 256.245 18.7102C256.427 18.7572 256.609 18.7199 256.788 18.7086C256.921 18.7005 257.046 18.6843 257.152 18.707C257.315 18.741 257.433 18.8188 257.634 18.814C257.824 18.8091 258.01 18.7864 258.2 18.7783C258.318 18.7734 258.428 18.7994 258.523 18.8432C258.621 18.8869 258.728 18.9064 258.857 18.8966C259.043 18.8837 259.232 18.8675 259.422 18.8594C259.475 18.8577 259.536 18.8723 259.586 18.8853C259.692 18.9145 259.794 18.9485 259.897 18.9793C260.083 18.9696 260.273 18.9664 260.455 18.9469C260.595 18.9323 260.694 18.9388 260.808 18.9712C260.952 19.015 261.07 19.0928 261.305 19.0556C261.423 19.0377 261.559 19.0426 261.677 19.0264C261.821 19.0053 261.92 19.0134 262.023 19.062C262.216 19.1544 262.459 19.1561 262.71 19.1204C262.983 19.0815 263.188 19.1269 263.393 19.1982C263.609 19.2728 263.609 19.2712 263.776 19.4512C263.826 19.503 263.966 19.5274 264.084 19.5176C264.281 19.5014 264.452 19.5095 264.596 19.5711C264.748 19.6376 264.93 19.6295 265.116 19.6117C265.363 19.5873 265.61 19.5663 265.811 19.6603C265.91 19.7057 266.016 19.717 266.149 19.7057C266.525 19.6765 266.904 19.6587 267.272 19.623C267.496 19.6003 267.625 19.6522 267.777 19.696C267.982 19.756 268.206 19.8095 268.206 19.9375C268.206 19.9586 268.259 19.9829 268.305 19.9992C268.404 20.0332 268.51 20.0624 268.612 20.0948C268.764 20.1435 268.912 20.184 269.121 20.158C269.303 20.137 269.497 20.1305 269.683 20.1159C269.869 20.1013 270.04 20.0932 270.207 20.1548C270.4 20.2245 270.605 20.291 270.825 20.3429C270.981 20.3802 271.186 20.3169 271.353 20.3672C271.456 20.398 271.554 20.4337 271.664 20.4596C271.71 20.471 271.782 20.4629 271.843 20.4596C271.968 20.4531 272.097 20.4483 272.219 20.4321C272.359 20.4142 272.465 20.4175 272.572 20.4548C272.67 20.4888 272.769 20.5358 272.883 20.5455C273.054 20.5601 273.244 20.4953 273.414 20.5699C273.502 20.6072 273.612 20.6428 273.726 20.6542C273.84 20.6655 273.972 20.6412 274.094 20.6428C274.147 20.6428 274.212 20.6688 274.242 20.6898C274.261 20.7012 274.234 20.732 274.208 20.7482C274.174 20.7677 274.124 20.7936 274.075 20.7969C273.699 20.826 273.323 20.8504 272.947 20.8779C272.724 20.8941 272.724 20.8941 272.272 20.792C272.165 20.7677 272.048 20.7725 271.915 20.7839C271.737 20.7985 271.554 20.826 271.368 20.7969C271.125 20.6866 270.826 20.6769 270.507 20.719C270.374 20.7369 270.252 20.7369 270.154 20.7061C269.945 20.6444 269.725 20.5877 269.539 20.5148C269.394 20.458 269.326 20.4531 269.265 20.531C269.246 20.5553 269.227 20.5812 269.231 20.6039C269.254 20.685 269.296 20.7644 269.318 20.8455C269.326 20.8682 269.296 20.8941 269.277 20.9185C269.216 20.9866 269.136 20.9817 269.003 20.9249C268.871 20.8682 268.711 20.8309 268.499 20.8568C268.316 20.8795 268.119 20.8763 267.937 20.9006C267.656 20.9363 267.458 20.8844 267.257 20.8147C267.216 20.8001 267.143 20.792 267.09 20.7952C266.525 20.8325 265.963 20.8747 265.397 20.912C265.276 20.9201 265.166 20.8958 265.071 20.852C264.972 20.8082 264.862 20.7855 264.74 20.7936C264.239 20.8277 263.738 20.8585 263.237 20.9006C263.032 20.9185 262.869 20.8974 262.729 20.8406C262.622 20.7985 262.524 20.7855 262.391 20.7904C262.246 20.7952 262.144 20.8115 262.072 20.8585C262.004 20.9039 262.053 20.9314 262.205 20.9671C262.368 21.006 262.52 21.0563 262.675 21.1017C262.801 21.0952 262.926 21.0822 263.047 21.0838C263.101 21.0838 263.15 21.113 263.203 21.1292C263.355 21.1762 263.495 21.2233 263.712 21.1973C263.894 21.1746 264.088 21.1698 264.274 21.1552C264.532 21.1373 264.532 21.1373 264.949 21.2395C265.056 21.2654 265.169 21.2638 265.306 21.2492C265.424 21.2378 265.545 21.2605 265.629 21.3092C265.663 21.3286 265.652 21.3611 265.579 21.4681C265.579 21.5475 265.659 21.5119 265.686 21.46C265.727 21.3854 265.648 21.3611 265.496 21.4016C265.39 21.4308 265.336 21.473 265.363 21.507C265.378 21.5248 265.45 21.5475 265.579 21.4681C265.914 21.3708 266.168 21.3595 266.411 21.3335C266.555 21.3189 266.646 21.3254 266.76 21.3676C266.897 21.4178 267.033 21.4713 267.257 21.4454C267.5 21.4162 267.758 21.413 268.005 21.3886C268.233 21.3659 268.351 21.4373 268.495 21.4794C268.669 21.5297 268.863 21.473 269.022 21.5021C269.189 21.5313 269.307 21.6026 269.501 21.6156C269.782 21.5718 269.96 21.6529 270.173 21.7064C270.34 21.747 270.537 21.7113 270.715 21.6934C270.917 21.674 271.084 21.6918 271.224 21.7502C271.384 21.8167 271.562 21.8021 271.744 21.7875C272.169 21.7551 272.184 21.7502 272.431 21.8394C272.61 21.9042 272.78 21.875 272.959 21.8669C273.115 21.9107 273.266 21.9577 273.43 21.9966C273.471 22.0064 273.551 21.9902 273.616 21.9853C273.802 21.9723 273.991 21.9593 274.177 21.9464C274.303 21.9383 274.436 21.9139 274.549 21.9237C274.663 21.935 274.758 21.9821 274.861 22.0129C274.963 22.0437 275.069 22.0745 275.168 22.1069C275.32 22.1555 275.464 22.1961 275.677 22.1717C275.859 22.1507 276.049 22.1442 276.239 22.1296C276.478 22.1118 276.47 22.1166 276.914 22.2139C277.153 22.2674 277.4 22.2026 277.643 22.1961C277.765 22.1928 277.882 22.2107 277.966 22.2577C278 22.2771 277.989 22.3096 278 22.3371C277.374 22.3809 276.743 22.4182 276.125 22.4717C275.886 22.4928 275.76 22.4344 275.631 22.3858C275.419 22.3079 275.138 22.4214 274.937 22.3209C274.815 22.2609 274.64 22.2269 274.432 22.2561C274.31 22.2723 274.181 22.2706 274.056 22.2852C273.737 22.3209 273.445 22.3225 273.19 22.2107C273.103 22.1717 272.978 22.1507 272.887 22.1134C272.78 22.0728 272.678 22.0501 272.553 22.0582C271.987 22.0972 271.425 22.1361 270.863 22.1782C270.814 22.1815 270.765 22.2058 270.723 22.2236C270.617 22.269 270.651 22.3047 270.822 22.3339C270.879 22.3436 270.924 22.3647 270.977 22.3809C271.08 22.4117 271.175 22.4603 271.289 22.4717C271.402 22.483 271.535 22.4603 271.661 22.4522C271.786 22.4441 271.919 22.4198 272.033 22.4295C272.147 22.4409 272.241 22.4879 272.348 22.5171C272.397 22.5317 272.458 22.556 272.507 22.5544C272.758 22.5446 273.004 22.5268 273.255 22.5122C273.411 22.556 273.543 22.6192 273.729 22.6338C273.847 22.6435 273.972 22.6257 274.094 22.629C274.147 22.6306 274.215 22.6549 274.242 22.676C274.257 22.6889 274.208 22.7214 274.17 22.7376C274.026 22.7992 273.828 22.7878 273.65 22.8073C273.456 22.8284 273.282 22.8219 273.133 22.7587C273.035 22.7165 272.925 22.6938 272.803 22.7019C272.488 22.723 272.177 22.7473 271.862 22.7652C271.809 22.7684 271.744 22.7538 271.695 22.7425C271.296 22.6436 271.296 22.6403 271.015 22.6614C270.602 22.6922 270.602 22.6922 270.324 22.6062C270.271 22.59 270.214 22.5592 270.169 22.5609C269.728 22.5868 269.292 22.6127 268.855 22.65C268.711 22.6614 268.612 22.6614 268.506 22.6192C268.415 22.5836 268.309 22.543 268.195 22.5333C268.077 22.5236 267.948 22.5479 267.823 22.556C267.698 22.5641 267.565 22.5852 267.455 22.5722C267.341 22.5592 267.242 22.5139 267.143 22.4814C267.041 22.4474 266.931 22.449 266.79 22.4619C266.358 22.4992 266.354 22.4944 265.925 22.3939C265.876 22.3825 265.811 22.3695 265.758 22.3728C265.443 22.3922 265.132 22.4166 264.816 22.436C264.695 22.4441 264.577 22.4231 264.494 22.376C264.46 22.3566 264.471 22.3241 264.448 22.2609C264.422 22.2463 264.452 22.2723 264.46 22.2966C264.516 22.2933 264.585 22.2966 264.627 22.2836C264.733 22.2528 264.786 22.2123 264.759 22.1782C264.744 22.1604 264.672 22.1377 264.627 22.1377C264.543 22.1377 264.471 22.1734 264.448 22.2609C264.209 22.3144 263.955 22.3258 263.708 22.3517C263.564 22.3679 263.473 22.3598 263.359 22.3177C263.222 22.2658 263.082 22.2155 262.858 22.2415C262.615 22.2706 262.357 22.2755 262.106 22.2982C261.818 22.3242 261.692 22.1782 261.449 22.1815C261.199 22.1847 260.948 22.2123 260.698 22.2317C260.478 22.2479 260.478 22.2479 260.022 22.1426C259.855 22.1036 259.658 22.1604 259.494 22.1199C259.384 22.0939 259.289 22.055 259.183 22.0274C259.138 22.0161 259.065 22.0161 259.009 22.0193C258.693 22.0388 258.375 22.0518 258.071 22.0874C257.725 22.1296 257.464 22.0842 257.217 21.9885C256.906 22.0064 256.59 22.0161 256.283 22.0469C256.059 22.0696 255.93 22.0161 255.778 21.9723C255.725 21.9577 255.679 21.9334 255.623 21.9269C255.566 21.9204 255.497 21.9334 255.436 21.9383C255.186 21.9561 254.928 21.9642 254.685 21.9934C254.385 22.0307 254.271 21.8977 254.04 21.8815C253.884 21.961 253.8 22.0696 253.493 22.0777C253.242 22.0842 252.992 22.1101 252.741 22.128C252.616 22.1361 252.491 22.1458 252.366 22.1539C252.164 22.1685 252.069 22.2317 252.111 22.329C252.134 22.3825 252.153 22.436 252.172 22.4895C252.21 22.5852 252.115 22.6662 251.956 22.6776C251.515 22.7084 251.079 22.7408 250.638 22.7684C250.521 22.7765 250.407 22.7489 250.312 22.7051C250.213 22.6614 250.103 22.6419 249.982 22.65C249.541 22.6808 249.105 22.7133 248.664 22.7408C248.615 22.7441 248.551 22.7279 248.501 22.7149C248.395 22.6857 248.292 22.6517 248.19 22.6209C247.939 22.6354 247.693 22.6452 247.446 22.6646C247.047 22.6938 247.047 22.6954 246.755 22.6062C246.702 22.59 246.649 22.5592 246.599 22.5609C246.41 22.5674 246.224 22.5836 246.034 22.5982C245.476 22.6403 245.476 22.6403 245.312 22.5917C245.164 22.5463 245.032 22.4911 244.808 22.5171C244.565 22.5463 244.307 22.556 244.056 22.5722C243.87 22.5836 243.684 22.5965 243.498 22.5998C243.449 22.6014 243.396 22.5706 243.342 22.5544C243.191 22.5041 243.042 22.4636 242.834 22.4911C242.712 22.5074 242.583 22.5106 242.458 22.5187C242.131 22.5414 242.131 22.5414 241.596 22.4441C241.543 22.4344 241.479 22.423 241.425 22.4279C240.985 22.4571 240.549 22.4895 240.108 22.5171C240.055 22.5203 239.991 22.5106 239.937 22.5025C239.338 22.4084 239.338 22.4085 238.7 22.4539C238.457 22.4701 238.449 22.4766 238.195 22.3906C238.081 22.3533 237.986 22.3355 237.853 22.3468C237.352 22.3858 236.847 22.4117 236.35 22.4571C236.126 22.4766 235.997 22.4279 235.845 22.3841C235.792 22.3695 235.735 22.3371 235.69 22.3387C235.189 22.3696 234.687 22.4068 234.186 22.4376C234.141 22.4409 234.084 22.4085 234.031 22.3939C233.928 22.3647 233.83 22.3209 233.716 22.3112C233.598 22.3014 233.469 22.3258 233.34 22.3339C233.025 22.355 233.025 22.3533 232.66 22.2577C232.611 22.2447 232.546 22.2269 232.497 22.2301C231.996 22.2625 231.491 22.2901 230.994 22.3371C230.709 22.3631 230.516 22.316 230.314 22.2479C230.273 22.2334 230.201 22.2269 230.147 22.2301C229.582 22.2674 229.02 22.3096 228.454 22.3468C228.337 22.3549 228.223 22.3274 228.128 22.2852C227.976 22.2188 227.798 22.2269 227.608 22.2415C227.171 22.2755 227.168 22.2739 226.909 22.1961C226.856 22.1799 226.811 22.1588 226.754 22.1507C226.701 22.1426 226.632 22.1474 226.575 22.1507C226.325 22.1669 226.074 22.1847 225.824 22.2025C225.573 22.2204 225.319 22.2301 225.072 22.2577C224.768 22.2917 224.624 22.1863 224.412 22.1377C224.1 22.1588 223.781 22.1717 223.474 22.2058C223.239 22.2317 223.129 22.1604 222.973 22.1231C222.92 22.1101 222.863 22.0826 222.814 22.0858C222.248 22.1215 221.682 22.1604 221.121 22.2042C220.984 22.2139 220.893 22.2009 220.779 22.162C220.525 22.0745 220.513 22.0777 220.088 22.1101C219.902 22.1247 219.724 22.1377 219.564 22.0712C219.424 22.0112 219.253 21.9966 219.052 22.0161C218.805 22.0404 218.551 22.0534 218.3 22.0696C218.05 22.0874 217.799 22.1117 217.548 22.1199C217.347 22.128 217.226 22.0518 217.066 22.0129C217.017 22.0015 216.949 21.9999 216.892 22.0031C216.641 22.0177 216.383 22.0291 216.14 22.0566C215.844 22.0907 215.681 22.0015 215.472 21.9496C215.427 21.9383 215.351 21.9448 215.294 21.9496C214.853 21.9788 214.417 22.0112 213.976 22.042C213.821 21.9983 213.661 21.9561 213.506 21.9123C213.255 21.9285 213.005 21.9464 212.754 21.9626C212.564 21.9756 212.371 21.9804 212.192 22.0047C211.961 22.0372 211.847 21.961 211.691 21.9237C211.638 21.9107 211.581 21.8831 211.532 21.8864C211.217 21.9042 210.902 21.9237 210.59 21.9512C210.294 21.9788 210.177 21.8329 209.934 21.8345C209.683 21.8361 209.425 21.8572 209.182 21.8864C208.901 21.9204 208.704 21.8685 208.503 21.7988C208.461 21.7842 208.389 21.7761 208.336 21.7794C208.02 21.7988 207.709 21.8232 207.394 21.8426C207.341 21.8459 207.277 21.8378 207.223 21.828C206.624 21.7324 206.624 21.7307 206.362 21.7502C206.176 21.7632 205.986 21.7794 205.796 21.7875C205.743 21.7907 205.678 21.7761 205.629 21.7632C205.234 21.6643 205.234 21.6626 204.949 21.6821C204.699 21.6999 204.448 21.7178 204.198 21.7356C204.042 21.6918 203.883 21.6497 203.727 21.6059C203.416 21.627 203.097 21.6432 202.79 21.6724C202.645 21.6853 202.55 21.6805 202.44 21.6399C202.304 21.5913 202.167 21.5346 201.939 21.5621C201.696 21.5913 201.438 21.5945 201.191 21.6189C200.895 21.6481 200.774 21.5005 200.535 21.5021C200.284 21.5038 200.026 21.5248 199.783 21.554C199.502 21.5881 199.305 21.5362 199.104 21.4665C199.062 21.4519 198.99 21.4438 198.937 21.447C198.246 21.494 197.559 21.541 196.868 21.5913C196.443 21.6221 196.443 21.6237 195.634 21.5346C195.577 21.5281 195.516 21.5216 195.459 21.5248C195.209 21.5394 194.951 21.5508 194.708 21.5783C194.412 21.6124 194.249 21.5248 194.04 21.4713C193.994 21.46 193.922 21.4665 193.861 21.4697C193.672 21.481 193.486 21.4957 193.296 21.5086C193.045 21.5265 192.795 21.5443 192.544 21.5621C192.388 21.52 192.229 21.4762 192.073 21.434C191.762 21.4551 191.443 21.4665 191.136 21.5005C190.9 21.5265 190.79 21.4584 190.635 21.4194C190.582 21.4065 190.525 21.3789 190.475 21.3805C189.91 21.4162 189.344 21.4535 188.782 21.4989C188.551 21.5183 188.444 21.4454 188.289 21.4081C188.236 21.3967 188.175 21.3757 188.126 21.3789C187.75 21.4016 187.374 21.4292 186.998 21.4567C186.786 21.4729 186.786 21.4729 186.322 21.3724C186.269 21.3611 186.209 21.3497 186.155 21.353C184.964 21.434 183.775 21.52 182.583 21.601C182.462 21.6091 182.352 21.5848 182.257 21.541C182.158 21.4973 182.048 21.4746 181.927 21.4827C181.426 21.5167 180.921 21.5475 180.423 21.5897C180.218 21.6075 180.055 21.5864 179.915 21.5297C179.808 21.4875 179.71 21.4713 179.577 21.4811C179.326 21.5005 179.076 21.5167 178.825 21.5346C178.575 21.5524 178.324 21.5702 178.074 21.5881C177.823 21.6059 177.569 21.6156 177.322 21.6432C177.018 21.6772 176.87 21.5767 176.662 21.5265C176.286 21.5508 175.91 21.5751 175.538 21.601C175.037 21.6351 174.536 21.6724 174.035 21.7048C173.989 21.708 173.932 21.6789 173.879 21.6643C173.724 21.6237 173.61 21.567 173.378 21.5848C172.254 21.6708 171.123 21.7437 169.996 21.828C169.76 21.8459 169.658 21.7761 169.499 21.7388C169.445 21.7275 169.385 21.7048 169.335 21.708C168.709 21.7486 168.083 21.794 167.456 21.8377C167.202 21.8556 167.202 21.8556 166.777 21.7551C166.727 21.7437 166.663 21.7291 166.61 21.7324C165.794 21.7875 164.981 21.8459 164.165 21.9026C164.044 21.9107 163.934 21.888 163.835 21.8442C163.74 21.8005 163.626 21.7761 163.508 21.7842C162.757 21.8361 162.001 21.8864 161.254 21.9431C161.052 21.9593 160.885 21.9448 160.741 21.8864C160.639 21.8442 160.536 21.8264 160.407 21.8361C159.28 21.9156 158.152 21.9918 157.025 22.0761C156.808 22.0923 156.657 22.0615 156.52 22.008C156.41 21.9658 156.315 21.9577 156.178 21.9642C156.034 21.9723 155.947 21.9901 155.867 22.0388C155.765 22.102 155.7 22.1815 155.457 22.1863C155.207 22.1912 154.952 22.2107 154.705 22.2382C154.47 22.2658 154.36 22.1928 154.212 22.149C154.102 22.1182 153.999 22.1134 153.859 22.128C153.73 22.1409 153.65 22.1685 153.574 22.2204C153.407 22.3306 153.392 22.3306 153.187 22.2609C153.077 22.2236 152.978 22.1944 152.857 22.2009C152.356 22.2333 151.855 22.269 151.354 22.3063C151.065 22.3274 151.061 22.3306 150.845 22.2496C150.739 22.209 150.636 22.1896 150.511 22.1993C149.133 22.2966 147.755 22.3906 146.377 22.4928C146.164 22.509 146.02 22.4749 145.868 22.4263C145.819 22.4101 145.77 22.3874 145.713 22.3809C145.656 22.3744 145.591 22.3809 145.531 22.3841C144.528 22.4538 143.522 22.5203 142.524 22.5982C142.296 22.616 142.175 22.5641 142.019 22.522C141.966 22.5074 141.92 22.4847 141.864 22.4782C141.807 22.4733 141.738 22.4847 141.678 22.4895C140.675 22.5592 139.669 22.6257 138.671 22.7035C138.432 22.7214 138.329 22.6533 138.174 22.6176C138.121 22.6046 138.064 22.5803 138.014 22.5835C137.699 22.6014 137.388 22.6257 137.073 22.6468C136.321 22.7003 135.57 22.7506 134.818 22.8057C134.53 22.8268 134.404 22.6825 134.161 22.6889C133.846 22.697 133.535 22.7295 133.22 22.7522C132.969 22.77 132.719 22.7862 132.468 22.8057C132.222 22.8235 132.222 22.8235 131.607 22.7295C131.554 22.7214 131.489 22.71 131.436 22.7133C130.559 22.7733 129.678 22.8332 128.805 22.8981C128.604 22.9127 128.437 22.9046 128.293 22.8446C128.19 22.8024 128.084 22.7814 127.959 22.7911C126.642 22.8835 125.328 22.9759 124.011 23.0667C123.962 23.07 123.897 23.0537 123.848 23.0408C123.741 23.0116 123.639 22.9776 123.536 22.9467C123.46 22.984 123.362 23.0181 123.312 23.0602C123.244 23.117 123.153 23.1332 123.009 23.1429C122.865 23.1526 122.773 23.1494 122.66 23.1073C122.523 23.0554 122.382 23.0148 122.158 23.031C120.781 23.1332 119.403 23.2256 118.025 23.3261C117.797 23.3423 117.691 23.271 117.531 23.2337C117.478 23.2224 117.417 23.2045 117.368 23.2078C116.802 23.2451 116.24 23.2856 115.675 23.3245C114.107 23.4348 112.539 23.5402 110.975 23.6569C110.691 23.678 110.497 23.6374 110.296 23.5677C110.254 23.5531 110.182 23.545 110.129 23.5483C107.935 23.7007 105.741 23.8547 103.55 24.0087C103.433 24.0168 103.319 23.9909 103.224 23.9487C103.125 23.9049 103.015 23.8839 102.894 23.892C101.892 23.9617 100.889 24.0314 99.8873 24.1028C99.6368 24.1206 99.6329 24.1222 99.3748 24.0444C99.3217 24.0282 99.2648 23.9974 99.223 24.0006C99.1357 24.0087 99.0521 24.0492 98.9914 24.1044C98.9307 24.1627 98.8358 24.1789 98.6953 24.1903C98.5511 24.2016 98.4562 24.1968 98.3461 24.1579C98.2057 24.1092 98.0766 24.0622 97.8488 24.0784C94.9676 24.286 92.0865 24.4854 89.2053 24.6913C88.9737 24.7075 88.8674 24.6394 88.708 24.6021C88.6548 24.5908 88.6017 24.5745 88.5448 24.5713C88.484 24.5681 88.4195 24.5778 88.3588 24.5827C83.6593 24.9118 78.9599 25.2425 74.2604 25.5717C73.9795 25.5911 73.9833 25.5911 73.6758 25.7403C73.6379 25.7581 73.5885 25.7824 73.5353 25.7857C72.0966 25.8894 70.6542 25.99 69.2117 26.0905C68.5854 26.1343 67.959 26.1797 67.3327 26.2218C67.1087 26.2364 67.1087 26.2364 66.5735 26.4115C66.528 26.4261 66.4748 26.4456 66.4216 26.4488C63.9162 26.6255 61.4108 26.8023 58.9017 26.9757C58.7043 26.9887 58.5449 27.0179 58.4538 27.0957C58.3892 27.1508 58.3057 27.1833 58.1805 27.193C56.4267 27.3162 54.673 27.4411 52.9155 27.561C52.7067 27.5756 52.5814 27.621 52.4789 27.6891C52.4447 27.7118 52.4143 27.7378 52.365 27.754C52.3194 27.7686 52.2511 27.7734 52.1942 27.7783C50.6909 27.8837 49.1878 27.9923 47.6807 28.0928C47.4568 28.1074 47.3656 28.1674 47.2555 28.2306C47.2176 28.2517 47.191 28.2809 47.1416 28.2955C47.0923 28.3085 47.0202 28.3085 46.9594 28.3117C45.7068 28.3993 44.4541 28.4884 43.2014 28.576C42.9585 28.5679 42.9053 28.6619 42.7876 28.7187C42.7459 28.7381 42.7156 28.7641 42.6662 28.777C42.6131 28.79 42.5447 28.7884 42.4801 28.7916C41.478 28.8613 40.4759 28.9359 39.4699 29.0008C39.2384 29.0154 39.1928 29.0981 39.0675 29.1548C39.0258 29.1726 38.9841 29.2002 38.9347 29.2051C38.3084 29.2521 37.682 29.2959 37.0557 29.338C36.8469 29.3526 36.8469 29.351 36.4787 29.5115C36.4369 29.5293 36.3876 29.5488 36.3344 29.5537C35.3968 29.6218 34.4554 29.6866 33.514 29.7531C33.3925 29.7612 33.309 29.8001 33.2483 29.8552C33.1876 29.9103 33.1003 29.946 32.9788 29.9541C32.2272 30.0076 31.4755 30.0627 30.7239 30.1114C30.5151 30.1244 30.3785 30.1649 30.2874 30.2379C30.2191 30.293 30.1355 30.3205 30.0027 30.3303C29.2511 30.3821 28.4995 30.4389 27.7441 30.4843C27.5239 30.4973 27.41 30.5524 27.3189 30.6205C27.2468 30.6756 27.1632 30.6951 27.0228 30.7048C25.6448 30.7988 24.2631 30.8929 22.889 30.9966C22.6574 31.0145 22.5397 30.9577 22.3879 30.9172C22.1715 30.8604 21.9704 30.7988 21.9704 30.6724C21.9704 30.6529 21.9058 30.6302 21.8603 30.614C21.5224 30.4924 21.5224 30.4924 21.4693 30.3627C21.4389 30.2833 21.4047 30.2022 21.3782 30.1211C21.3288 29.9882 21.2073 29.9541 20.8581 29.9784C20.7328 29.9866 20.6075 29.9979 20.4823 30.0044C20.2963 30.0157 20.1558 29.9622 20.1217 29.8649C20.1027 29.8114 20.0799 29.7579 20.061 29.7044C20.2508 29.6915 20.2469 29.6899 20.581 29.4937C20.7214 29.411 20.7215 29.411 20.452 29.3283C20.3495 29.2975 20.2507 29.2634 20.1407 29.2342C20.0913 29.2213 20.0268 29.2132 19.9736 29.2164C19.6586 29.2359 19.3473 29.2586 19.036 29.2813C18.535 29.3169 18.5349 29.3169 18.0262 29.1516C17.9845 29.1386 17.92 29.1143 17.9275 29.1013C17.9693 29.0413 18.0718 29.0154 18.2008 29.0089C18.3906 28.9991 18.5766 28.9829 18.7627 28.97C18.8879 28.9619 19.0132 28.9521 19.1385 28.944C19.2561 28.8824 19.3777 28.8224 19.4877 28.7592C19.6624 28.6619 19.6623 28.6587 19.4232 28.5906C19.2713 28.5452 19.1081 28.5046 18.9525 28.4625C18.7664 28.4755 18.5767 28.49 18.3906 28.5014C18.1553 28.516 18.0604 28.4852 17.9996 28.3798C17.9465 28.2874 18.011 28.2079 18.1932 28.1885C18.3793 28.169 18.5539 28.1561 18.6488 28.0734C18.7399 27.9939 18.8994 27.9631 19.0967 27.9566C19.222 27.9518 19.3473 27.9404 19.4726 27.9307C19.6358 27.9177 19.7231 27.835 19.6889 27.7426C19.67 27.6826 19.632 27.6324 19.4839 27.6194C18.8272 27.5627 18.8196 27.5643 18.4931 27.454C18.4628 27.4443 18.4401 27.4151 18.4514 27.4005C18.4704 27.3762 18.5122 27.3405 18.5577 27.3357C18.9943 27.3 19.4308 27.2676 19.8674 27.2433C20.0116 27.2352 20.1179 27.2238 20.1672 27.1638C20.2356 27.0811 20.2052 27.0049 20.0723 26.9482C20.0306 26.9303 19.9622 26.9076 19.9167 26.9093C19.4156 26.9384 18.9183 26.9757 18.4172 27.0049C18.3717 27.0082 18.2882 26.9806 18.2692 26.9595C18.2313 26.9206 18.2882 26.8687 18.421 26.8509C18.5957 26.8266 18.7741 26.825 18.8917 26.7439C19.055 26.6288 19.2561 26.5234 19.4384 26.4131C19.4687 26.3937 19.5181 26.3564 19.5067 26.3531C19.4118 26.3175 19.3017 26.2899 19.203 26.2559C19.036 26.1991 19.036 26.1197 19.074 26.0435C19.1043 25.9819 19.2182 25.9575 19.3587 25.9575C19.4194 25.9575 19.4953 25.9575 19.5447 25.943C19.6737 25.9073 19.7155 25.8619 19.651 25.8278C19.613 25.8084 19.5447 25.7808 19.4991 25.7841C18.6868 25.8376 17.8706 25.8894 17.062 25.9559C16.8229 25.9754 16.7129 25.9138 16.5686 25.87C16.4586 25.8359 16.356 25.823 16.2193 25.8473C16.0903 25.87 15.9651 25.857 15.8853 25.8035C15.8208 25.7597 15.9347 25.7225 16.2421 25.6803C16.2991 25.6722 16.3636 25.6673 16.4053 25.6511C16.8457 25.476 16.8457 25.4744 17.1493 25.4517C17.4454 25.4306 17.4455 25.429 17.6011 25.335C17.6733 25.2912 17.7529 25.2474 17.8212 25.202C17.8478 25.1842 17.8934 25.1517 17.8782 25.142C17.7947 25.0917 17.6808 25.0804 17.5479 25.0918C17.2519 25.1193 16.9027 25.0966 16.747 25.2506C16.6863 25.309 16.5914 25.3252 16.4547 25.335C15.0806 25.429 13.7064 25.5295 12.3284 25.6203C12.1045 25.6349 12.002 25.6949 11.9147 25.7614C11.8388 25.8165 11.7553 25.8327 11.611 25.8424C11.4668 25.8522 11.3528 25.857 11.2693 25.8035C11.22 25.7711 11.2617 25.7257 11.3756 25.6803C11.5389 25.6154 11.5085 25.5344 11.4553 25.4582C11.4174 25.4079 11.2997 25.3722 11.1744 25.3755C10.9884 25.382 10.8101 25.3998 10.6544 25.335C10.5633 25.2977 10.4494 25.2717 10.3469 25.2393C10.1495 25.1728 9.95213 25.1047 9.67502 25.1485C9.48522 25.1323 9.35236 25.0739 9.20052 25.0285C8.94619 24.9539 8.92341 24.9426 9.10562 24.8631C9.3106 24.774 9.15114 24.6572 9.26502 24.5697C9.38649 24.4756 9.55357 24.393 9.70162 24.3054C9.73958 24.2827 9.77376 24.2616 9.81172 24.2389C9.72441 24.2065 9.64471 24.166 9.54222 24.1433C9.40935 24.1141 9.34102 24.0784 9.34861 23.9779C9.32204 23.9633 9.33335 24.0006 9.36372 24.0103C9.39789 24.0201 9.48146 24.012 9.52322 24.0006C9.62951 23.9698 9.68259 23.9293 9.65602 23.8952C9.64084 23.8774 9.56877 23.8547 9.52322 23.8547C9.4397 23.8547 9.36759 23.8904 9.34482 23.9779C8.91966 24.0444 8.47925 24.0768 8.03892 24.1028C7.99336 24.106 7.93646 24.0736 7.88331 24.0574C7.7087 24.0022 7.70867 24.0038 7.19621 23.9876C7.14307 23.986 7.07098 23.9633 7.04441 23.9406C6.93432 23.8417 6.93815 23.7331 6.88501 23.6277C6.9837 23.5596 7.08232 23.4931 7.18481 23.4267C7.3898 23.2921 7.65558 23.1737 7.81501 23.0262C7.78085 22.9467 7.73529 22.8673 7.90231 22.8024C8.37681 22.7214 8.37305 22.7214 8.50211 22.6436C8.87032 22.4231 9.23472 22.2009 9.61812 21.9837C9.72061 21.9269 9.72062 21.8961 9.53842 21.8718C9.48148 21.8653 9.42066 21.8637 9.35992 21.8669C9.17012 21.8783 8.98032 21.9075 8.79432 21.901C8.60831 21.8961 8.47166 21.8248 8.31982 21.781C8.16418 21.7356 8.00855 21.6886 7.85292 21.6416C7.6745 21.6464 7.49612 21.6918 7.31771 21.6189C7.18105 21.5621 7.01025 21.5216 6.85461 21.4746C6.97229 21.3513 7.19249 21.2573 7.36331 21.1487C7.51894 21.0498 7.52266 21.0514 7.94022 20.9752C8.13761 20.9395 8.20594 20.7563 8.03892 20.7028C7.83773 20.638 7.6252 20.578 7.42021 20.5164C7.2418 20.5212 7.05963 20.565 6.88881 20.4921C6.75595 20.4369 6.60408 20.3996 6.38391 20.4207C6.0119 20.4564 5.63231 20.4742 5.2565 20.5034C5.12744 20.5131 4.98694 20.5066 4.93 20.4515C4.89204 20.4126 5.00214 20.3591 5.1274 20.3477C5.31721 20.3315 5.48801 20.3121 5.58291 20.231C5.67401 20.15 5.84102 20.1256 6.03841 20.1143C6.09155 20.111 6.15234 20.0916 6.17891 20.0721C6.31556 19.9781 6.46742 19.897 6.75971 19.9003C6.88118 19.8678 6.94567 19.8273 6.90771 19.7884C6.88494 19.7673 6.80526 19.7398 6.75971 19.743C6.44464 19.7592 6.12958 19.7754 5.8221 19.8046C5.67786 19.8176 5.56771 19.8208 5.47661 19.7722C5.41208 19.7397 5.44624 19.696 5.56771 19.6489C5.674 19.6084 5.7044 19.5614 5.69681 19.5063C5.67783 19.3782 5.56392 19.3409 5.19951 19.349C4.93758 19.3555 4.87305 19.3344 4.81611 19.2242C4.80092 19.1982 4.76303 19.1626 4.7896 19.1447C4.95283 19.0345 5.05912 18.8983 5.3666 18.8464C5.48807 18.8269 5.61709 18.8269 5.69301 18.7848C5.76893 18.7426 5.83729 18.694 5.917 18.6535C6.0157 18.6048 6.08396 18.5594 6.03841 18.5286C5.96249 18.4735 5.84106 18.4686 5.70061 18.4881C5.57913 18.5043 5.45007 18.5059 5.3248 18.5156C5.10084 18.5335 4.91867 18.4913 4.8921 18.42C4.81998 18.2319 4.74403 18.0455 4.6795 17.8574C4.67191 17.8347 4.69084 17.8055 4.72121 17.786C4.82749 17.7179 4.94142 17.6531 5.0515 17.5866C5.18057 17.5104 5.38559 17.525 5.5602 17.5104C5.80694 17.4893 5.80686 17.491 6.13711 17.3353C6.26618 17.2737 6.49015 17.298 6.62301 17.2429C6.66477 17.2251 6.7293 17.1959 6.71791 17.1797C6.70273 17.1586 6.62685 17.1424 6.56991 17.1326C6.51676 17.1229 6.45225 17.1181 6.39531 17.1229C5.70443 17.1699 5.01737 17.2202 4.3265 17.2656C4.20882 17.2737 4.07975 17.238 4.038 17.1878C3.99624 17.1408 4.00759 17.084 4 17.0305C4.11008 16.964 4.2353 16.9024 4.3302 16.8311C4.40233 16.776 4.48586 16.7516 4.6301 16.7484C4.81991 16.7435 5.00593 16.7241 5.21851 16.7095C5.61329 16.4728 6.00046 16.2247 6.42561 15.988C6.59643 15.8923 6.55474 15.795 6.58891 15.6929C6.62307 15.5989 6.87739 15.6135 7.04821 15.5859C7.18487 15.5632 7.23036 15.5113 7.17721 15.4756C7.14685 15.4546 7.07855 15.4302 7.02541 15.4302C6.90014 15.4302 6.77488 15.4448 6.64961 15.4529C6.52434 15.4611 6.3801 15.4562 6.27761 15.4838C6.17891 15.5097 6.11434 15.5648 6.04981 15.6118C5.97769 15.6637 5.88285 15.6816 5.7386 15.6848C5.5526 15.688 5.36661 15.7026 5.1806 15.714C4.97562 15.6507 4.76299 15.5891 4.5656 15.5227C4.52764 15.5097 4.52001 15.4724 4.52381 15.4481C4.5314 15.3849 4.47447 15.3459 4.3492 15.3151C4.24292 15.2892 4.1556 15.2519 4.0569 15.2195C4.13282 15.1757 4.21637 15.1335 4.2771 15.0865C4.40996 14.9876 4.57701 14.9163 4.8655 14.9195C4.97938 14.8563 5.07046 14.7785 5.21851 14.7347C5.35896 14.6926 5.59812 14.7347 5.70441 14.639C5.75755 14.592 5.83731 14.5385 5.9398 14.5191C6.10303 14.4883 6.3156 14.5045 6.41051 14.4137C6.46745 14.3618 6.55092 14.3148 6.66101 14.3018C6.78628 14.2872 6.91531 14.284 7.00641 14.2532C7.05576 14.237 7.10891 14.211 7.10891 14.1883C7.10891 14.1737 7.03305 14.151 6.97991 14.1413C6.93056 14.1299 6.86595 14.1218 6.80901 14.1251C6.61921 14.1348 6.43321 14.1526 6.24341 14.1624C6.19027 14.1656 6.12955 14.1543 6.07261 14.1445C5.90558 14.1186 5.91695 14.0862 6.04981 14.0278C6.18267 13.9711 6.27762 13.8981 6.38771 13.8316C6.50918 13.8203 6.661 13.8251 6.74451 13.7943C6.88496 13.7441 6.98363 13.6711 7.09751 13.6079C7.22278 13.5981 7.35184 13.5949 7.46951 13.5771C7.51886 13.5706 7.54166 13.5349 7.58341 13.5138C7.65933 13.4733 7.72392 13.4149 7.82641 13.3955C7.99343 13.3663 8.19842 13.3777 8.29711 13.2885C8.35405 13.2366 8.44133 13.1815 8.54762 13.1782C8.8437 13.1718 8.96898 13.0826 9.12082 12.9983C9.2347 12.935 9.47765 12.9675 9.60292 12.9042C9.68643 12.8637 9.7472 12.8134 9.83072 12.7745C9.86488 12.7583 9.93698 12.7502 9.99392 12.7453C10.3052 12.721 10.6202 12.7032 10.9315 12.6772C10.9809 12.6724 11.0265 12.6481 11.0644 12.6286C11.1441 12.5865 11.1934 12.5281 11.2921 12.5005C11.3908 12.473 11.5313 12.473 11.6527 12.4649C12.0437 12.4405 12.0741 12.447 12.2525 12.3092C12.3968 12.1973 12.7498 12.2768 12.8675 12.1535C12.9359 12.0822 13.0611 12.0238 13.285 12.0157C13.6001 12.0044 13.9114 11.9736 14.2264 11.9525C14.5073 11.933 14.5036 11.933 14.8072 11.7823C14.9439 11.7142 15.1451 11.7239 15.3235 11.7109C15.5133 11.698 15.6879 11.6785 15.779 11.5974C15.8701 11.518 16.0371 11.492 16.2307 11.4807C16.4092 11.4693 16.6104 11.4775 16.7508 11.4126C17.0925 11.257 17.0887 11.2553 17.3278 11.2391C17.7036 11.2132 18.0794 11.1872 18.4552 11.1597C18.7058 11.1418 18.9677 11.1386 19.203 11.1029C19.3739 11.077 19.4498 10.9862 19.5599 10.923C19.8711 10.8986 20.1824 10.8743 20.4937 10.8516C20.9302 10.8192 21.3705 10.79 21.8109 10.7592C22.0007 10.6976 22.0273 10.5614 22.3462 10.5549C22.536 10.5517 22.722 10.5306 22.9118 10.5176C23.2268 10.4949 23.5381 10.4657 23.8532 10.4544C24.0923 10.4463 24.134 10.3587 24.2593 10.3036C24.301 10.2842 24.339 10.2566 24.3884 10.2517C24.8818 10.2063 25.3905 10.1966 25.8726 10.1301C25.9219 10.1236 25.9675 10.0896 25.9789 10.0653C25.9865 10.0523 25.9219 10.028 25.8802 10.0166C25.8308 10.0037 25.7663 9.9907 25.7132 9.99395C24.1454 10.1026 22.5777 10.2128 21.01 10.3215C20.7898 10.3377 20.7898 10.336 20.2546 10.5144C20.209 10.529 20.1558 10.5452 20.0989 10.5501C19.8483 10.5695 19.594 10.5809 19.3473 10.6052C19.1461 10.6246 18.9791 10.6052 18.8348 10.5468C18.7324 10.5047 18.626 10.4917 18.4969 10.4949C18.3527 10.4998 18.2579 10.5176 18.1743 10.5614C18.0643 10.6214 18.0073 10.6992 17.7757 10.7154C16.7091 10.7851 15.6423 10.863 14.5794 10.9376C14.4314 10.9149 14.3593 10.8808 14.3972 10.8403C14.42 10.816 14.4656 10.7835 14.5111 10.7803C14.9477 10.7462 15.388 10.7171 15.8245 10.6846C15.8853 10.6798 15.9688 10.683 16.0029 10.6668C16.17 10.5938 16.2308 10.4755 16.5458 10.4674C16.728 10.4625 16.914 10.4382 17.0886 10.4155C17.138 10.409 17.1836 10.375 17.1949 10.3506C17.1987 10.3377 17.138 10.3133 17.0924 10.302C16.9254 10.255 16.7319 10.3117 16.5648 10.2793C16.5079 10.268 16.4281 10.2517 16.4167 10.2323C16.4092 10.2144 16.4737 10.1853 16.5192 10.1674C16.561 10.1512 16.6179 10.1366 16.6748 10.1318C17.1759 10.0945 17.6771 10.0556 18.1781 10.0264C18.3831 10.015 18.5273 9.97448 18.6184 9.8999C18.6868 9.84477 18.7703 9.8156 18.8993 9.80749C19.7762 9.7475 20.6531 9.68103 21.5338 9.6259C21.7539 9.61293 21.8679 9.55943 21.959 9.48972C22.0311 9.43459 22.1146 9.41513 22.2551 9.4054C23.5115 9.3211 24.7604 9.22706 26.0169 9.146C26.2484 9.1314 26.3168 9.06168 26.4345 9.0017C26.4762 8.98062 26.5027 8.95468 26.5559 8.94171C26.609 8.92874 26.6773 8.93034 26.7419 8.9271C27.744 8.85738 28.7462 8.78282 29.7522 8.71796C29.9875 8.70337 30.033 8.62229 30.1545 8.56555C30.1962 8.54771 30.2342 8.51854 30.2836 8.51367C31.0352 8.45855 31.7868 8.40667 32.5384 8.35316C33.0395 8.31749 33.5405 8.28182 34.0416 8.24777C34.2883 8.23156 34.2884 8.22993 34.6224 8.0759C34.6604 8.05807 34.7136 8.03699 34.7629 8.03212C36.2054 7.92836 37.644 7.82948 39.0865 7.72733C39.208 7.71923 39.2953 7.68192 39.356 7.62679C39.4168 7.57167 39.5041 7.53438 39.6218 7.52627C40.7492 7.4452 41.8766 7.36577 43.0078 7.28956C43.2128 7.27659 43.357 7.23768 43.4481 7.16472C43.5165 7.10959 43.6 7.08042 43.729 7.07231C44.8564 6.99449 45.9839 6.91179 47.1151 6.83721C47.3315 6.82261 47.4378 6.7675 47.544 6.70264C47.582 6.67994 47.6124 6.64265 47.6579 6.63941C48.2198 6.59401 48.7777 6.54699 49.3433 6.51619C49.5787 6.50321 49.6584 6.43512 49.7533 6.37026C49.8293 6.31838 49.9166 6.30055 50.0608 6.29406C50.3759 6.27947 50.6872 6.25192 50.9947 6.22436C51.0402 6.21949 51.0972 6.18382 51.101 6.16112C51.1085 6.11897 51.0212 6.08978 50.877 6.07519C49.3737 6.18058 47.8668 6.28595 46.3635 6.39134C46.1168 6.40917 46.1168 6.40918 45.7827 6.56321C45.7448 6.58105 45.6916 6.60213 45.6384 6.60699C44.196 6.70913 42.7573 6.80966 41.3148 6.9118C41.1933 6.91991 41.1061 6.9572 41.0453 7.01232C40.9846 7.06745 40.8972 7.10474 40.7795 7.11284C39.4016 7.21012 38.0237 7.30903 36.6419 7.40144C36.4369 7.41442 36.2927 7.45169 36.2016 7.52627C36.1333 7.5814 36.0498 7.61059 35.9207 7.6187C34.6035 7.70949 33.29 7.80514 31.969 7.89269C31.8361 7.9008 31.7375 7.85378 31.7451 7.81C31.7489 7.7873 31.8057 7.75003 31.8513 7.74679C32.5384 7.69328 33.2217 7.63815 33.9126 7.59762C34.1442 7.58465 34.2124 7.51331 34.3301 7.45332C34.3681 7.43224 34.3985 7.40468 34.4478 7.39333C34.5009 7.38036 34.5693 7.38199 34.6338 7.37874C36.2623 7.26363 37.8908 7.1469 39.5231 7.03827C39.7585 7.02206 39.8039 6.9426 39.9254 6.88585C39.9672 6.8664 40.0052 6.83722 40.0545 6.83398C40.5556 6.79507 41.0567 6.76101 41.5577 6.72697C42.4346 6.66536 43.3115 6.60374 44.1921 6.54213C44.4465 6.5243 44.4465 6.52429 44.7729 6.37188C44.8109 6.35405 44.8641 6.33137 44.9134 6.32813C47.2328 6.16437 49.5522 6.00061 51.8716 5.83848C51.993 5.83037 52.0803 5.79308 52.1411 5.73796C52.2018 5.68446 52.2891 5.64554 52.4068 5.63582C55.5423 5.41531 58.674 5.1948 61.8095 4.97755C62.0145 4.96295 62.1587 4.9289 62.2498 4.8527C62.3143 4.79758 62.4016 4.7684 62.5307 4.75867C65.9775 4.51709 69.4242 4.27552 72.8748 4.03232C75.1942 3.87019 77.5136 3.70481 79.8329 3.54592C80.0455 3.53133 80.1594 3.48106 80.2657 3.41458C80.2998 3.39188 80.334 3.35459 80.3795 3.35135C80.8768 3.31082 81.3741 3.27353 81.8714 3.23624C82.027 3.28002 82.1826 3.32218 82.3383 3.36595C82.4559 3.30434 82.5699 3.24111 82.6876 3.1795C83.4392 3.13248 84.1794 3.05952 84.9386 3.03682C84.9879 3.0352 85.041 3.06601 85.0942 3.08222C85.4472 3.18437 85.6484 3.17626 85.8724 3.04007C85.9521 2.99143 86.0204 2.94765 86.1419 2.93954C86.5177 2.91036 86.8974 2.8909 87.2694 2.85686C87.4706 2.83902 87.6375 2.85523 87.7818 2.9136C87.8843 2.95575 87.9906 2.9736 88.1159 2.96387C88.8067 2.91523 89.4938 2.8682 90.1847 2.81632C90.234 2.81308 90.2795 2.78551 90.3175 2.76605C90.3972 2.7239 90.4656 2.67851 90.5415 2.63473C90.644 2.6623 90.7579 2.68338 90.8414 2.71905C90.9477 2.7612 91.0463 2.76119 91.1906 2.74984C93.9465 2.55366 96.7062 2.36235 99.4621 2.16454C99.6975 2.14833 99.8 2.21643 99.9594 2.2521C100.013 2.26507 100.066 2.28128 100.123 2.28452C100.183 2.28776 100.248 2.27804 100.309 2.27318C102.377 2.12726 104.446 1.98295 106.515 1.83703C106.788 1.81758 106.788 1.81758 107.195 1.9181C107.244 1.93107 107.308 1.94566 107.362 1.9408C108.303 1.87757 109.244 1.80948 110.182 1.74463C110.304 1.73652 110.406 1.76246 110.516 1.79975C110.733 1.87271 110.748 1.87271 110.907 1.7657C110.983 1.71544 111.063 1.68462 111.188 1.67003C111.325 1.65382 111.435 1.6587 111.541 1.68788C111.693 1.72842 111.803 1.7965 112.035 1.77867C113.037 1.70247 114.043 1.63924 115.041 1.56142C115.269 1.54358 115.39 1.5987 115.542 1.63924C115.595 1.65383 115.645 1.67653 115.701 1.68139C115.758 1.68626 115.827 1.6749 115.887 1.67003C117.14 1.58248 118.397 1.49657 119.645 1.40253C119.881 1.38469 119.983 1.4544 120.143 1.49007C120.196 1.50304 120.257 1.52575 120.306 1.5225C121.058 1.47224 121.813 1.41872 122.565 1.36522C122.834 1.34576 122.834 1.34739 123.244 1.44629C123.293 1.45926 123.358 1.47223 123.411 1.46899C124.288 1.409 125.169 1.34739 126.046 1.28578C126.315 1.26632 126.315 1.26633 127.093 1.35063C127.15 1.35712 127.211 1.36686 127.268 1.36362C128.27 1.2939 129.276 1.2258 130.278 1.15121C130.479 1.13662 130.646 1.14959 130.791 1.20796C130.893 1.25011 130.999 1.26796 131.125 1.25823C132.252 1.17878 133.383 1.10258 134.507 1.01827C134.723 1.00206 134.864 1.03772 135.016 1.08473C135.065 1.10095 135.114 1.12365 135.171 1.13014C135.228 1.13662 135.293 1.13013 135.353 1.12527C136.481 1.04582 137.612 0.971244 138.736 0.885314C138.963 0.867479 139.085 0.922601 139.237 0.963135C139.29 0.977727 139.347 1.00691 139.392 1.00529C139.833 0.977728 140.273 0.953417 140.71 0.912884C140.945 0.890185 141.047 0.964753 141.207 1.00042C141.26 1.01177 141.321 1.0361 141.37 1.03286C142.311 0.969629 143.253 0.903159 144.191 0.835063C144.323 0.825335 144.422 0.839914 144.528 0.882068C144.669 0.938815 144.832 0.961514 145.037 0.943679C145.474 0.906389 145.914 0.880455 146.354 0.849649C146.612 0.831815 146.612 0.83182 147.402 0.91613C147.459 0.922615 147.52 0.932336 147.577 0.929093C148.328 0.87721 149.084 0.826953 149.831 0.770206C150.033 0.753993 150.2 0.768581 150.344 0.826949C150.446 0.869103 150.549 0.886947 150.678 0.877219C151.369 0.828579 152.056 0.779936 152.747 0.731296C152.997 0.713461 153.248 0.682648 153.498 0.682648C153.681 0.684269 153.813 0.76209 153.977 0.801002C154.022 0.812351 154.098 0.799395 154.159 0.796153C155.036 0.734542 155.916 0.67779 156.79 0.608073C157.017 0.590238 157.139 0.645361 157.291 0.685894C157.344 0.700486 157.401 0.729671 157.446 0.72805C157.761 0.710215 158.073 0.685893 158.388 0.664816C158.763 0.638874 159.143 0.619418 159.515 0.583749C159.819 0.554565 159.933 0.695616 160.176 0.70048C160.362 0.705344 160.551 0.677786 160.737 0.664816C161.113 0.638874 161.489 0.609694 161.865 0.586995C161.998 0.578888 162.1 0.552936 162.142 0.494568C162.15 0.483219 162.085 0.458909 162.043 0.444317C161.538 0.278942 161.538 0.278934 161.03 0.314603C160.715 0.337302 160.403 0.360004 160.088 0.37946C160.035 0.382703 159.974 0.369733 159.921 0.360005C159.769 0.332442 159.785 0.300019 159.914 0.241651C160.043 0.183283 160.141 0.111951 160.251 0.0454768C160.407 0.0876313 160.559 0.129771 160.715 0.171925C160.84 0.163819 160.965 0.154105 161.09 0.145998C161.717 0.103844 162.343 0.0600648 162.969 0.0211529C163.015 0.0179102 163.072 0.0503415 163.125 0.0665548C163.277 0.113573 163.414 0.154096 163.634 0.136261C164.196 0.0892423 164.761 0.0551944 165.323 0.0146612C165.57 -0.00317339 165.57 -0.00317181 166.002 0.0973506C166.052 0.1087 166.116 0.121671 166.169 0.118429C166.735 0.0811381 167.297 0.0406096 167.862 0.00169772C167.984 -0.00640893 168.102 0.0146676 168.189 0.0616861C168.223 0.081142 168.215 0.113562 168.36 0.37946C168.808 0.595097 169.115 0.572409 169.426 0.552953C169.559 0.544847 169.677 0.536732 169.764 0.504306C169.81 0.486471 169.867 0.460526 169.867 0.439449C169.867 0.423235 169.783 0.397289 169.73 0.394047C169.354 0.36162 168.997 0.429725 168.629 0.444317C168.458 0.450803 168.31 0.394055 168.28 0.30164C168.272 0.275698 168.261 0.248137 168.25 0.222196C168.238 0.196255 168.231 0.168694 168.219 0.142753C168.071 0.134646 167.984 0.163825 167.919 0.21895C167.866 0.264347 167.79 0.31623 167.688 0.34055C167.585 0.366491 167.445 0.361636 167.32 0.369743C167.198 0.377849 167.065 0.398924 166.951 0.387575C166.838 0.374604 166.746 0.327578 166.64 0.298394C166.591 0.283802 166.53 0.262732 166.481 0.265975C166.044 0.293538 165.611 0.32109 165.179 0.356759C164.951 0.376215 164.837 0.30813 164.693 0.265975C164.579 0.233549 164.465 0.241645 164.446 0.316226C164.397 0.494572 164.571 0.569149 164.959 0.535101C165.277 0.505917 165.566 0.501069 165.816 0.611319C165.851 0.625911 165.93 0.632394 165.98 0.629151C166.291 0.609695 166.598 0.585373 166.91 0.565917C166.967 0.562674 167.027 0.569149 167.081 0.575635C167.855 0.663186 167.855 0.664816 168.117 0.64536C168.242 0.635633 168.364 0.627525 168.352 0.381083C168.591 0.116807 168.971 0.0989751 169.339 0.0600632C169.578 0.0357432 169.681 0.107085 169.836 0.144375C169.889 0.157346 169.946 0.183283 169.996 0.18004C170.812 0.126536 171.624 0.0697816 172.437 0.00979248C172.573 6.45124e-05 172.672 0.00979407 172.778 0.0519486C172.915 0.105452 173.067 0.139508 173.283 0.120052C173.716 0.0811397 174.156 0.0568253 174.597 0.0243987C174.821 0.00818541 174.821 0.00816878 175.272 0.108691C175.322 0.12004 175.386 0.133012 175.439 0.129769C175.88 0.102207 176.316 0.068169 176.753 0.0389851C176.874 0.0308785 176.984 0.0535747 177.079 0.0973506C177.174 0.141126 177.288 0.163823 177.406 0.155716C177.846 0.126532 178.283 0.0941158 178.719 0.0649319C178.772 0.0616893 178.837 0.0730378 178.886 0.0843871C179.349 0.184909 179.349 0.184893 179.562 0.16868C179.873 0.14436 180.192 0.133023 180.499 0.100596C180.799 0.0681698 180.955 0.162199 181.16 0.214081C181.722 0.176791 182.287 0.145994 182.845 0.100596C183.073 0.0811405 183.195 0.13464 183.346 0.176794C183.4 0.191386 183.453 0.222194 183.502 0.220573C183.692 0.214088 183.878 0.196256 184.064 0.183286C184.25 0.170315 184.44 0.157346 184.626 0.144375C184.838 0.191394 184.979 0.301643 185.282 0.264352C185.465 0.241654 185.658 0.23679 185.844 0.223819C186.03 0.210848 186.22 0.197879 186.406 0.184909C186.531 0.176802 186.66 0.171931 186.782 0.157339C187.006 0.133019 187.116 0.212474 187.275 0.248143C187.328 0.259492 187.389 0.278935 187.439 0.275693C187.814 0.252994 188.194 0.23354 188.562 0.196249C188.847 0.167065 189.04 0.215712 189.242 0.283807C189.283 0.298399 189.355 0.306505 189.409 0.303262C189.849 0.2757 190.285 0.241642 190.722 0.212459C190.84 0.204352 190.954 0.230292 191.049 0.272447C191.147 0.316223 191.257 0.337316 191.379 0.329209C191.815 0.300025 192.256 0.267589 192.692 0.238405C192.745 0.235163 192.81 0.248136 192.859 0.261106C193.284 0.361629 193.284 0.363252 193.535 0.343796C193.596 0.338932 193.66 0.335676 193.721 0.330812C194.032 0.308114 194.355 0.300018 194.659 0.261106C195.008 0.21733 195.262 0.272458 195.509 0.364874C195.82 0.345418 196.139 0.334066 196.443 0.30164C196.67 0.27732 196.792 0.338927 196.944 0.37946C196.997 0.394052 197.054 0.423236 197.099 0.419993C197.54 0.392431 197.98 0.36812 198.413 0.327586C198.648 0.304888 198.751 0.377834 198.91 0.415125C198.963 0.428095 199.02 0.450806 199.069 0.447563C199.32 0.434592 199.571 0.415127 199.821 0.397292C200.113 0.376215 200.113 0.377835 200.501 0.476736C200.683 0.523754 200.865 0.486462 201.043 0.475113C201.233 0.462142 201.412 0.452418 201.563 0.518892C201.658 0.561047 201.772 0.586989 201.89 0.580503C202.14 0.565911 202.395 0.551327 202.642 0.527007C202.839 0.507551 203.01 0.520514 203.154 0.580503C203.256 0.622658 203.363 0.643748 203.488 0.63402C204.05 0.595108 204.615 0.55456 205.177 0.517269C205.227 0.514027 205.295 0.528624 205.34 0.543216C205.447 0.5724 205.549 0.604819 205.652 0.637246C205.898 0.622654 206.153 0.616185 206.396 0.593487C206.654 0.570788 206.889 0.562679 207.09 0.651852C207.132 0.671308 207.193 0.698856 207.242 0.697234C207.432 0.690749 207.618 0.67454 207.804 0.66157C207.99 0.648599 208.18 0.63563 208.366 0.62266C208.582 0.663193 208.719 0.779927 209.023 0.742636C209.205 0.719938 209.398 0.715074 209.584 0.702103C209.77 0.689132 209.96 0.674542 210.146 0.663193C210.207 0.65995 210.275 0.651839 210.328 0.658324C210.385 0.664809 210.435 0.687513 210.484 0.703726C210.636 0.750745 210.776 0.797769 210.993 0.770206C211.175 0.747507 211.369 0.742642 211.555 0.72805C211.809 0.710215 211.809 0.710218 212.23 0.812362C212.401 0.854517 212.595 0.799394 212.758 0.835063C212.868 0.859383 212.963 0.899908 213.069 0.92747C213.115 0.938819 213.187 0.943676 213.24 0.940434C213.491 0.925842 213.745 0.911257 213.992 0.886937C214.193 0.867481 214.36 0.886935 214.5 0.945302C214.603 0.987457 214.705 1.0053 214.834 0.995573C215.461 0.950176 216.087 0.911251 216.71 0.86099C216.922 0.843156 217.093 0.870725 217.211 0.929093C217.412 1.02962 217.697 0.911261 217.905 0.992327C218.034 1.04259 218.163 1.10096 218.399 1.07664C218.832 1.03448 219.272 1.01177 219.708 0.98259C219.864 1.02637 220.02 1.07015 220.179 1.11393C220.43 1.09609 220.68 1.07825 220.931 1.06203C221.117 1.04906 221.307 1.03447 221.493 1.02312C221.553 1.01988 221.618 1.01339 221.675 1.0215C221.732 1.02961 221.777 1.05069 221.83 1.0669C222.092 1.14635 222.092 1.14798 222.525 1.11555C222.711 1.10096 222.889 1.09123 223.045 1.15608C223.189 1.21607 223.36 1.22741 223.558 1.20958C223.93 1.17715 224.305 1.15283 224.685 1.13014C224.803 1.12203 224.913 1.14959 225.011 1.19175C225.159 1.25822 225.342 1.25174 225.528 1.2339C225.774 1.21121 226.017 1.18851 226.226 1.27931C226.268 1.29876 226.332 1.32631 226.378 1.32469C226.689 1.31172 227.004 1.302 227.308 1.27119C227.612 1.24039 227.76 1.3409 227.969 1.38954C228.28 1.36847 228.595 1.34739 228.906 1.32631C228.967 1.32145 229.039 1.30686 229.092 1.31497C229.316 1.34902 229.445 1.47061 229.753 1.43332C229.931 1.41225 230.125 1.40577 230.311 1.40091C230.36 1.39928 230.425 1.42683 230.459 1.44791C230.478 1.45926 230.459 1.49006 230.436 1.50628C230.368 1.55167 230.284 1.59384 230.223 1.64086C230.216 1.64734 230.288 1.67652 230.33 1.68949C230.432 1.71867 230.55 1.71382 230.686 1.70085C230.804 1.6895 230.926 1.7122 231.009 1.76084C231.043 1.78029 231.032 1.81271 230.96 1.91972C230.96 1.99917 231.039 1.96349 231.066 1.91161C231.108 1.83703 231.028 1.81271 230.876 1.85324C230.77 1.88243 230.717 1.92458 230.743 1.95863C230.759 1.97647 230.831 1.99917 230.96 1.91972C231.294 1.82244 231.544 1.80462 231.795 1.78678C231.859 1.78192 231.935 1.76569 231.981 1.77542C232.144 1.81433 232.296 1.86136 232.455 1.90514C232.638 1.89541 232.808 1.87108 232.987 1.93431C233.237 2.02348 233.249 2.01538 233.492 1.99754C233.617 1.98782 233.742 1.97972 233.868 1.97162C233.993 1.96351 234.091 1.98782 234.202 2.02511C234.426 2.10132 234.445 2.10131 234.593 1.99754C234.68 1.93431 234.741 1.91324 234.851 1.94242C235.215 2.04132 235.219 2.04781 235.53 2.01862C235.788 1.9943 236.031 1.98782 236.221 2.08023C236.35 2.14509 236.392 2.1305 236.494 2.0624C236.768 1.88243 236.893 1.88567 237.405 2.01538C237.645 2.07699 237.891 2.01052 238.134 2.00241C238.339 1.99593 238.483 2.03483 238.499 2.13698C238.51 2.20021 238.544 2.24561 238.681 2.26669C238.734 2.2748 238.799 2.28614 238.852 2.2829C239.167 2.26344 239.478 2.24074 239.793 2.21804C239.952 2.20669 240.04 2.1305 240.009 2.02998C239.975 1.92297 240.036 1.88405 240.264 1.85324C240.4 1.83541 240.511 1.83866 240.621 1.86785C240.742 1.90028 240.708 1.92946 240.602 1.98783C240.347 2.1305 240.378 2.21804 240.704 2.31694C240.818 2.35099 240.909 2.38181 240.936 2.43207C240.951 2.45801 240.936 2.49206 240.97 2.51151C241.156 2.62014 241.414 2.68986 241.702 2.74175C241.98 2.69797 242.169 2.77092 242.382 2.82929C242.549 2.87468 242.746 2.83578 242.925 2.81957C243.126 2.80173 243.293 2.8147 243.437 2.87469C243.54 2.91684 243.646 2.93629 243.771 2.92818C244.022 2.91035 244.276 2.89901 244.523 2.87306C244.735 2.85037 244.895 2.8828 245.028 2.93792C245.195 3.00764 245.381 2.96061 245.555 2.97034C245.791 2.98169 245.909 3.12598 246.216 3.08707C246.398 3.06437 246.588 3.05627 246.778 3.04978C246.827 3.04816 246.888 3.07573 246.93 3.09519C247.131 3.18436 247.366 3.17949 247.624 3.15355C247.803 3.13572 247.977 3.11951 248.152 3.18112C248.44 3.28489 248.759 3.37569 249.063 3.47135C249.105 3.54593 249.074 3.63346 249.291 3.67724C249.405 3.69994 249.511 3.734 249.598 3.77129C249.704 3.81506 249.803 3.82642 249.94 3.81507C250.187 3.79237 250.445 3.78749 250.688 3.7583C250.912 3.73236 251.052 3.78588 251.189 3.83614C251.299 3.87668 251.401 3.89612 251.534 3.86694C251.671 3.83938 251.77 3.85721 251.88 3.90098C252.035 3.96097 252.047 3.9545 252.563 3.97233C252.616 3.97395 252.681 3.99826 252.711 4.01934C252.726 4.03068 252.692 4.06313 252.665 4.07934C252.631 4.0988 252.578 4.12148 252.529 4.12635C251.967 4.1685 251.401 4.20579 250.84 4.24795C250.783 4.25281 250.722 4.26417 250.68 4.28039C250.635 4.29822 250.578 4.32253 250.578 4.34522C250.578 4.36144 250.653 4.3809 250.707 4.39225C250.874 4.42954 251.071 4.3728 251.234 4.41495C251.344 4.44251 251.435 4.48142 251.546 4.50736C251.591 4.51871 251.663 4.51709 251.72 4.51385C251.91 4.5025 252.096 4.48629 252.286 4.47656C252.339 4.47494 252.4 4.49116 252.449 4.50413C252.813 4.60141 252.813 4.60141 253.129 4.58033C253.254 4.57222 253.387 4.5479 253.504 4.55763C253.618 4.56736 253.717 4.61113 253.819 4.63869C254.032 4.69706 254.233 4.75381 254.248 4.88027C254.256 4.92891 254.381 4.97106 254.506 4.9743C254.628 4.97754 254.757 4.95972 254.882 4.95C255.178 4.93054 255.178 4.93054 255.562 5.02944C255.668 5.057 255.782 5.06024 255.919 5.04403C255.972 5.03754 256.036 5.04403 256.093 5.05214C256.279 5.07646 256.279 5.10726 256.158 5.16563C255.987 5.25156 256.002 5.25967 256.48 5.33263C256.663 5.36019 256.803 5.41208 256.955 5.45747C257.202 5.53043 257.198 5.53042 257.035 5.62608C256.997 5.64715 256.962 5.66986 256.925 5.69256C256.814 5.75579 256.727 5.82388 256.499 5.83037C256.249 5.83685 255.998 5.8628 255.748 5.88064C255.505 5.89847 255.44 5.93737 255.463 6.04762C255.49 6.18057 255.539 6.19516 255.976 6.19354C256.101 6.19354 256.211 6.20651 256.306 6.25029C256.26 6.30217 256.177 6.3427 256.055 6.35243C255.744 6.37675 255.429 6.39783 255.118 6.41891C254.867 6.43674 254.617 6.45457 254.366 6.47241C254.21 6.48376 254.112 6.56807 254.153 6.66211C254.176 6.71561 254.195 6.76911 254.214 6.82262C254.256 6.92963 254.336 6.9572 254.59 6.95233C254.654 6.95071 254.715 6.93773 254.776 6.94097C255.023 6.95232 255.14 7.08689 255.436 7.05933C255.683 7.03663 255.941 7.03177 256.184 7.00258C256.408 6.97664 256.533 7.03503 256.689 7.0788C256.742 7.09339 256.799 7.12418 256.845 7.12256C257.16 7.10473 257.475 7.08691 257.782 7.0561C257.927 7.04313 258.014 7.05285 258.128 7.09177C258.401 7.1858 258.409 7.18094 258.815 7.15175C259.111 7.12906 259.115 7.1323 259.494 7.2312C259.601 7.25876 259.715 7.25875 259.851 7.24578C260.03 7.22957 260.216 7.20363 260.402 7.22795C260.459 7.23444 260.531 7.2539 260.55 7.27498C260.561 7.28957 260.508 7.32524 260.462 7.33659C260.128 7.4209 259.737 7.40631 259.373 7.44035C259.259 7.45008 259.145 7.41927 259.05 7.3755C258.952 7.33172 258.845 7.31389 258.716 7.322C258.466 7.33984 258.211 7.35118 257.965 7.37712C257.752 7.39982 257.604 7.36252 257.456 7.31226C257.407 7.29605 257.35 7.26524 257.3 7.26686C256.739 7.29929 256.173 7.33172 255.615 7.37712C255.391 7.39658 255.262 7.3447 255.11 7.30092C255.057 7.28633 255.004 7.25552 254.954 7.25714C254.765 7.26363 254.579 7.28146 254.389 7.29443C253.698 7.34307 253.011 7.39171 252.32 7.43711C252.274 7.44035 252.217 7.4063 252.164 7.39171C252.062 7.36252 251.956 7.33496 251.849 7.30739C251.659 7.32037 251.473 7.33658 251.284 7.3463C251.147 7.35279 251.025 7.3755 251.007 7.43711C250.995 7.47764 251.12 7.51493 251.253 7.51168C251.382 7.50844 251.511 7.48898 251.618 7.51006C252.145 7.61383 252.145 7.61545 252.476 7.59437C252.764 7.57492 252.734 7.5587 252.988 7.64787C253.098 7.68678 253.197 7.70949 253.322 7.69976C253.633 7.67706 253.948 7.65436 254.264 7.63491C254.313 7.63166 254.377 7.64788 254.427 7.66085C254.799 7.75813 254.799 7.76137 255.106 7.73705C255.509 7.70787 255.524 7.69976 255.793 7.79866C255.979 7.86676 256.15 7.81974 256.329 7.81649C256.534 7.87973 256.758 7.93648 256.944 8.00782C257.164 8.09213 257.395 8.07752 257.646 8.0532C257.832 8.03537 258.014 8.02888 258.166 8.09536C258.31 8.15697 258.485 8.16347 258.682 8.14725C258.86 8.13266 259.043 8.10184 259.229 8.13751C259.278 8.14724 259.354 8.17157 259.35 8.18616C259.346 8.20886 259.297 8.24129 259.248 8.25102C258.898 8.31749 258.515 8.31587 258.147 8.34667C258.097 8.35154 258.033 8.3337 257.984 8.32073C257.877 8.29154 257.775 8.2575 257.672 8.2267C257.486 8.23642 257.297 8.23966 257.114 8.25911C256.974 8.27371 256.868 8.2721 256.765 8.23319C256.67 8.19752 256.568 8.15373 256.454 8.14238C256.34 8.13103 256.207 8.15536 256.082 8.16508C255.957 8.17481 255.812 8.16994 255.714 8.19588C255.615 8.22182 255.554 8.27857 255.49 8.32397C255.417 8.37423 255.319 8.39046 255.175 8.39532C255.042 8.40018 254.935 8.39369 254.837 8.3483C254.795 8.32884 254.738 8.31424 254.681 8.30127C254.628 8.28992 254.567 8.27208 254.518 8.27532C253.952 8.31261 253.39 8.35316 252.825 8.39207C252.544 8.41153 252.548 8.41152 251.963 8.31586C251.91 8.30775 251.845 8.2964 251.792 8.29965C251.477 8.3191 251.166 8.34181 250.851 8.3645C250.532 8.3872 250.536 8.38396 249.993 8.28181C249.894 8.26236 249.75 8.2883 249.632 8.28506C249.386 8.27695 249.264 8.14077 248.976 8.16671C248.729 8.18941 248.471 8.19427 248.224 8.22345C248 8.24939 247.871 8.19265 247.719 8.14887C247.666 8.13428 247.609 8.10185 247.563 8.1051C246.998 8.14077 246.436 8.1813 245.684 8.18616C245.498 8.18616 245.582 8.22021 245.703 8.23156C245.878 8.2494 245.935 8.21535 245.84 8.1505C245.772 8.1051 245.673 8.08239 245.593 8.09374C245.552 8.10022 245.498 8.13104 245.684 8.18616C245.882 8.24777 245.871 8.28181 245.905 8.30127C245.988 8.34829 246.106 8.36774 246.227 8.36126C246.417 8.34991 246.603 8.3337 246.793 8.32397C246.846 8.32073 246.911 8.33208 246.96 8.34505C247.378 8.44557 247.381 8.45206 247.826 8.41315C247.966 8.4018 248.068 8.4018 248.178 8.43261C248.33 8.47476 248.44 8.54609 248.672 8.52339C248.979 8.49259 249.295 8.47477 249.61 8.45693C249.659 8.45369 249.712 8.48287 249.769 8.49584C249.925 8.53475 250.039 8.60771 250.27 8.57691C250.449 8.55259 250.642 8.54609 250.832 8.54122C250.881 8.5396 250.957 8.56555 250.98 8.58663C251.025 8.62392 250.969 8.6677 250.84 8.69851C250.786 8.71148 250.714 8.70823 250.654 8.71309C250.403 8.73093 250.152 8.75038 249.902 8.76497C249.769 8.77307 249.644 8.79741 249.629 8.85739C249.617 8.89793 249.754 8.93359 249.883 8.93035C250.073 8.92548 250.262 8.91251 250.445 8.89144C250.767 8.85577 251.048 8.86549 251.31 8.96763C251.496 9.03897 251.485 9.01304 251.682 9.22382C251.732 9.27732 251.88 9.28218 252.009 9.27894C252.32 9.27083 252.464 9.29515 252.438 9.34542C252.403 9.40703 252.293 9.42647 252.153 9.43458C251.902 9.44755 251.652 9.46864 251.401 9.48647C251.341 9.49133 251.272 9.50105 251.215 9.49781C251.158 9.49457 251.105 9.47512 251.056 9.46052C250.95 9.42972 250.858 9.38269 250.745 9.37134C250.631 9.35999 250.498 9.38432 250.373 9.39404C250.247 9.40215 250.114 9.42647 250.001 9.41512C249.887 9.40377 249.792 9.35514 249.689 9.32596C249.64 9.31137 249.579 9.28866 249.53 9.29028C249.279 9.30325 249.029 9.32433 248.778 9.34055C248.471 9.36162 248.471 9.36163 248.099 9.2611C247.993 9.23192 247.882 9.23355 247.742 9.24652C247.438 9.27246 247.435 9.26758 246.88 9.17355C246.827 9.16382 246.763 9.15247 246.709 9.15734C246.144 9.19463 245.582 9.23516 245.02 9.27407C244.538 9.30812 244.538 9.30813 244.272 9.47026C244.075 9.59024 244.071 9.59023 244.265 9.64536C244.42 9.69075 244.561 9.75722 244.732 9.78154C244.891 9.80424 245.089 9.73129 245.263 9.80587C245.35 9.84316 245.464 9.88369 245.574 9.89018C245.749 9.89829 245.935 9.85126 246.102 9.9226C246.186 9.95827 246.311 9.99557 246.417 9.99719C246.603 10.0004 246.793 9.97448 246.979 9.96313C247.036 9.95989 247.1 9.95989 247.154 9.968C247.211 9.97773 247.26 9.99719 247.309 10.0134C247.461 10.0685 247.624 10.0945 247.822 10.0669C248.144 10.0215 248.433 10.0442 248.683 10.148C248.718 10.1626 248.801 10.1642 248.854 10.1577C248.991 10.1415 249.109 10.1399 249.211 10.1707C249.253 10.1836 249.313 10.2063 249.306 10.2209C249.295 10.2452 249.249 10.2777 249.2 10.2858C248.843 10.3409 248.459 10.3474 248.091 10.3766C248.042 10.3798 247.981 10.3587 247.932 10.3441C247.826 10.315 247.734 10.2663 247.62 10.255C247.507 10.2436 247.374 10.2647 247.248 10.2728C247.123 10.2809 246.99 10.3052 246.876 10.2955C246.763 10.2842 246.656 10.2436 246.565 10.208C246.459 10.1674 246.356 10.1626 246.216 10.1788C246.034 10.1999 245.844 10.2031 245.658 10.2144C245.555 10.1836 245.453 10.1496 245.347 10.1204C245.297 10.1058 245.237 10.088 245.183 10.0896C244.933 10.1026 244.682 10.122 244.432 10.1399C244.181 10.1577 244.181 10.1577 243.756 10.0572C243.707 10.0458 243.642 10.0329 243.589 10.0361C243.274 10.0556 242.963 10.0799 242.648 10.0993C242.526 10.1074 242.416 10.0847 242.317 10.041C242.223 9.99718 242.109 9.97286 241.991 9.98096C241.49 10.015 240.989 10.0474 240.488 10.088C240.287 10.1042 240.116 10.0896 239.979 10.0312C239.82 9.96476 239.641 9.98098 239.455 9.99395C239.034 10.0264 239.03 10.0247 238.761 9.94205C238.707 9.92584 238.654 9.89503 238.605 9.89665C238.168 9.92097 237.728 9.94368 237.295 9.98259C237.068 10.0037 236.946 9.94692 236.794 9.90477C236.741 9.89017 236.684 9.85937 236.639 9.86261C236.324 9.88045 236.008 9.89666 235.701 9.92909C235.393 9.96152 235.276 9.81074 235.044 9.81236C234.729 9.81398 234.418 9.85127 234.107 9.87397C233.856 9.89181 233.606 9.90963 233.355 9.92747C233.105 9.9453 232.854 9.95989 232.603 9.98096C232.471 9.99231 232.372 9.97772 232.262 9.93719C232.121 9.88368 231.954 9.84154 231.803 9.7929C231.571 9.72319 231.571 9.72318 231.29 9.74263C231.229 9.7475 231.165 9.75073 231.104 9.7556C230.645 9.79127 230.645 9.78803 230.06 9.68589C230.034 9.68103 229.965 9.69887 229.939 9.71184C229.859 9.75399 229.787 9.79938 229.715 9.84315C229.612 9.81721 229.487 9.80263 229.419 9.76534C229.225 9.65995 228.921 9.80424 228.724 9.70048C228.652 9.66157 228.527 9.62752 228.413 9.61779C228.295 9.60806 228.162 9.63076 228.041 9.64049C227.726 9.66481 227.726 9.66319 227.456 9.80749C227.319 9.87883 227.122 9.86585 226.944 9.88207C226.758 9.8999 226.579 9.90963 226.424 9.84315C226.283 9.78317 226.112 9.76858 225.911 9.78804C225.664 9.81236 225.41 9.82694 225.16 9.84153C225.106 9.84478 225.042 9.83667 224.989 9.82695C224.408 9.73129 224.408 9.72967 224.127 9.75075C224.002 9.76048 223.873 9.76371 223.751 9.7783C223.546 9.80424 223.391 9.77019 223.243 9.71831C223.193 9.7021 223.136 9.67131 223.087 9.67293C222.836 9.68103 222.59 9.69562 222.343 9.71021C222.153 9.72156 221.963 9.72805 221.781 9.75075C221.477 9.78804 221.329 9.68264 221.121 9.634C220.809 9.65508 220.494 9.66967 220.183 9.69885C220.039 9.71183 219.944 9.70697 219.834 9.66806C219.693 9.61942 219.564 9.5643 219.336 9.58862C219.033 9.62104 218.714 9.63239 218.403 9.65185C218.194 9.60159 218.042 9.49943 217.742 9.53672C217.56 9.55942 217.366 9.56428 217.18 9.57726C216.93 9.59509 216.679 9.61132 216.429 9.63077C216.159 9.65023 216.163 9.64536 215.749 9.54971C215.51 9.49296 215.263 9.55619 215.02 9.56591C214.83 9.57402 214.736 9.6486 214.781 9.74426C214.827 9.83992 214.724 9.9145 214.55 9.92747C214.113 9.95827 213.673 9.99069 213.236 10.0183C213.183 10.0215 213.119 10.0101 213.069 9.9988C212.602 9.89665 212.602 9.89829 212.393 9.91288C212.082 9.9372 211.763 9.95016 211.456 9.98096C211.243 10.002 211.088 9.96801 210.951 9.91288C210.845 9.87073 210.746 9.861 210.609 9.87072C209.106 9.97935 207.603 10.0799 206.103 10.1917C205.88 10.208 205.751 10.1609 205.599 10.1172C205.546 10.1026 205.496 10.0718 205.443 10.0718C205.318 10.0718 205.192 10.0864 205.067 10.0961C204.505 10.135 203.944 10.182 203.378 10.2112C203.139 10.2242 203.074 10.2988 202.972 10.3604C202.892 10.4074 202.801 10.4268 202.661 10.4333C202.524 10.4398 202.425 10.4317 202.319 10.3895C202.182 10.3344 202.027 10.3004 201.814 10.3231C201.567 10.349 201.317 10.3604 201.062 10.3782C200.933 10.3863 200.835 10.4155 200.793 10.4739C200.785 10.4836 200.865 10.5079 200.911 10.5225C201.062 10.5711 201.207 10.6279 201.377 10.6619C201.552 10.696 201.742 10.6571 201.924 10.6473C201.989 10.6441 202.049 10.6344 202.11 10.636C202.167 10.6376 202.235 10.6457 202.277 10.6603C202.475 10.7333 202.683 10.7835 202.957 10.7398C203.192 10.7608 203.313 10.8954 203.613 10.8597C203.796 10.8387 203.985 10.8289 204.175 10.8208C204.225 10.8192 204.278 10.8484 204.331 10.863C204.483 10.9035 204.604 10.9684 204.832 10.9408C205.075 10.9116 205.333 10.9068 205.58 10.8841C205.716 10.8711 205.815 10.8824 205.921 10.9246C206.058 10.9781 206.214 11.0186 206.426 10.9927C206.608 10.97 206.802 10.9651 206.988 10.9505C207.231 10.9327 207.231 10.9343 207.664 11.0348C207.713 11.0462 207.778 11.0591 207.831 11.0559C208.146 11.0364 208.457 11.0121 208.772 10.9927C208.894 10.9846 209.011 11.0056 209.095 11.0527C209.129 11.0721 209.117 11.1046 209.129 11.1321C208.503 11.1759 207.876 11.2132 207.254 11.2667C207.018 11.2878 206.912 11.2213 206.756 11.184C206.703 11.171 206.646 11.1435 206.597 11.1467C206.157 11.1743 205.72 11.2034 205.284 11.2391C205.147 11.2505 205.044 11.244 204.942 11.197C204.68 11.0721 204.361 11.1402 204.065 11.158C203.837 11.171 203.765 11.2213 203.792 11.3283C203.826 11.4548 203.963 11.4937 204.312 11.471C204.437 11.4629 204.562 11.4515 204.688 11.445C204.809 11.4385 204.919 11.4596 205.018 11.5034C205.113 11.5472 205.227 11.5699 205.344 11.5634C205.595 11.5488 205.849 11.5342 206.092 11.5099C206.293 11.4904 206.46 11.5066 206.601 11.5666C206.756 11.6331 206.939 11.6185 207.121 11.6039C207.546 11.5715 207.55 11.5731 207.815 11.6542C207.869 11.6704 207.922 11.7012 207.971 11.6996C208.408 11.6753 208.848 11.6542 209.277 11.6153C209.501 11.5958 209.63 11.6477 209.778 11.6899C209.831 11.7044 209.884 11.7369 209.934 11.7336C210.249 11.7158 210.564 11.698 210.871 11.6671C211.016 11.6526 211.103 11.6623 211.22 11.7012C211.501 11.7968 211.509 11.7936 211.908 11.7628C212.029 11.7531 212.162 11.7352 212.276 11.7482C212.39 11.7612 212.481 11.8082 212.587 11.8374C212.636 11.8504 212.697 11.8682 212.75 11.8649C213.001 11.852 213.251 11.8325 213.502 11.8147C213.737 11.7969 213.737 11.7985 214.178 11.899C214.356 11.9412 214.542 11.9055 214.72 11.8925C214.914 11.8779 215.089 11.8779 215.237 11.9412C215.385 12.0044 215.563 12.0011 215.753 11.9882C215.931 11.9752 216.114 11.9395 216.296 11.9833C216.713 12.0838 216.713 12.0854 216.971 12.066C217.347 12.0384 217.719 12.0125 218.099 11.9882C218.148 11.9849 218.213 12.0044 218.262 12.0174C218.368 12.0465 218.46 12.0952 218.573 12.1065C218.687 12.1195 218.82 12.1 218.942 12.0903C219.333 12.0595 219.359 12.0482 219.621 12.1552C219.841 12.2427 220.115 12.1163 220.32 12.2168C220.437 12.2735 220.597 12.3189 220.817 12.2914C220.999 12.2687 221.189 12.2622 221.379 12.2492C221.678 12.2281 221.679 12.2298 222.058 12.327C222.107 12.34 222.172 12.3562 222.221 12.353C222.472 12.34 222.726 12.3287 222.969 12.2995C223.254 12.2654 223.436 12.327 223.649 12.387C223.816 12.434 224.013 12.3951 224.192 12.3789C224.385 12.3627 224.56 12.3676 224.704 12.4308C224.856 12.4956 225.034 12.4875 225.224 12.4746C225.402 12.4632 225.585 12.4259 225.767 12.4713C226.158 12.5718 226.158 12.5718 226.443 12.5524C226.693 12.5346 226.944 12.5151 227.194 12.5021C227.243 12.4989 227.304 12.52 227.354 12.5346C227.46 12.5637 227.551 12.6124 227.665 12.6237C227.779 12.6351 227.912 12.614 228.037 12.6059C228.162 12.5978 228.295 12.5735 228.409 12.5832C228.523 12.5929 228.629 12.6335 228.72 12.6691C228.826 12.7113 228.925 12.7161 229.069 12.6999C229.252 12.6789 229.441 12.674 229.627 12.6626C229.73 12.6935 229.836 12.7243 229.935 12.7583C230.037 12.794 230.147 12.7907 230.288 12.7794C230.755 12.7405 230.759 12.7453 231.15 12.8459C231.328 12.8913 231.514 12.854 231.692 12.8426C231.882 12.8296 232.061 12.8232 232.209 12.888C232.353 12.9496 232.531 12.9577 232.721 12.9383C232.843 12.9253 232.972 12.9172 233.097 12.9123C233.154 12.9107 233.222 12.9172 233.264 12.9302C233.465 12.9983 233.663 13.0599 233.94 13.0161C234.183 13.0291 234.304 13.162 234.596 13.1361C234.843 13.1134 235.101 13.1085 235.344 13.0793C235.568 13.0534 235.728 13.0988 235.841 13.1555C236.046 13.2561 236.335 13.1199 236.54 13.2188C236.658 13.2755 236.809 13.3209 237.037 13.2966C237.288 13.2707 237.367 13.3047 237.44 13.4068C237.481 13.4652 237.474 13.5122 237.398 13.5576C237.322 13.6046 237.238 13.5965 237.117 13.543C236.977 13.483 236.809 13.4717 236.608 13.4847C236.411 13.4976 236.289 13.4133 236.126 13.3809C235.963 13.3469 235.769 13.4036 235.599 13.3598C235.196 13.2577 235.196 13.2577 234.923 13.2771C234.737 13.2901 234.543 13.2966 234.361 13.3193C234.145 13.3469 234.004 13.2966 233.856 13.2512C233.803 13.235 233.75 13.2042 233.704 13.2058C233.268 13.2301 232.827 13.2528 232.395 13.2933C232.167 13.3144 232.045 13.2561 231.894 13.2155C231.84 13.2009 231.783 13.1718 231.738 13.175C231.362 13.1977 230.99 13.2269 230.614 13.2544C230.542 13.2982 230.462 13.3404 230.394 13.3874C230.322 13.436 230.223 13.4571 230.079 13.4555C229.84 13.4555 229.605 13.5236 229.365 13.4376C229.119 13.3501 229.1 13.355 228.861 13.376C228.557 13.4036 228.234 13.3971 227.95 13.4603C227.9 13.4717 227.847 13.5025 227.847 13.5252C227.843 13.5398 227.923 13.5609 227.972 13.5738C228.139 13.6127 228.333 13.556 228.5 13.5965C228.61 13.6225 228.701 13.6614 228.811 13.6889C228.857 13.7003 228.925 13.6987 228.986 13.6971C229.05 13.6954 229.111 13.6841 229.172 13.6857C229.229 13.6873 229.29 13.6971 229.335 13.7116C229.544 13.7733 229.764 13.83 229.95 13.903C230.132 13.9743 230.303 13.9257 230.485 13.9224C231.214 14.0359 231.214 14.0375 231.704 14.0019C231.825 13.9938 231.951 13.984 232.076 13.9857C232.129 13.9857 232.178 14.0148 232.231 14.031C232.383 14.0797 232.528 14.1235 232.74 14.0975C232.922 14.0748 233.116 14.07 233.302 14.0554C233.552 14.0375 233.552 14.0375 233.978 14.1397C234.084 14.1656 234.198 14.1624 234.334 14.1494C234.452 14.1381 234.574 14.1624 234.657 14.2094C234.691 14.2289 234.68 14.2613 234.691 14.2888C234.315 14.3148 233.936 14.3326 233.571 14.3715C233.336 14.3959 233.23 14.3261 233.074 14.2888C233.021 14.2759 232.964 14.2483 232.915 14.2516C232.543 14.2759 232.171 14.3034 231.799 14.3359C231.753 14.3391 231.696 14.3764 231.692 14.3991C231.685 14.4412 231.78 14.4818 231.916 14.4802C232.099 14.4785 232.277 14.451 232.44 14.5174C232.577 14.5758 232.748 14.6018 232.949 14.5758C233.07 14.5612 233.199 14.5612 233.321 14.5483C233.644 14.5093 233.936 14.5174 234.179 14.6277C234.365 14.6569 234.547 14.6293 234.725 14.6147C234.858 14.6034 234.987 14.592 235.082 14.6228C235.283 14.6877 235.481 14.7525 235.758 14.7088C236.058 14.7542 236.286 14.8498 236.536 14.9276C236.654 14.9649 236.745 14.986 236.882 14.9617C236.939 14.952 237.007 14.952 237.068 14.9471C237.193 14.939 237.326 14.9147 237.44 14.9244C237.553 14.9357 237.648 14.9828 237.751 15.012C237.8 15.0265 237.857 15.0509 237.906 15.0492C238.096 15.0411 238.282 15.0249 238.468 15.012C238.654 15.0006 238.84 14.9893 239.026 14.9779C239.182 15.0201 239.341 15.0622 239.497 15.1044C239.748 15.0865 239.998 15.0687 240.245 15.0525C240.522 15.033 240.522 15.0347 240.92 15.1352C241.099 15.1806 241.289 15.1514 241.46 15.1303C241.744 15.0963 241.934 15.1579 242.135 15.2227C242.177 15.2357 242.253 15.2438 242.302 15.2373C242.5 15.2146 242.67 15.2324 242.815 15.2924C242.917 15.3346 243.02 15.3541 243.145 15.346C243.582 15.3151 244.018 15.2827 244.455 15.2552C244.508 15.2519 244.568 15.2665 244.618 15.2795C245.005 15.3784 245.009 15.3832 245.293 15.3573C245.548 15.3346 245.783 15.3249 245.984 15.414C246.026 15.4335 246.091 15.4611 246.136 15.4594C246.447 15.4432 246.763 15.4254 247.07 15.3978C247.211 15.3849 247.309 15.3897 247.419 15.427C247.56 15.474 247.685 15.5308 247.917 15.5097C248.558 15.4497 248.562 15.4594 249.321 15.5713C249.374 15.5794 249.446 15.5664 249.507 15.56C249.636 15.5437 249.731 15.5665 249.845 15.6037C250.099 15.688 250.107 15.6832 250.35 15.6654C250.536 15.6508 250.729 15.6475 250.912 15.6232C251.193 15.5875 251.379 15.6508 251.587 15.7108C251.754 15.7578 251.948 15.7189 252.126 15.7043C252.32 15.688 252.495 15.6929 252.639 15.7545C252.738 15.7967 252.844 15.8194 252.969 15.8113C253.406 15.7821 253.842 15.7497 254.279 15.7205C254.332 15.7172 254.396 15.7302 254.446 15.7415C254.878 15.8421 254.878 15.8469 255.307 15.8097C255.444 15.7983 255.558 15.7951 255.66 15.8291C255.759 15.8615 255.865 15.8923 255.968 15.9231C256.154 15.9118 256.344 15.9086 256.526 15.8891C256.666 15.8745 256.765 15.881 256.875 15.915C257.019 15.9588 257.141 16.035 257.369 15.9977C257.486 15.9799 257.623 15.9848 257.741 15.9685C257.881 15.9475 257.976 15.9604 258.086 16.0026C258.223 16.0528 258.363 16.1047 258.583 16.0788C258.826 16.0496 259.084 16.0447 259.331 16.022C259.468 16.0091 259.563 16.022 259.673 16.0642C259.809 16.1177 259.965 16.1517 260.178 16.1307C260.61 16.0901 260.614 16.0982 261.036 16.2004C261.142 16.2263 261.256 16.2231 261.392 16.2101C261.51 16.1988 261.632 16.2231 261.715 16.2701C261.795 16.322 261.787 16.3544 261.795 16.382ZM227.969 1.75921C227.843 1.76732 227.718 1.77705 227.536 1.63599C227.524 1.61167 227.532 1.58249 227.505 1.56142C227.445 1.51764 227.35 1.48684 227.236 1.48197C227.031 1.47549 226.784 1.5306 226.788 1.57276C226.792 1.60843 226.856 1.63922 226.982 1.66841C227.035 1.67976 227.076 1.69922 227.126 1.71219C227.27 1.74948 227.384 1.82245 227.593 1.78516C227.555 1.68464 227.574 1.7349 227.593 1.78516C227.574 1.84677 227.631 1.89055 227.767 1.90838C227.805 1.91325 227.862 1.91 227.893 1.90027C228.01 1.8646 228.029 1.81597 227.942 1.68788C227.927 1.70896 227.938 1.74624 227.972 1.75597C228.007 1.76569 228.09 1.7576 228.132 1.74625C228.238 1.71544 228.291 1.67491 228.265 1.64086C228.249 1.62302 228.177 1.60033 228.132 1.60033C228.052 1.60033 227.98 1.63599 227.969 1.75921ZM258.663 20.5618C258.386 20.5926 258.067 20.5812 257.79 20.6444C257.741 20.6558 257.691 20.685 257.688 20.7077C257.684 20.7223 257.76 20.7434 257.805 20.7547C257.908 20.7806 258.022 20.7725 258.154 20.7644C258.356 20.7531 258.473 20.8277 258.629 20.8649C258.678 20.8763 258.743 20.8844 258.796 20.8812C259.103 20.8617 259.407 20.8406 259.715 20.8179C259.768 20.8131 259.825 20.8017 259.87 20.7871C260.022 20.7401 260.007 20.7093 259.859 20.6736C259.696 20.6347 259.567 20.5699 259.4 20.5391C259.16 20.4953 258.917 20.5536 258.663 20.5618ZM237.106 21.7453C236.92 21.7583 236.737 21.7713 236.551 21.7842C236.491 21.7891 236.426 21.7907 236.369 21.7972C236.251 21.8086 236.164 21.8426 236.107 21.8961C236.194 21.9383 236.301 21.9626 236.418 21.9577C236.604 21.948 236.787 21.9269 236.973 21.9221C237.174 21.9156 237.292 21.9885 237.447 22.0258C237.497 22.0372 237.557 22.0388 237.614 22.0404C237.895 22.0469 238.066 21.9626 238.013 21.8442C237.975 21.7518 237.831 21.6967 237.656 21.708C237.474 21.7194 237.288 21.7324 237.106 21.7453ZM259.961 18.1654C260.007 18.1379 260.056 18.1184 260.079 18.0941C260.147 18.0114 260.121 17.9498 259.995 17.8849C259.844 17.8055 259.658 17.859 259.487 17.8671C259.445 17.8687 259.4 17.9028 259.377 17.9239C259.362 17.9384 259.362 17.9693 259.384 17.9774C259.57 18.0422 259.768 18.1022 259.961 18.1654ZM227.031 13.376C226.849 13.389 226.663 13.3987 226.481 13.4166C226.435 13.4214 226.393 13.4522 226.367 13.4733C226.317 13.5122 226.37 13.5657 226.526 13.5706C226.704 13.5771 226.89 13.5495 227.076 13.5365C227.312 13.5203 227.452 13.4603 227.365 13.4085C227.281 13.3582 227.168 13.3485 227.031 13.376ZM27.2126 9.91126C27.3341 9.90315 27.4593 9.89666 27.5808 9.88531C27.6947 9.87396 27.782 9.83829 27.839 9.78479C27.7441 9.74264 27.6378 9.71994 27.5201 9.7248C27.3341 9.73453 27.1519 9.7475 26.9697 9.76371C26.8558 9.77344 26.7457 9.80911 26.7192 9.86423C26.6926 9.90639 26.9469 9.93071 27.2126 9.91126ZM210.978 9.66157C211.027 9.67616 211.076 9.70535 211.126 9.70535C211.247 9.70535 211.372 9.69561 211.486 9.6794C211.536 9.67291 211.574 9.64373 211.596 9.62103C211.611 9.60644 211.608 9.58051 211.585 9.56754C211.475 9.48971 211.035 9.51727 210.962 9.60645C210.955 9.62266 210.974 9.64373 210.978 9.66157ZM199.001 0.78317C199.013 0.809111 199.016 0.835049 199.032 0.86099C199.062 0.90963 199.145 0.945306 199.267 0.969626C199.362 0.929093 199.411 0.883703 199.407 0.835063C199.404 0.809122 199.392 0.783164 199.377 0.757223C199.347 0.708583 199.263 0.672926 199.142 0.648606C199.047 0.687518 199.001 0.732908 199.001 0.78317ZM268.734 22.0274C268.7 22.0485 268.666 22.0696 268.628 22.0891C268.73 22.1361 268.825 22.1507 268.897 22.1247C268.943 22.1085 268.969 22.0842 269.003 22.0631C268.901 22.0161 268.81 22.0031 268.734 22.0274ZM266.373 22.2479C266.422 22.2625 266.468 22.282 266.521 22.2917C266.608 22.3079 266.688 22.2804 266.749 22.222C266.699 22.2074 266.654 22.1879 266.601 22.1782C266.513 22.162 266.434 22.1896 266.373 22.2479ZM267.868 21.9512C267.842 21.9902 267.895 22.0226 268.035 22.0501C268.07 22.0291 268.115 22.0096 268.138 21.9869C268.176 21.9496 268.111 21.9156 267.975 21.8896C267.937 21.9091 267.903 21.9302 267.868 21.9512ZM259.855 20.2034C259.828 20.2424 259.882 20.2748 260.022 20.3023C260.056 20.2813 260.102 20.2618 260.125 20.2391C260.163 20.2018 260.098 20.1678 259.961 20.1418C259.923 20.1613 259.889 20.1824 259.855 20.2034ZM248.938 8.73093C248.904 8.752 248.869 8.77308 248.831 8.79254C248.934 8.83956 249.029 8.85414 249.101 8.8282C249.146 8.81199 249.173 8.78767 249.207 8.76659C249.105 8.71957 249.014 8.70661 248.938 8.73093ZM238.48 2.64445C238.571 2.6558 238.647 2.63311 238.711 2.57312C238.662 2.55853 238.616 2.53907 238.563 2.52934C238.476 2.51313 238.396 2.5407 238.335 2.59907C238.385 2.61528 238.434 2.62986 238.48 2.64445ZM232.926 2.26344C232.892 2.28452 232.858 2.3056 232.82 2.32505C232.922 2.37207 233.017 2.38666 233.089 2.36072C233.135 2.34451 233.161 2.32019 233.196 2.29911C233.093 2.25209 233.002 2.24074 232.926 2.26344ZM195.266 0.781547C195.232 0.802624 195.198 0.823702 195.16 0.843158C195.262 0.890176 195.357 0.904764 195.429 0.878822C195.475 0.862609 195.501 0.838288 195.535 0.817211C195.433 0.770193 195.342 0.758848 195.266 0.781547ZM7.74662 13.9727C7.69727 13.9581 7.64796 13.9435 7.60241 13.9273C7.49233 13.9711 7.45817 14.0116 7.51891 14.0424C7.55687 14.0619 7.61377 14.0732 7.66311 14.0878C7.777 14.044 7.80356 14.0051 7.74662 13.9727Z" fill="#4F9CF9"/>
</g>
<defs>
<filter id="filter0_d_70_2947" x="0" y="0" width="282" height="39" filterUnits="userSpaceOnUse" color-interpolation-filters="sRGB">
<feFlood flood-opacity="0" result="BackgroundImageFix"/>
<feColorMatrix in="SourceAlpha" type="matrix" values="0 0 0 0 0 0 0 0 0 0 0 0 0 0 0 0 0 0 127 0" result="hardAlpha"/>
<feOffset dy="4"/>
<feGaussianBlur stdDeviation="2"/>
<feComposite in2="hardAlpha" operator="out"/>
<feColorMatrix type="matrix" values="0 0 0 0 0 0 0 0 0 0 0 0 0 0 0 0 0 0 0.25 0"/>
<feBlend mode="normal" in2="BackgroundImageFix" result="effect1_dropShadow_70_2947"/>
<feBlend mode="normal" in="SourceGraphic" in2="effect1_dropShadow_70_2947" result="shape"/>
</filter>
</defs>
</svg>
